<?xml version='1.0' encoding='iso-8859-1'?>
<!-- Uploaded to: SVG Repo, www.svgrepo.com, Generator: SVG Repo Mixer Tools -->
<svg fill="#000000" height="24px" width="24px" version="1.1" xmlns="http://www.w3.org/2000/svg" viewBox="0 0 470 470" xmlns:xlink="http://www.w3.org/1999/xlink" enable-background="new 0 0 470 470">
  <g>
    <path d="m327.392,160.809c-3.292,2.515-3.922,7.222-1.407,10.513 14.076,18.423 21.515,40.443 21.515,63.678 0,57.897-47.103,105-105,105-57.897,0-105-47.103-105-105s47.103-105 105-105c23.235,0 45.255,7.439 63.679,21.516 3.29,2.515 7.998,1.885 10.513-1.407 2.515-3.291 1.885-7.998-1.407-10.513-21.061-16.091-46.23-24.596-72.785-24.596-66.168,0-120,53.832-120,120s53.832,120 120,120c66.168,0 120-53.832 120-120 0-26.555-8.505-51.724-24.596-72.784-2.514-3.291-7.22-3.922-10.512-1.407z"/>
    <path d="m242.5,75c-88.224,0-160,71.775-160,160s71.776,160 160,160c88.225,0 160-71.775 160-160s-71.775-160-160-160zm0,305c-79.953,0-145-65.047-145-145s65.047-145 145-145 145,65.047 145,145-65.047,145-145,145z"/>
    <path d="M67.5,75c-4.142,0-7.5,3.357-7.5,7.5V145H45V82.5c0-4.143-3.358-7.5-7.5-7.5S30,78.357,30,82.5V145H15V82.5   c0-4.143-3.358-7.5-7.5-7.5S0,78.357,0,82.5v90c0,18.11,12.904,33.261,30,36.745V387.5c0,4.143,3.358,7.5,7.5,7.5   s7.5-3.357,7.5-7.5V209.245c17.096-3.484,30-18.635,30-36.745v-90C75,78.357,71.642,75,67.5,75z M37.5,195   C25.093,195,15,184.906,15,172.5V160h45v12.5C60,184.906,49.907,195,37.5,195z"/>
    <path d="m462.5,75c-20.678,0-37.5,16.822-37.5,37.5v137.5c0,4.143 3.357,7.5 7.5,7.5h22.5v130c0,4.143 3.357,7.5 7.5,7.5s7.5-3.357 7.5-7.5v-305c0-4.143-3.357-7.5-7.5-7.5zm-7.5,167.5h-15v-130c0-9.778 6.27-18.119 15-21.215v151.215z"/>
  </g>
</svg>