<svg fill="#000000" version="1.1" id="Capa_1" xmlns="http://www.w3.org/2000/svg" xmlns:xlink="http://www.w3.org/1999/xlink" 
	 width="24px" height="24px" viewBox="0 0 198.842 198.842"
	 xml:space="preserve">
<g>
	<g>
		<path d="M46.261,165.974c1.304-1.33,1.282-3.469-0.049-4.773c-1.332-1.305-3.469-1.281-4.773,0.05l-23.978,24.478l-7.556,3.225
			l3.299-7.493l24.364-24.863c1.305-1.332,1.283-3.468-0.048-4.772c-1.332-1.305-3.469-1.282-4.773,0.048L7.952,177.173
			c-0.284,0.29-0.515,0.63-0.678,1.002l-6.988,15.872c-0.558,1.269-0.285,2.748,0.689,3.733c0.659,0.666,1.55,1.016,2.452,1.002
			c0.429-0.008,0.862-0.096,1.273-0.271l16.028-6.84c0.407-0.174,0.776-0.426,1.086-0.742L46.261,165.974z"/>
		<path d="M198.842,12.47c0.001-0.898-0.355-1.759-0.99-2.393l-9.039-9.03c-1.315-1.313-3.445-1.317-4.764-0.008L156.482,28.4
			c-1.322,1.313-1.33,3.45-0.018,4.773s3.45,1.331,4.773,0.018l25.181-24.994l4.265,4.259l-25.509,25.322
			c-1.323,1.313-1.331,3.45-0.017,4.773c0.673,0.678,1.561,1.01,2.447,0.997c0.842-0.013,1.681-0.339,2.325-0.979l27.914-27.709
			C198.48,14.228,198.84,13.368,198.842,12.47z"/>
		<path d="M99.502,140.416c0.057-3.785-1.084-7.595-3.212-10.923c10.149,1.691,20.524-1.276,27.823-8.573
			c5.707-5.703,8.918-13.417,9.043-21.722c0.033-2.201-0.149-4.399-0.541-6.563c2.804,1.775,5.943,2.848,9.158,3.096
			c4.957,0.382,9.498-1.219,12.791-4.511l13.709-13.703c2.877-2.881,4.498-6.83,4.562-11.121c0.08-5.279-2.172-10.607-6.178-14.616
			l-19.61-19.61c-4.009-4.006-9.337-6.258-14.616-6.179c-4.291,0.064-8.24,1.685-11.121,4.563l-13.703,13.71
			c-3.291,3.292-4.893,7.834-4.511,12.79c0.248,3.215,1.322,6.355,3.097,9.158c-2.164-0.392-4.362-0.574-6.565-0.541
			c-8.304,0.125-16.018,3.337-21.721,9.043c-7.297,7.299-10.264,17.675-8.572,27.824c-3.329-2.129-7.138-3.27-10.923-3.213
			c-4.291,0.065-8.242,1.686-11.127,4.565l-13.705,13.71c-6.636,6.648-5.912,18.18,1.61,25.717l20.322,20.321
			c7.537,7.522,19.068,8.246,25.716,1.61l13.71-13.705C97.817,148.657,99.437,144.707,99.502,140.416z M76.457,160.473
			c-4.019,4.013-11.283,3.284-16.189-1.624c-0.012-0.012-0.024-0.023-0.036-0.035l-20.217-20.217
			c-0.011-0.012-0.023-0.023-0.035-0.035c-4.908-4.908-5.636-12.171-1.624-16.189l13.701-13.705c1.659-1.656,3.892-2.553,6.457-2.59
			c3.465-0.053,7.013,1.479,9.736,4.203l5.679,5.679c1.318,1.317,3.455,1.317,4.773,0l0.465-0.465
			c1.094-1.095,1.304-2.793,0.509-4.121c-6.368-10.634-5.132-23.745,3.006-31.885c4.455-4.458,10.51-6.967,17.049-7.066
			c5.15-0.078,9.634,0.697,14.19,3.424c1.327,0.795,3.026,0.585,4.12-0.508l0.641-0.642c0.633-0.633,0.989-1.491,0.989-2.387
			s-0.356-1.754-0.989-2.387l-4.687-4.705c-2.445-2.444-3.925-5.527-4.169-8.681c-0.229-2.959,0.679-5.622,2.555-7.498
			l13.702-13.708c1.655-1.654,3.886-2.549,6.45-2.587c3.465-0.052,7.017,1.479,9.742,4.204l19.606,19.607
			c2.724,2.726,4.256,6.277,4.204,9.743c-0.039,2.564-0.934,4.795-2.587,6.45l-13.708,13.701c-1.876,1.876-4.539,2.783-7.498,2.555
			c-3.154-0.244-6.237-1.724-8.682-4.168l-4.705-4.687c-0.633-0.633-1.491-0.989-2.387-0.989c-0.895,0-3.027,1.63-3.027,1.63
			c-1.094,1.094-1.303,2.793-0.508,4.12c2.728,4.556,3.502,9.04,3.424,14.19c-0.098,6.539-2.608,12.594-7.066,17.051
			c-8.141,8.138-21.252,9.373-31.885,3.006c-1.328-0.795-3.026-0.586-4.121,0.509l-0.465,0.465c-1.318,1.317-1.318,3.454,0,4.772
			l5.679,5.68c2.724,2.722,4.256,6.271,4.203,9.736c-0.039,2.565-0.935,4.797-2.591,6.457L76.457,160.473z"/>
	</g>
</g>
</svg>