<svg fill="#000000" height="24px" width="24px" version="1.1" id="Layer_1" xmlns="http://www.w3.org/2000/svg" xmlns:xlink="http://www.w3.org/1999/xlink" 
	 viewBox="0 0 512 512" xml:space="preserve">
<g>
	<g>
		<path d="M251.942,163.729c-2.248-3.698-7.068-4.873-10.768-2.626c-3.699,2.249-4.874,7.069-2.626,10.768
			c26.081,42.902,40.444,84.268,40.444,116.478c0,8.593-2.815,16.688-8.14,23.411c-2.686,3.393-2.115,8.322,1.278,11.009
			c1.44,1.141,3.157,1.695,4.861,1.695c2.311,0,4.602-1.019,6.148-2.972c7.541-9.52,11.527-20.982,11.527-33.143
			C294.667,253.308,279.494,209.051,251.942,163.729z"/>
	</g>
</g>
<g>
	<g>
		<path d="M233.058,135.317c-19.73-27.248-41.649-50.693-61.717-66.019c-3.44-2.626-8.358-1.968-10.985,1.472
			c-2.627,3.44-1.968,8.358,1.472,10.985c18.888,14.423,39.676,36.709,58.534,62.754c1.533,2.116,3.926,3.241,6.354,3.241
			c1.592,0,3.201-0.484,4.59-1.49C234.812,143.724,235.596,138.823,233.058,135.317z"/>
	</g>
</g>
<g>
	<g>
		<path d="M499.984,326.152h-14.904c9.048-9.215,14.684-21.765,14.921-35.676c0.666-38.354-17.643-88.895-50.229-138.661
			c-2.371-3.622-7.229-4.633-10.849-2.263c-3.621,2.371-4.634,7.228-2.263,10.849c30.908,47.202,48.283,94.514,47.67,129.806
			c-0.335,19.637-16.042,35.411-35.786,35.945h-42.076c9.048-9.215,14.683-21.765,14.921-35.676
			c0.627-36.18-15.118-82.131-44.332-129.389c-22.537-36.458-51.099-69.794-76.823-90.096c8.391-3.54,17.416-5.579,25.619-5.655
			c2.23-0.029,4.366-0.026,6.554-0.029c19.16,0,53.35,27.422,85.076,68.236c1.545,1.987,3.857,3.027,6.193,3.027
			c1.68,0,3.374-0.539,4.804-1.65c3.417-2.656,4.033-7.58,1.377-10.996c-27.914-35.915-68.175-74.291-97.448-74.291
			c-2.239,0-4.459,0-6.729,0.03c-13.237,0.123-27.58,4.11-40.072,11.032c-11.962-7.341-22.647-11.062-31.81-11.062
			c-2.239,0-4.459,0-6.729,0.03c-14.729,0.137-29.226,6.471-39.939,12.681c-13.01-8.429-24.574-12.711-34.418-12.711
			c-2.23,0-4.46,0-6.72,0.03c-21.436,0.198-42.326,9-57.314,24.149c-8.359,8.447-16.863,18.242-25.274,29.112
			c-2.649,3.422-2.022,8.345,1.401,10.993c3.421,2.65,8.345,2.022,10.993-1.401c8.025-10.37,16.106-19.682,24.021-27.679
			c12.103-12.233,28.984-19.34,46.346-19.501c2.22-0.029,4.405-0.031,6.544-0.029c5.246,0,14.66,2.212,29.708,12.753
			c26.383,18.456,57.569,54.151,81.387,93.155c26.9,44.05,41.402,86.307,40.836,118.993c-0.335,19.64-16.048,35.416-35.792,35.945
			h-72.795v-83.058c0-5.754-4.681-10.436-10.436-10.436h-109c-5.754,0-10.436,4.681-10.436,10.436v83.058H58.67
			c-20.797-0.01-37.793-16.723-37.891-37.264c-0.198-39.843,21.891-98.117,57.645-152.082c2.391-3.608,1.404-8.471-2.204-10.862
			c-3.607-2.389-8.47-1.403-10.862,2.205C36.065,172.363,4.853,237.828,5.106,288.964c0.07,14.487,6.047,27.629,15.649,37.188h-8.74
			C5.391,326.152,0,331.539,0,338.159v43.782c0,6.62,5.391,12.007,12.016,12.007h44.442v56.408c0,6.623,5.389,12.011,12.011,12.011
			h60.23c6.623,0,12.011-5.389,12.011-12.011v-56.408h132.704c4.328,0,7.837-3.509,7.837-7.837c0-4.328-3.509-7.837-7.837-7.837
			H15.673v-36.449h42.998c0.007,0,0.014,0,0.02,0h27.491v0.001h129.872v-0.001h70.587c0.411,0.009,0.823,0.015,1.233,0.015
			c0.378,0,0.753-0.006,1.125-0.015h70.795c0.387,0.008,0.773,0.016,1.158,0.016c0.375,0,0.748-0.007,1.118-0.016h8.002h0.098
			h76.169c0.412,0.009,0.823,0.015,1.232,0.015c0.391,0,0.775-0.006,1.156-0.016h47.599v36.449h-184.25
			c-4.328,0-7.837,3.509-7.837,7.837c0,4.328,3.509,7.837,7.837,7.837h59.214v56.408c0,6.623,5.389,12.011,12.011,12.011h60.23
			c6.623,0,12.011-5.389,12.011-12.011v-56.408h44.441c6.626,0,12.016-5.386,12.016-12.007v-43.782
			C512,331.538,506.609,326.152,499.984,326.152z M72.131,393.95h52.905v52.744H72.131V393.95z M200.381,326.152h-98.526v-77.821
			h98.526V326.152z M405.719,290.207c-0.335,19.626-16.025,35.396-35.739,35.945h-44.587c9.048-9.215,14.683-21.765,14.921-35.676
			c0.615-35.62-14.702-80.875-43.131-127.432c-22.397-36.678-50.159-69.588-76.011-90.452c9.439-4.65,18.445-7.187,26.07-7.258
			c2.198-0.029,4.322-0.029,6.463-0.029c4.877,0,13.541,1.868,27.378,11.099l0.792,0.526c26.275,17.806,57.557,53.102,81.851,92.399
			C391.381,214.064,406.294,256.992,405.719,290.207z M439.87,446.694h-52.905V393.95h52.905V446.694z"/>
	</g>
</g>
</svg>