
<svg fill="#000000" height="24px" width="24px" version="1.1" id="Layer_1" xmlns="http://www.w3.org/2000/svg" xmlns:xlink="http://www.w3.org/1999/xlink" 
	 viewBox="0 0 512 512" xml:space="preserve">
<g>
	<g>
		<circle cx="364.936" cy="226.772" r="8.17"/>
	</g>
</g>
<g>
	<g>
		<circle cx="397.617" cy="259.453" r="8.17"/>
	</g>
</g>
<g>
	<g>
		<circle cx="179.745" cy="194.092" r="8.17"/>
	</g>
</g>
<g>
	<g>
		<path d="M503.83,294.128h-25.36c-2.026-9.838-7.622-18.616-15.614-24.592c7.307-10.357,9.571-23.818,5.533-36.247
			c-4.039-12.429-13.783-21.989-25.781-26.072c3.75-12.108,1.743-25.61-5.939-36.183c-7.683-10.572-19.903-16.653-32.575-16.828
			c-0.175-12.672-6.257-24.894-16.83-32.575c-10.573-7.681-24.074-9.69-36.182-5.938c-4.083-11.999-13.643-21.743-26.073-25.782
			c-12.427-4.038-25.891-1.776-36.246,5.533C281.171,85.292,269.068,78.979,256,78.979c-13.068,0-25.171,6.313-32.763,16.462
			c-10.357-7.309-23.818-9.571-36.247-5.533c-2.546,0.827-4.962,1.905-7.244,3.182V8.17c0-4.513-3.657-8.17-8.17-8.17h-32.681
			c-4.513,0-8.17,3.657-8.17,8.17V90.06c0,4.513,3.657,8.17,8.17,8.17c4.513,0,8.17-3.657,8.17-8.17V16.34h16.34v93.586
			c-0.967,1.851-1.808,3.772-2.486,5.763c-12.108-3.747-25.61-1.741-36.183,5.939c-4.19,3.045-7.661,6.81-10.352,11.025V8.17
			c0-4.513-3.657-8.17-8.17-8.17H73.533c-4.514,0-8.171,3.657-8.171,8.17v131.609c0,4.513,3.657,8.17,8.17,8.17
			s8.17-3.657,8.17-8.17V16.34h16.34v139.223c-8.941,2.352-17.058,7.69-22.712,15.471c-7.682,10.573-9.69,24.074-5.939,36.182
			c-11.998,4.083-21.741,13.643-25.781,26.073c-4.038,12.429-1.775,25.891,5.533,36.246c-7.99,5.976-13.587,14.754-15.613,24.592
			H8.17c-4.513,0-8.17,3.657-8.17,8.17c0,83.553,58.19,153.763,136.17,172.255v12.936c0,13.515,10.996,24.511,24.511,24.511h190.638
			c13.515,0,24.511-10.996,24.511-24.511v-12.936C453.81,456.061,512,385.851,512,302.298
			C512,297.785,508.343,294.128,503.83,294.128z M65.081,279.282c2.779-1.022,4.789-3.467,5.251-6.391
			c0.464-2.925-0.692-5.871-3.02-7.701c-8.045-6.324-11.324-17.115-8.16-26.851c3.164-9.737,12.159-16.54,22.385-16.928
			c2.959-0.112,5.625-1.816,6.97-4.454c1.344-2.638,1.157-5.798-0.492-8.257c-5.696-8.501-5.481-19.777,0.536-28.061
			c6.018-8.284,16.679-11.973,26.521-9.181c2.851,0.809,5.912,0.01,8.007-2.083c2.094-2.095,2.89-5.157,2.083-8.007
			c-2.792-9.843,0.899-20.502,9.181-26.521c8.284-6.018,19.557-6.232,28.061-0.536c2.459,1.649,5.618,1.839,8.257,0.492
			c2.638-1.344,4.342-4.012,4.454-6.97c0.388-10.226,7.191-19.222,16.927-22.385c9.737-3.162,20.529,0.115,26.852,8.16
			c1.83,2.329,4.783,3.488,7.701,3.02c2.925-0.463,5.371-2.473,6.391-5.251c3.528-9.606,12.779-16.059,23.016-16.059
			c10.237,0,19.488,6.453,23.016,16.059c1.022,2.779,3.467,4.789,6.391,5.251c2.922,0.466,5.872-0.693,7.701-3.02
			c6.323-8.045,17.115-11.325,26.851-8.16c9.737,3.163,16.54,12.159,16.928,22.385c0.112,2.959,1.816,5.625,4.454,6.97
			c2.638,1.344,5.8,1.157,8.257-0.492c8.502-5.696,19.776-5.479,28.061,0.536c8.282,6.018,11.972,16.677,9.181,26.521
			c-0.807,2.849-0.011,5.912,2.083,8.007c2.094,2.093,5.154,2.891,8.007,2.083c9.845-2.792,20.502,0.899,26.521,9.181
			c6.017,8.284,6.233,19.56,0.536,28.061c-1.649,2.46-1.838,5.619-0.492,8.257s4.012,4.342,6.97,4.454
			c10.226,0.388,19.222,7.191,22.385,16.927c3.162,9.737-0.115,20.529-8.16,26.852c-2.329,1.831-3.484,4.777-3.02,7.701
			c0.463,2.925,2.473,5.371,5.251,6.391c6.946,2.551,12.228,8.102,14.629,14.846H50.452
			C52.853,287.383,58.135,281.833,65.081,279.282z M334.979,462.979H209.702c-4.513,0-8.17,3.657-8.17,8.17s3.657,8.17,8.17,8.17
			h125.277c8.316,0,16.496-0.59,24.511-1.705v9.875c0,4.506-3.665,8.17-8.17,8.17H160.681c-4.506,0-8.17-3.665-8.17-8.17v-9.875
			c8.014,1.115,16.194,1.705,24.511,1.705c4.513,0,8.17-3.657,8.17-8.17s-3.657-8.17-8.17-8.17
			c-85.858,0-156.205-67.695-160.476-152.511h478.908C491.183,395.284,420.837,462.979,334.979,462.979z"/>
	</g>
</g>
</svg>