<svg fill="#000000" version="1.1" id="Layer_1" xmlns="http://www.w3.org/2000/svg" xmlns:xlink="http://www.w3.org/1999/xlink" 
	 viewBox="0 0 447 447" xml:space="preserve">
<g>
	<g>
		<g>
			<path d="M381.539,65.462C339.325,23.248,283.199,0,223.5,0C163.801,0,107.675,23.248,65.461,65.462
				C23.248,107.675,0,163.801,0,223.5c0,59.699,23.248,115.825,65.461,158.038C107.675,423.752,163.801,447,223.5,447
				c59.699,0,115.825-23.248,158.039-65.462C423.752,339.325,447,283.199,447,223.5C447,163.801,423.752,107.675,381.539,65.462z
				 M223.5,432C108.533,432,15,338.468,15,223.5S108.533,15,223.5,15S432,108.532,432,223.5S338.467,432,223.5,432z"/>
			<path d="M290.197,148.804c1.464,1.464,3.384,2.196,5.303,2.196s3.839-0.732,5.303-2.196c2.929-2.93,2.929-7.678,0-10.607l-24-24
				c-2.929-2.928-7.678-2.928-10.606,0c-2.929,2.93-2.929,7.678,0,10.607L290.197,148.804z"/>
			<path d="M308.803,194.196l-88-87.999c-2.929-2.928-7.678-2.928-10.606,0c-2.929,2.93-2.929,7.678,0,10.607l88,87.999
				c1.464,1.464,3.384,2.196,5.303,2.196s3.839-0.732,5.303-2.196C311.732,201.873,311.732,197.125,308.803,194.196z"/>
			<path d="M192.803,126.197c-2.929-2.928-7.678-2.928-10.606,0c-2.929,2.93-2.929,7.678,0,10.607l100,100
				c1.464,1.464,3.384,2.196,5.303,2.196s3.839-0.732,5.303-2.196c2.929-2.93,2.929-7.678,0-10.607L192.803,126.197z"/>
			<path d="M172.803,154.196c-2.929-2.928-7.678-2.928-10.606,0c-2.929,2.93-2.929,7.678,0,10.607l100,100
				c1.464,1.464,3.384,2.196,5.303,2.196s3.839-0.732,5.303-2.196c2.929-2.93,2.929-7.678,0-10.607L172.803,154.196z"/>
			<path d="M164.803,194.196c-2.929-2.928-7.678-2.928-10.606,0c-2.929,2.93-2.929,7.678,0,10.607l96,96
				c1.464,1.464,3.384,2.196,5.303,2.196s3.839-0.732,5.303-2.196c2.929-2.93,2.929-7.678,0-10.607L164.803,194.196z"/>
			<path d="M164.803,242.196c-2.929-2.928-7.678-2.928-10.606,0c-2.929,2.93-2.929,7.678,0,10.607l76,76
				c1.464,1.464,3.384,2.196,5.303,2.196s3.839-0.732,5.303-2.196c2.929-2.93,2.929-7.678,0-10.607L164.803,242.196z"/>
			<path d="M164.803,290.196c-2.929-2.928-7.678-2.928-10.606,0c-2.929,2.93-2.929,7.678,0,10.607l40,40
				c1.464,1.464,3.384,2.196,5.303,2.196s3.839-0.732,5.303-2.196c2.929-2.93,2.929-7.678,0-10.607L164.803,290.196z"/>
			<path d="M339.5,224c-1.434,0-2.842,0.111-4.217,0.324c6.824-17.256,9.221-36.119,6.802-55.275
				c-6.336-50.173-47.433-90.684-97.72-96.326c-31.762-3.562-63.531,6.508-87.157,27.631
				c-17.311,15.478-29.208,35.868-34.345,58.119c-8.221-1.375-16.798-0.938-25.166,1.331c-18.414,4.993-32.809,17.921-38.506,34.583
				c-0.991,2.897-0.121,6.106,2.198,8.106c6.144,5.299,13.483,8.97,21.409,10.912c-0.575,0.533-1.154,1.061-1.712,1.619
				c-13.491,13.491-19.548,31.866-16.202,49.154c0.582,3.006,2.933,5.357,5.938,5.938c3.135,0.606,6.306,0.904,9.477,0.904
				c14.315,0,28.634-6.063,39.677-17.106c0.008-0.008,0.015-0.016,0.022-0.024v33.61c0,22.906,8.792,44.564,24.755,60.986
				c15.93,16.387,37.265,25.788,60.074,26.474c0.837,0.024,1.672,0.037,2.509,0.037c19.186,0,38.146-6.597,53.644-18.713
				c14.611-11.425,25.27-27.081,30.456-44.519C296.89,316.282,303.883,319,311.5,319c17.369,0,31.5-14.131,31.5-31.5
				c0-2.983-0.426-5.867-1.204-8.603C355.888,277.726,367,265.889,367,251.5C367,236.337,354.664,224,339.5,224z M120.001,226.315
				c-2.104,6.253-5.751,12.112-10.63,16.992c-8.4,8.399-19.627,12.986-30.35,12.673c-0.33-10.717,4.272-21.949,12.673-30.351
				c7.946-7.946,18.174-12.443,28.307-12.679V226.315z M120,183.5v9.805c-3.619,2.234-7.583,3.95-11.834,5.104
				c-11.468,3.106-23.5,1.515-32.633-4.103c5.043-9.461,14.623-16.917,26.09-20.027c6.305-1.708,12.732-2.021,18.856-0.983
				C120.167,176.675,120,180.079,120,183.5z M294.67,260.895c-8.808,5.59-14.67,15.423-14.67,26.605c0,2.094,0.21,4.139,0.602,6.12
				c-0.814,2.87-1.562,5.788-2.194,8.705l-0.161,0.719c-7.621,33.472-38.988,57.992-72.968,56.922
				c-18.894-0.567-36.568-8.357-49.769-21.936C142.284,324.425,135,306.479,135,287.5v-59.83c0.002-0.099,0.002-0.197,0-0.296
				v-29.657c0.018-0.295,0.017-0.591,0-0.887V183.5c0-27.435,11.739-53.664,32.207-71.964c20.748-18.55,47.558-27.04,75.486-23.907
				c43.49,4.88,79.032,39.912,84.511,83.299c3.386,26.81-4.09,52.944-21.048,73.591c-4.145,5.044-7.952,10.446-11.317,16.058
				C294.776,260.681,294.726,260.789,294.67,260.895z M311.5,304c-9.098,0-16.5-7.402-16.5-16.5c0-9.098,7.402-16.5,16.5-16.5
				c9.098,0,16.5,7.402,16.5,16.5C328,296.598,320.598,304,311.5,304z M339.5,264c-6.893,0-12.5-5.607-12.5-12.5
				s5.607-12.5,12.5-12.5s12.5,5.607,12.5,12.5S346.393,264,339.5,264z"/>
			<path d="M310.208,332.146c-1.852-3.704-6.356-5.205-10.062-3.354c-3.705,1.853-5.207,6.357-3.354,10.063l8,16
				c1.314,2.628,3.962,4.147,6.714,4.147c1.127,0,2.271-0.256,3.348-0.794c3.705-1.853,5.207-6.357,3.354-10.063L310.208,332.146z"
				/>
			<path d="M287.5,352c-4.142,0-7.5,3.357-7.5,7.5s3.358,7.5,7.5,7.5h0.08c4.142,0,7.46-3.357,7.46-7.5S291.642,352,287.5,352z"/>
			<path d="M111.42,320c-4.142,0-7.5,3.357-7.5,7.5s3.358,7.5,7.5,7.5h0.08c4.142,0,7.46-3.357,7.46-7.5S115.562,320,111.42,320z"/>
			<path d="M372.803,202.196c-2.929-2.928-7.678-2.928-10.606,0c-2.929,2.93-2.929,7.678,0,10.607l8,8
				c1.464,1.464,3.384,2.196,5.303,2.196s3.839-0.732,5.303-2.196c2.929-2.93,2.929-7.678,0-10.607L372.803,202.196z"/>
			<path d="M383.42,176c-4.142,0-7.5,3.357-7.5,7.5s3.358,7.5,7.5,7.5h0.08c4.142,0,7.46-3.357,7.46-7.5S387.562,176,383.42,176z"/>
			<path d="M359.5,183c4.142,0,7.5-3.357,7.5-7.5v-8c0-4.143-3.358-7.5-7.5-7.5c-4.142,0-7.5,3.357-7.5,7.5v8
				C352,179.643,355.358,183,359.5,183z"/>
			<path d="M106.854,280.792c-3.703-1.854-8.209-0.351-10.062,3.354l-8,16c-1.853,3.705-0.351,8.21,3.354,10.063
				c1.077,0.539,2.221,0.794,3.348,0.794c2.751,0,5.4-1.52,6.714-4.147l8-16C112.061,287.149,110.559,282.645,106.854,280.792z"/>
			<path d="M104.792,122.854c1.314,2.628,3.962,4.147,6.714,4.147c1.127,0,2.271-0.256,3.348-0.794
				c3.705-1.853,5.207-6.357,3.354-10.063l-8-16c-1.852-3.705-6.357-5.205-10.062-3.354c-3.705,1.853-5.207,6.357-3.354,10.063
				L104.792,122.854z"/>
			<path d="M95.5,151h8c4.142,0,7.5-3.357,7.5-7.5s-3.358-7.5-7.5-7.5h-8c-4.142,0-7.5,3.357-7.5,7.5S91.358,151,95.5,151z"/>
		</g>
	</g>
</g>
</svg>