
<svg fill="#000000" height="24px" width="24px" version="1.1" id="Capa_1" xmlns="http://www.w3.org/2000/svg" xmlns:xlink="http://www.w3.org/1999/xlink" 
	 viewBox="0 0 59.737 59.737" xml:space="preserve">
<g>
	<path d="M35.869,37.869c0.552,0,1-0.447,1-1c0-3.859-3.14-7-7-7c-0.552,0-1,0.447-1,1s0.448,1,1,1c2.757,0,5,2.243,5,5
		C34.869,37.421,35.316,37.869,35.869,37.869z"/>
	<path d="M38.869,37.869c0.552,0,1-0.447,1-1c0-5.514-4.486-10-10-10c-2.206,0-4,1.794-4,4c0,0.553,0.448,1,1,1s1-0.447,1-1
		c0-1.103,0.897-2,2-2c4.411,0,8,3.589,8,8C37.869,37.421,38.316,37.869,38.869,37.869z"/>
	<path d="M29.869,32.869c-0.552,0-1,0.447-1,1s0.448,1,1,1c1.103,0,2,0.897,2,2c0,0.553,0.448,1,1,1s1-0.447,1-1
		C33.869,34.663,32.074,32.869,29.869,32.869z"/>
	<path d="M41.869,37.869c0.552,0,1-0.447,1-1c0-7.168-5.832-13-13-13h-2c-2.757,0-5,2.243-5,5c0,0.553,0.448,1,1,1s1-0.447,1-1
		c0-1.654,1.346-3,3-3h2c6.065,0,11,4.935,11,11C40.869,37.421,41.316,37.869,41.869,37.869z"/>
	<path d="M15.869,14.869c0.552,0,1-0.447,1-1h5c1.627,0,3.061-0.793,3.974-2h28.026c1.654,0,3-1.346,3-3s-1.346-3-3-3H25.843
		c-0.914-1.207-2.348-2-3.974-2h-5c0-0.553-0.448-1-1-1s-1,0.447-1,1v10C14.869,14.421,15.316,14.869,15.869,14.869z M53.869,7.869
		c0.551,0,1,0.448,1,1s-0.449,1-1,1H26.768c0.066-0.323,0.101-0.658,0.101-1s-0.035-0.677-0.101-1H53.869z M21.869,5.869
		c1.004,0,1.89,0.5,2.434,1.26l0.143,0.245c0.134,0.229,0.233,0.465,0.303,0.704c0.005,0.017,0.012,0.034,0.016,0.052
		c0.067,0.243,0.103,0.49,0.103,0.739s-0.036,0.496-0.103,0.739c-0.005,0.018-0.011,0.034-0.016,0.052
		c-0.07,0.239-0.169,0.475-0.303,0.704l-0.143,0.245c-0.545,0.76-1.43,1.26-2.434,1.26h-5V9.871c0.726,0.001,1.948,0.002,4,0.002
		c0.552,0,1-0.447,1-1s-0.448-1-1-1c-2.056,0-3.277-0.001-4-0.002V5.869H21.869z"/>
	<path d="M12.869,14.869c0.552,0,1-0.447,1-1v-10c0-0.553-0.448-1-1-1s-1,0.447-1,1v10C11.869,14.421,12.316,14.869,12.869,14.869z"
		/>
	<path d="M12.869,27.869c0.552,0,1-0.447,1-1v-10c0-0.553-0.448-1-1-1s-1,0.447-1,1v10C11.869,27.421,12.316,27.869,12.869,27.869z"
		/>
	<path d="M9.869,16.869c-0.552,0-1,0.447-1,1v10c0,0.553,0.448,1,1,1s1-0.447,1-1v-10C10.869,17.316,10.421,16.869,9.869,16.869z"/>
	<path d="M4.869,10.869c-0.552,0-1,0.447-1,1s0.448,1,1,1h4v2.289c0,0.553,0.448,1,1,1s1-0.447,1-1V3.869c0-0.553-0.448-1-1-1
		s-1,0.447-1,1v1h-4c-0.552,0-1,0.447-1,1s0.448,1,1,1h4v1h-4c-0.552,0-1,0.447-1,1s0.448,1,1,1h4v1H4.869z"/>
	<path d="M50.818,48.869c-0.508-5.598-5.221-10-10.949-10h-7c-0.552,0-1,0.447-1,1s0.448,1,1,1h7c4.624,0,8.442,3.507,8.941,8h-1.01
		c-0.495-3.94-3.859-7-7.931-7h-6c-0.552,0-1,0.447-1,1s0.448,1,1,1h6c2.967,0,5.431,2.167,5.91,5h-1.011
		c-0.465-2.279-2.484-4-4.899-4h-5c-0.552,0-1,0.447-1,1s0.448,1,1,1h5c1.302,0,2.402,0.839,2.816,2h-1.816c0-0.553-0.448-1-1-1h-5
		c-0.552,0-1,0.447-1,1h-1.017c-0.351-14.717-8.418-20-15.983-20h-1c-5.514,0-10,4.486-10,10v5c0,0.553,0.448,1,1,1s1-0.447,1-1v-5
		c0-4.411,3.589-8,8-8h1c9.949,0,13.725,9.116,13.985,18h-0.999c-0.28-10.669-5.09-17-12.987-17c-3.86,0-7,3.141-7,7v1
		c0,0.553,0.448,1,1,1s1-0.447,1-1v-1c0-2.757,2.243-5,5-5c9.292,0,10.826,9.8,10.984,15h-0.998c-0.287-11.536-5.55-14-9.986-14
		c-1.654,0-3,1.346-3,3c0,0.553,0.448,1,1,1s1-0.447,1-1c0-0.552,0.449-1,1-1c5.171,0,7.782,3.936,7.981,12h-0.981
		c0-0.553-0.448-1-1-1h-5c-0.552,0-1,0.447-1,1h-1.816c0.414-1.161,1.514-2,2.816-2h5c0.552,0,1-0.447,1-1s-0.448-1-1-1h-5
		c-2.414,0-4.434,1.721-4.899,4h-1.011c0.478-2.833,2.942-5,5.91-5h4c0.552,0,1-0.447,1-1s-0.448-1-1-1h-4
		c-4.072,0-7.436,3.06-7.931,7h-1.01c0.5-4.493,4.317-8,8.941-8h2c0.552,0,1-0.447,1-1s-0.448-1-1-1h-2
		c-5.728,0-10.442,4.402-10.949,10H0l3.045,4.567c1.433,2.149,3.831,3.433,6.415,3.433h40.818c2.583,0,4.981-1.283,6.415-3.433
		l3.045-4.567H50.818z M55.028,52.327c-1.061,1.592-2.837,2.542-4.75,2.542H9.459c-1.914,0-3.689-0.95-4.75-2.542l-0.972-1.458
		h24.131h5H56L55.028,52.327z"/>
</g>
</svg>