
<svg fill="#000000" height="24px" width="24px" version="1.1" id="Layer_1" xmlns="http://www.w3.org/2000/svg" xmlns:xlink="http://www.w3.org/1999/xlink" 
	 viewBox="0 0 512 512" xml:space="preserve">
<g>
	<g>
		<path d="M487.489,361.123h-10.404c1.474-8.065,2.234-16.27,2.234-24.511c0-75.383-61.33-136.712-136.715-136.712h-75.311
			c-72.649,0-132.237,56.965-136.465,128.575l-21.399,0.066L93.12,312.325c-6.688-6.688-15.578-10.371-25.035-10.371
			c-9.458,0-18.348,3.683-25.035,10.371c-6.686,6.686-10.37,15.577-10.37,25.034c0,8.87,3.239,17.24,9.159,23.763h-17.33
			C10.996,361.123,0,372.118,0,385.634c0,13.516,10.996,24.511,24.511,24.511h10.451l5.959,17.878
			c6.839,20.518,29.139,36.591,50.768,36.591h328.623c21.628,0,43.927-16.072,50.768-36.591l5.959-17.878h10.451
			c13.515,0,24.511-10.995,24.511-24.511C512,372.118,501.004,361.123,487.489,361.123z M462.979,336.613
			c0,8.258-0.863,16.475-2.541,24.511h-16.74c1.939-7.989,2.941-16.191,2.941-24.511c0-57.365-46.669-104.034-104.034-104.034
			c-21.589,0-42.313,6.584-59.931,19.04c-3.684,2.605-4.56,7.704-1.954,11.388c2.605,3.684,7.701,4.561,11.388,1.954
			c14.844-10.495,32.305-16.042,50.496-16.042c48.355,0,87.694,39.339,87.694,87.694c0,8.361-1.191,16.578-3.506,24.511H258.416
			c-2.315-7.933-3.506-16.15-3.506-24.511c0-18.192,5.547-35.654,16.042-50.497c2.606-3.684,1.73-8.782-1.954-11.388
			c-3.688-2.606-8.782-1.73-11.388,1.954c-12.456,17.617-19.04,38.341-19.04,59.931c0,8.319,1.002,16.521,2.941,24.511h-16.74
			c-1.679-8.035-2.541-16.252-2.541-24.511c0-66.373,54-120.371,120.374-120.371S462.979,270.24,462.979,336.613z M146.919,336.621
			c0-66.378,54.001-120.38,120.374-120.38h10.546c-42.803,23.121-71.95,68.404-71.95,120.371c0,8.241,0.761,16.446,2.234,24.511
			h-61.205V336.621z M54.605,323.879c3.6-3.6,8.387-5.584,13.48-5.584s9.879,1.983,13.497,5.6l18.725,18.622
			c1.536,1.529,3.617,2.415,5.787,2.377l24.486-0.076v16.306H64.894l-10.29-10.284c-3.6-3.6-5.583-8.388-5.583-13.481
			C49.021,332.267,51.004,327.48,54.605,323.879z M487.489,393.804h-16.17c-0.026,0-365.106,0-365.106,0
			c-4.513,0-8.17,3.658-8.17,8.17s3.657,8.17,8.17,8.17h353.6l-4.237,12.711c-4.593,13.777-20.741,25.417-35.265,25.417H91.688
			c-14.523,0-30.672-11.64-35.265-25.417l-4.237-12.711h21.345c4.513,0,8.17-3.658,8.17-8.17s-3.657-8.17-8.17-8.17H40.709
			c-0.029,0-16.199,0-16.199,0c-4.506,0-8.17-3.665-8.17-8.17c0-4.506,3.665-8.17,8.17-8.17h462.979c4.506,0,8.17,3.665,8.17,8.17
			C495.66,390.14,491.995,393.804,487.489,393.804z"/>
	</g>
</g>
<g>
	<g>
		<path d="M342.604,295.762c-22.526,0-40.851,18.325-40.851,40.851c0,4.512,3.657,8.17,8.17,8.17s8.17-3.658,8.17-8.17
			c0-13.516,10.996-24.511,24.511-24.511c13.515,0,24.511,10.995,24.511,24.511c0,4.512,3.657,8.17,8.17,8.17s8.17-3.658,8.17-8.17
			C383.455,314.087,365.13,295.762,342.604,295.762z"/>
	</g>
</g>
<g>
	<g>
		<path d="M228.767,145.431c0-12.895,3.324-18.99,7.172-26.046c4.296-7.878,9.168-16.808,9.168-33.869
			c0-17.028-4.852-25.954-9.144-33.82c-1.378-2.564-4.085-4.308-7.2-4.308c-4.512,0-8.17,3.658-8.17,8.17
			c0,1.424,0.366,2.762,1.007,3.927c3.847,7.051,7.167,13.144,7.167,26.031c0,12.895-3.324,18.99-7.172,26.046
			c-4.296,7.878-9.168,16.808-9.168,33.869s4.871,25.99,9.167,33.868c1.483,2.719,4.287,4.259,7.18,4.259
			c1.321,0,2.662-0.321,3.904-0.999c3.962-2.16,5.422-7.123,3.26-11.084C232.091,164.418,228.767,158.326,228.767,145.431z"/>
	</g>
</g>
<g>
	<g>
		<path d="M283.235,145.431c0-12.895,3.324-18.99,7.172-26.046c4.296-7.878,9.168-16.808,9.168-33.869
			c0-17.028-4.852-25.954-9.144-33.82c-1.378-2.564-4.085-4.308-7.2-4.308c-4.512,0-8.17,3.658-8.17,8.17
			c0,1.424,0.366,2.762,1.007,3.927c3.847,7.051,7.167,13.144,7.167,26.031c0,12.895-3.324,18.99-7.172,26.046
			c-4.296,7.878-9.168,16.808-9.168,33.869s4.871,25.99,9.167,33.868c1.483,2.719,4.287,4.259,7.18,4.259
			c1.321,0,2.662-0.321,3.904-0.999c3.962-2.16,5.422-7.123,3.26-11.084C286.559,164.418,283.235,158.326,283.235,145.431z"/>
	</g>
</g>
</svg>