
<svg fill="#000000" version="1.1" id="Layer_1" xmlns="http://www.w3.org/2000/svg" xmlns:xlink="http://www.w3.org/1999/xlink" 
	 viewBox="0 0 512 512" xml:space="preserve">
<g>
	<g>
		<path d="M503.83,446.276h-99.532c3.387-31.098,7.768-52.071,11.674-70.756c0.483-2.305,0.96-4.555,1.429-6.769
			c5.036-23.75,9.434-44.52,10.058-88.495c0-0.036,0.005-0.071,0.005-0.107c0-0.02-0.003-0.038-0.003-0.058
			c0.048-3.47,0.076-7.066,0.076-10.836c0-22.526-18.325-40.851-40.851-40.851h-76.254c-22.526,0-40.851,18.325-40.851,40.851
			c0,51.691,4.698,73.845,10.138,99.496c0.469,2.215,0.946,4.464,1.428,6.768c3.906,18.686,8.288,39.659,11.675,70.757h-50.4
			V227.859c0-29.575-16.506-56.505-42.485-70.044V24.873c0-4.513-3.657-8.17-8.17-8.17h-56.647c-4.513,0-8.17,3.657-8.17,8.17
			v132.941c-25.979,13.539-42.485,40.468-42.485,70.044v193.906c0,4.513,3.657,8.17,8.17,8.17c4.513,0,8.17-3.657,8.17-8.17V371.11
			h125.277v75.166H8.17c-4.513,0-8.17,3.657-8.17,8.17s3.657,8.17,8.17,8.17h25.333c3.795,18.624,20.3,32.681,40.029,32.681h364.936
			c19.728,0,36.233-14.057,40.029-32.681h25.333c4.513,0,8.17-3.657,8.17-8.17S508.343,446.276,503.83,446.276z M143.288,33.044
			h40.306v16.34h-40.306V33.044z M138.39,170.445c2.974-1.3,4.898-4.24,4.898-7.486V65.724h40.306v97.234
			c0,3.246,1.924,6.186,4.898,7.486c20.305,8.874,34.209,27.68,37.043,49.243H101.348
			C104.181,198.124,118.086,179.318,138.39,170.445z M226.08,354.769H100.803v-118.74H226.08V354.769z M285.923,269.254
			c0-13.515,10.996-24.511,24.511-24.511h76.254c13.515,0,24.511,10.996,24.511,24.511c0,0.925-0.004,1.819-0.008,2.723H310.506
			c-4.513,0-8.17,3.657-8.17,8.17s3.657,8.17,8.17,8.17h100.451c-0.975,36.615-4.83,54.825-9.541,77.043
			c-0.473,2.229-0.952,4.492-1.438,6.815c-4.058,19.417-8.621,41.254-12.115,74.099h-78.605
			c-3.496-32.845-8.059-54.683-12.118-74.101c-0.485-2.321-0.965-4.585-1.437-6.814
			C290.239,339.589,285.923,319.232,285.923,269.254z M438.468,478.956H73.532c-10.651,0-19.733-6.831-23.105-16.34h411.147
			C458.201,472.125,449.119,478.956,438.468,478.956z"/>
	</g>
</g>
</svg>