
<svg fill="#000000" width="24px" height="24px" viewBox="0 0 64 64" data-name="Layer 1" id="Layer_1" xmlns="http://www.w3.org/2000/svg"><path d="M44,61a1,1,0,0,0,1-1V6a3,3,0,0,0-6,0V60a1,1,0,0,0,1,1Zm-3-2V41h2V59ZM42,5a1.0006,1.0006,0,0,1,1,1V39H41V6A1.0006,1.0006,0,0,1,42,5Z"/><path d="M52,61a1,1,0,0,0,1-1V6a3,3,0,0,0-6,0V60a1,1,0,0,0,1,1Zm-3-2V41h2V59ZM50,5a1.0006,1.0006,0,0,1,1,1V39H49V6A1.0006,1.0006,0,0,1,50,5Z"/><path d="M37,40.71a13.41,13.41,0,0,0-.8138-4.6487,13.6927,13.6927,0,0,0-9.7784-8.6961c-1.8942-.5965-5.9805-.2924-7.9976-.3653l-3.12,0A4.2953,4.2953,0,0,0,11,31.29c.0056,1.94-.0041,6.0946,0,8,.0008,3.753-.0006,8.9971,0,12.75.1013,1.4-.3368,5.4224.4932,6.6631A4.2741,4.2741,0,0,0,15.29,61H32.71c5.1662-.236,4.8283-5.9913,3.2346-9.5141,1.8754-2.2219.9292-5.5762,0-8A4.2321,4.2321,0,0,0,37,40.71Zm-3.524,3.7932a16.6144,16.6144,0,0,0-1.5872,1.5327,13.49,13.49,0,0,0-3.4645-2.0336,13.1261,13.1261,0,0,1,3.4766-3.2181,12.0306,12.0306,0,0,1,2.1323,3.2617C33.8474,44.195,33.6621,44.35,33.476,44.5032ZM23.3126,45.6619A12.598,12.598,0,0,0,20.9551,49.49a10.6776,10.6776,0,0,1-2.6123,3.9228C16.1441,55.6016,15.0481,55.6408,13,56.6885V52.6191A15.3789,15.3789,0,0,0,19.0217,45c1.3214.02,3.5584-.0452,4.8808.0352C23.7058,45.244,23.5006,45.4567,23.3126,45.6619ZM13,39.29A2.2926,2.2926,0,0,1,15.29,37h1.5264A12.2055,12.2055,0,0,1,13,42.1639ZM20.7959,37c.4691.0057,2.6833-.0222,3.1057.0351C22.1182,38.6662,21.2444,40.8765,20.23,43c-1.2292.0042-3.8991-.0084-5.1507.0049A15.0542,15.0542,0,0,0,19.0217,37Zm8.7148,3.0371A15.3912,15.3912,0,0,0,26.42,43.3662l-.0037-.0007-.0012,0h0A15.3656,15.3656,0,0,0,22.4717,43a12.577,12.577,0,0,1,3.9394-5.55,11.9239,11.9239,0,0,1,3.9516,1.9441C30.0792,39.6057,29.7923,39.8052,29.5107,40.0371ZM13.476,49.7612c-.1568.1374-.3171.2745-.476.4027V47.29A2.2926,2.2926,0,0,1,15.29,45h1.5264A11.8018,11.8018,0,0,1,13.476,49.7612Zm21.23-8.6226a15.3276,15.3276,0,0,0-1.35-1.7406,14.1268,14.1268,0,0,1,1.35-1.3122,8.0007,8.0007,0,0,1,.1842,3.3164C34.8329,41.3119,34.7653,41.2278,34.706,41.1386Zm-.9641-4.8536a16.2976,16.2976,0,0,0-1.8531,1.7509,13.49,13.49,0,0,0-3.4645-2.0336A13.12,13.12,0,0,1,31.91,32.7785a11.699,11.699,0,0,1,2.123,3.2674C33.9362,36.12,33.8389,36.2068,33.7419,36.285Zm-3.5362-4.7729A15.4177,15.4177,0,0,0,26.42,35.3662l-.0037-.0007-.0012,0h0A15.3656,15.3656,0,0,0,22.4717,35a12.5868,12.5868,0,0,1,3.96-5.5674,11.5164,11.5164,0,0,1,3.9452,1.95C30.3192,31.4216,30.2631,31.472,30.2057,31.5121Zm-11.651-1.49c.15-.3473.2953-.6868.467-1.0225.4418.0065,4.5658-.0167,4.8972.0166C22.1277,30.6523,21.2465,32.8677,20.23,35c-1.2292.0042-3.8991-.0084-5.1507.0049A13.2722,13.2722,0,0,0,18.5547,30.0225ZM15.29,29h1.5264A12.2055,12.2055,0,0,1,13,34.1639V31.29A2.2926,2.2926,0,0,1,15.29,29ZM13.8639,58.5017c2.1988-1.1344,3.3985-1.196,5.8929-3.6746a12.5027,12.5027,0,0,0,3.0362-4.5478,11.9279,11.9279,0,0,1,3.6181-4.83,11.9239,11.9239,0,0,1,3.9516,1.9441,14.6622,14.6622,0,0,0-5.1614,6.338A12.2674,12.2674,0,0,1,21.0163,59H15.29A2.2806,2.2806,0,0,1,13.8639,58.5017ZM29.4355,57.98c-.15.3464-.295.6859-.4668,1.02H24.0742a12.932,12.932,0,0,0,2.9648-4.4815,12.5281,12.5281,0,0,1,4.8619-5.7343,12.0306,12.0306,0,0,1,2.1323,3.2617A14.4668,14.4668,0,0,0,29.4355,57.98ZM32.71,59H31.1738a11.8753,11.8753,0,0,1,3.5319-4.9142C35.1818,55.9848,35.39,58.91,32.71,59Zm1.996-9.8614a15.3276,15.3276,0,0,0-1.35-1.7406,14.1268,14.1268,0,0,1,1.35-1.3122,8.0007,8.0007,0,0,1,.1842,3.3164C34.8329,49.3119,34.7653,49.2278,34.706,49.1386Z"/></svg>