
<svg fill="#000000" height="24px" width="24px" version="1.1" id="Layer_1" xmlns="http://www.w3.org/2000/svg" xmlns:xlink="http://www.w3.org/1999/xlink" 
	 viewBox="0 0 512.001 512.001" xml:space="preserve">
<g>
	<g>
		<path d="M503.83,307.741H8.17c-4.512,0-8.17,3.657-8.17,8.17v87.149c0,4.513,3.658,8.17,8.17,8.17h8.17v57.192
			c0,4.513,3.658,8.17,8.17,8.17h65.362c4.512,0,8.17-3.657,8.17-8.17v-32.681c0-4.513-3.658-8.17-8.17-8.17
			c-4.512,0-8.17,3.657-8.17,8.17v24.511H32.681V411.23h446.638v49.021h-49.021v-24.511c0-4.513-3.657-8.17-8.17-8.17
			c-4.513,0-8.17,3.657-8.17,8.17v32.681c0,4.513,3.657,8.17,8.17,8.17h65.362c4.513,0,8.17-3.657,8.17-8.17V411.23h8.17
			c4.513,0,8.17-3.657,8.17-8.17v-87.149C512,311.398,508.343,307.741,503.83,307.741z M495.66,394.889H16.34v-38.118
			c118.177,0.239,179.555,5.632,238.944,10.852c59.741,5.252,121.48,10.678,240.375,10.917V394.889z M495.66,362.2
			c-118.177-0.239-179.554-5.632-238.944-10.852c-59.741-5.252-121.48-10.678-240.375-10.917v-16.349H495.66V362.2z"/>
	</g>
</g>
<g>
	<g>
		<path d="M167.054,156.106c-0.017-0.074-0.042-0.145-0.062-0.218c-5.62-19.24-23.408-33.341-44.439-33.341
			c-5.324,0-10.557,0.904-15.553,2.688c-4.25,1.516-6.466,6.191-4.949,10.44c1.516,4.25,6.193,6.469,10.44,4.949
			c3.229-1.153,6.615-1.736,10.061-1.736c10.048,0,18.951,4.978,24.389,12.593c-20.502,5.081-36.672,21.251-41.752,41.753
			c-7.615-5.436-12.593-14.338-12.593-24.386c0-3.447,0.584-6.831,1.736-10.061c1.516-4.25-0.701-8.924-4.95-10.44
			c-4.25-1.518-8.924,0.7-10.44,4.949c-1.782,4.997-2.686,10.229-2.686,15.553c0,21.013,14.076,38.789,33.29,44.424
			c0.092,0.025,0.18,0.056,0.271,0.077c4.049,1.16,8.318,1.795,12.736,1.795c25.529,0,46.298-20.769,46.298-46.298
			C168.85,164.428,168.215,160.156,167.054,156.106z M122.553,198.805c-0.626,0-1.246-0.026-1.864-0.064
			c3.273-15.919,15.839-28.485,31.757-31.757c0.038,0.617,0.064,1.237,0.064,1.864C152.511,185.365,139.072,198.805,122.553,198.805
			z"/>
	</g>
</g>
<g>
	<g>
		<path d="M138.894,46.294h-32.681C47.646,46.294,0,93.94,0,152.507v32.681C0,243.753,47.646,291.4,106.213,291.4h32.681
			c58.566,0,106.213-47.646,106.213-106.213v-32.681C245.106,93.94,197.46,46.294,138.894,46.294z M228.766,185.188
			c0,49.555-40.316,89.872-89.872,89.872h-32.681c-49.556,0-89.872-40.317-89.872-89.872v-32.681
			c0-49.555,40.316-89.872,89.872-89.872h32.681c49.556,0,89.872,40.317,89.872,89.872V185.188z"/>
	</g>
</g>
<g>
	<g>
		<path d="M138.894,78.974h-32.681c-40.546,0-73.532,32.986-73.532,73.532v32.681c0,40.545,32.986,73.532,73.532,73.532h32.681
			c40.546,0,73.532-32.986,73.532-73.532v-32.681C212.426,111.96,179.44,78.974,138.894,78.974z M196.085,185.186
			c0,31.535-25.656,57.192-57.192,57.192h-32.681c-31.536,0-57.191-25.657-57.191-57.192v-32.681
			c0-31.535,25.656-57.191,57.191-57.191h32.681c31.536,0,57.192,25.657,57.192,57.191V185.186z"/>
	</g>
</g>
<g>
	<g>
		<path d="M512.001,204.252c-0.001-6.795-1.642-13.325-4.784-19.198c3.021-4.677,4.783-10.239,4.783-16.208
			c0-13.037-2.071-25.676-5.917-37.576c-0.028-0.099-0.048-0.198-0.08-0.296c-0.037-0.115-0.086-0.223-0.129-0.336
			c-8.016-24.341-23.489-45.533-43.961-60.592c-0.142-0.118-0.28-0.237-0.431-0.348c-0.12-0.087-0.245-0.16-0.368-0.24
			c-12.307-8.9-26.387-15.591-41.709-19.446V45.47c0-3.966-2.848-7.359-6.754-8.047c-15.258-2.685-31.149-2.685-46.407,0
			c-3.906,0.688-6.754,4.081-6.754,8.047v4.543c-15.324,3.855-29.403,10.547-41.709,19.446c-0.123,0.08-0.248,0.152-0.368,0.24
			c-0.151,0.11-0.29,0.23-0.431,0.348c-20.472,15.059-35.947,36.253-43.961,60.594c-0.041,0.112-0.09,0.22-0.127,0.334
			c-0.032,0.098-0.052,0.197-0.08,0.296c-3.847,11.899-5.917,24.539-5.917,37.576c0,5.97,1.763,11.532,4.783,16.208
			c-3.143,5.873-4.783,12.402-4.783,19.197c0,8.39,2.511,16.392,7.179,23.149c-4.668,6.757-7.179,14.759-7.179,23.149
			c0,22.526,18.325,40.851,40.851,40.851h103.489c4.513,0,8.17-3.657,8.17-8.17V113.852c19.922,10.82,32.681,31.702,32.681,54.994
			c0,16.518,13.439,29.957,29.957,29.957c4.363,0,8.507-0.946,12.25-2.63c0.897,2.568,1.367,5.283,1.367,8.077
			c0,6.562-2.561,12.729-7.211,17.362c-1.538,1.533-2.403,3.615-2.403,5.788s0.865,4.254,2.403,5.788
			c4.651,4.633,7.211,10.799,7.211,17.362c0,13.515-10.996,24.511-24.511,24.511h-27.234c-4.513,0-8.17,3.657-8.17,8.17
			s3.657,8.17,8.17,8.17h27.234c22.526,0,40.851-18.325,40.851-40.851c0-8.39-2.511-16.392-7.179-23.149
			C509.49,220.644,512.001,212.643,512.001,204.252z M359.489,275.058h-51.745c-13.515,0.002-24.511-10.994-24.511-24.508
			c0-6.562,2.561-12.729,7.21-17.362c1.538-1.533,2.403-3.615,2.403-5.788s-0.865-4.254-2.403-5.788
			c-4.651-4.633-7.21-10.799-7.21-17.362c0-2.793,0.471-5.509,1.367-8.077c3.743,1.684,7.887,2.63,12.25,2.63
			c16.518,0,29.957-13.439,29.957-29.957c0-23.294,12.759-44.175,32.681-54.994V275.058z M359.489,95.785
			c-29.554,12.097-49.021,40.741-49.021,73.061c0,7.509-6.108,13.617-13.617,13.617c-3.704,0-7.063-1.491-9.521-3.899
			c-0.032-0.029-0.064-0.058-0.096-0.087c-2.47-2.466-4-5.873-4-9.631c0-8.558,1.05-16.911,2.997-24.946l2.266,0.736
			c0.84,0.272,1.691,0.402,2.527,0.402c3.443,0,6.646-2.195,7.768-5.647c1.394-4.291-0.953-8.901-5.244-10.296l-2.273-0.739
			c6.462-15.613,16.564-29.446,29.34-40.35l1.393,1.917c1.598,2.201,4.089,3.369,6.616,3.369c1.665,0,3.345-0.508,4.795-1.562
			c3.652-2.653,4.46-7.761,1.807-11.412l-1.402-1.93c7.898-4.871,16.502-8.75,25.665-11.44V95.785z M403.064,56.623
			c0,0.041,0,44.731,0,44.731c0,0.027,0,0.056,0,0.083v173.621H375.83V101.437c0-0.027,0-0.056,0-0.083V56.666
			c0-0.041,0-4.135,0-4.135c9.032-1.051,18.202-1.051,27.234,0V56.623z M491.659,178.479c-0.032,0.029-0.064,0.058-0.096,0.087
			c-2.458,2.408-5.816,3.899-9.521,3.899c-7.509-0.001-13.617-6.11-13.617-13.618c0-32.32-19.467-60.964-49.021-73.061V66.949
			c9.164,2.691,17.768,6.571,25.665,11.44l-1.402,1.93c-2.653,3.651-1.843,8.76,1.807,11.412c1.45,1.055,3.13,1.562,4.795,1.562
			c2.525,0,5.018-1.169,6.616-3.369l1.393-1.917c12.775,10.904,22.878,24.737,29.34,40.351l-2.273,0.739
			c-4.291,1.394-6.64,6.005-5.244,10.296c1.122,3.452,4.325,5.647,7.768,5.647c0.838,0,1.689-0.13,2.527-0.402l2.266-0.736
			c1.947,8.034,2.997,16.387,2.997,24.946C495.66,172.606,494.129,176.013,491.659,178.479z"/>
	</g>
</g>
</svg>