
<svg fill="#000000" height="24px" width="24px" version="1.1" id="Layer_1" xmlns="http://www.w3.org/2000/svg" xmlns:xlink="http://www.w3.org/1999/xlink" 
	 viewBox="0 0 512 512" xml:space="preserve">
<g>
	<g>
		<path d="M296.851,162.33V48.546c3.171-1.123,5.447-4.14,5.447-7.695s-2.276-6.572-5.447-7.695V8.17c0-4.512-3.657-8.17-8.17-8.17
			h-65.362c-4.513,0-8.17,3.658-8.17,8.17v24.986c-3.171,1.123-5.447,4.14-5.447,7.695s2.276,6.572,5.447,7.695V162.33
			c-29.951,15.29-49.021,46.144-49.021,80.053v130.723c0,4.512,3.657,8.17,8.17,8.17h155.234v89.872
			c0,13.516-10.996,24.511-24.511,24.511h-98.043c-13.515,0-24.511-10.995-24.511-24.511v-65.362c0-4.512-3.657-8.17-8.17-8.17
			c-4.513,0-8.17,3.658-8.17,8.17v65.362c0,22.526,18.325,40.851,40.851,40.851h98.043c22.526,0,40.851-18.325,40.851-40.851
			V242.383C345.872,208.474,326.802,177.619,296.851,162.33z M231.489,16.34h49.021v16.34h-49.021V16.34z M231.489,49.021h49.021
			v68.085h-49.021V49.021z M226.592,174.985c2.974-1.301,4.898-4.24,4.898-7.487v-34.051h49.021v34.051
			c0,3.247,1.924,6.186,4.898,7.487c24.281,10.611,40.778,33.319,43.669,59.227H182.922
			C185.814,208.304,202.311,185.597,226.592,174.985z M329.532,364.936H182.468V250.553h147.064V364.936z"/>
	</g>
</g>
<g>
	<g>
		<path d="M491.302,495.66c-11.067,0-16.217-4.039-22.736-9.152c-5.906-4.632-13.011-10.188-24.651-12.014v-93.683
			c36.714-4.079,65.362-35.284,65.362-73.067c0-2.556-0.134-5.142-0.399-7.683l-2.674-25.809c-0.005-0.05-6.775-65.392-6.775-65.392
			c-0.431-4.164-3.94-7.328-8.127-7.328H380.187c-4.186,0-7.695,3.165-8.127,7.328l-9.449,91.201
			c-0.265,2.555-0.399,5.14-0.399,7.683c0,37.783,28.648,68.988,65.362,73.067v93.683c-11.64,1.826-18.745,7.382-24.651,12.014
			c-6.519,5.112-11.669,9.152-22.736,9.152c-4.513,0-8.17,3.658-8.17,8.17s3.657,8.17,8.17,8.17h111.115
			c4.513,0,8.17-3.658,8.17-8.17S495.815,495.66,491.302,495.66z M378.553,307.745c0-1.984,0.106-4.002,0.312-5.999l8.69-83.873
			h96.381l5.079,49.021h-82.917c-4.513,0-8.17,3.658-8.17,8.17s3.657,8.17,8.17,8.17h84.61l1.918,18.515
			c0.206,1.986,0.312,4.003,0.312,5.996c0,31.536-25.657,57.191-57.191,57.191S378.553,339.281,378.553,307.745z M417.925,495.66
			c4.667-3.229,9.619-5.447,17.82-5.447s13.153,2.218,17.82,5.447H417.925z"/>
	</g>
</g>
<g>
	<g>
		<path d="M131.813,495.66c-11.067,0-16.217-4.039-22.736-9.152c-5.907-4.632-13.011-10.188-24.651-12.014v-93.683
			c36.714-4.079,65.362-35.283,65.362-73.067c0-2.544-0.134-5.129-0.399-7.683l-2.674-25.809c-0.005-0.05-6.775-65.392-6.775-65.392
			c-0.431-4.164-3.94-7.328-8.127-7.328H20.698c-4.186,0-7.695,3.165-8.127,7.328l-9.449,91.197
			c-0.265,2.546-0.399,5.132-0.399,7.688c0,37.783,28.648,68.988,65.362,73.067v93.683c-11.64,1.826-18.745,7.382-24.651,12.014
			c-6.519,5.112-11.669,9.152-22.736,9.152c-4.513,0-8.17,3.658-8.17,8.17s3.657,8.17,8.17,8.17h111.115
			c4.513,0,8.17-3.658,8.17-8.17S136.326,495.66,131.813,495.66z M19.064,307.745c0-1.992,0.106-4.01,0.312-5.999l8.69-83.873
			h96.381l5.079,49.021H46.607c-4.513,0-8.17,3.658-8.17,8.17s3.657,8.17,8.17,8.17h84.61l1.917,18.512
			c0.206,1.997,0.312,4.016,0.312,5.999c0,31.536-25.657,57.191-57.191,57.191C44.719,364.936,19.064,339.281,19.064,307.745z
			 M58.436,495.66c4.667-3.229,9.619-5.447,17.82-5.447c8.201,0,13.153,2.218,17.82,5.447H58.436z"/>
	</g>
</g>
</svg>