<svg width="24px" height="24px" viewBox="0 0 48 33" fill="none" xmlns="http://www.w3.org/2000/svg">
<path d="M30.998 30.7529C33.6712 29.4681 35.0811 27.592 35.0811 27.592C35.0811 27.592 33.5307 29.5356 30.998 30.7529ZM30.998 30.7529C28.498 32.2529 15.1011 33.222 14.0711 27.022C13.4511 23.332 15.7011 21.632 18.0111 21.652C20.1611 21.672 22.3211 24.122 21.1611 27.622C19.9645 31.2326 22.4629 32.0133 24.998 31.8616C26.7079 31.7593 28.998 31.7529 30.998 30.7529Z" stroke="black" stroke-width="2" stroke-miterlimit="10" stroke-linecap="round" stroke-linejoin="round"/>
<path d="M16.498 10.2529L29.498 10.2529" stroke="black" stroke-width="3" stroke-miterlimit="10"/>
<path fill-rule="evenodd" clip-rule="evenodd" d="M9.04834 0C3.93703 0.702544 0 5.08737 0 10.3917C0 11.7886 0.273018 13.1216 0.768603 14.3405L9.04834 0ZM3.40736 18.1298L13.6517 0.386612C17.9 1.72784 20.98 5.7001 20.98 10.3917C20.98 16.1852 16.2835 20.8817 10.49 20.8817C7.76 20.8817 5.27358 19.8389 3.40736 18.1298Z" fill="black"/>
<path fill-rule="evenodd" clip-rule="evenodd" d="M36.7246 0.508545C31.1055 0.707031 26.6113 5.32471 26.6113 10.9919C26.6113 12.769 27.0547 14.4429 27.834 15.9097L36.7246 0.508545ZM30.6992 19.3027L41.0996 1.29053C44.9102 2.86255 47.5918 6.61401 47.5918 10.9919C47.5918 16.7854 42.8945 21.4819 37.1016 21.4819C34.6914 21.4819 32.4707 20.6692 30.6992 19.3027Z" fill="black"/>
</svg>
