<?xml version="1.0" encoding="utf-8"?>

<!-- Uploaded to: SVG Repo, www.svgrepo.com, Generator: SVG Repo Mixer Tools -->
<svg fill="#000000" height="20px" width="20px" version="1.1" id="Layer_1" xmlns="http://www.w3.org/2000/svg" xmlns:xlink="http://www.w3.org/1999/xlink" 
	 viewBox="-143 145 512 512" xml:space="preserve">
<g>
	<path d="M-143,145v512h512V145H-143z M244.2,423.4c-1.4,11.4-3.8,23.1-7.9,33.8c-12,30.7-36,47.6-67.8,52.7
		c-18.2,2.9-36.9,3-57.1,4.5c-18.1-1.6-38-1.8-57.3-5.2c-37.4-6.6-62.8-32.8-70.2-70.3c-3.8-19.1-4.9-38.3,1-57.3
		c3.1-9.8,8.2-18.5,14.8-26.4c0.9-1,1.7-2.5,1.6-3.8c-1.1-17.2,0.9-34.2,6-50.6c4.2-13.7,1.1-12.9,16.3-8.9
		c18.3,4.8,34.3,14.7,50,25c1.8,1.2,4.6,1.7,6.8,1.3c22.2-3.4,44.3-3.6,66.5,0.3c1.6,0.3,3.7-0.3,5.2-1.2
		c13.5-8.8,27.4-16.7,42.6-22.2c5.5-2,11.3-3.3,16.9-5c2.5-0.7,3.6,0.2,4.5,2.6c6.8,19,9.6,38.5,8.6,58.6c-0.1,1.1,0.5,2.6,1.2,3.5
		C243,374.6,247.3,398.2,244.2,423.4z"/>
	<path d="M177.1,398.4c-8.6-1.5-17.6-1.3-26.4-0.8c-20,1.1-40,3-60,1.2c-9.5-0.9-19.1-1.8-28.7-1.6c-17.4,0.3-32,6-40.6,22.6
		c-4.3,8.2-5.3,17-5,26.1c0.7,25.6,11.8,40.2,36.2,47.5c19.6,5.8,39.7,6.6,59.9,6.2c7.5,0,15,0.4,22.5-0.1
		c15.5-0.9,30.7-3.2,45.4-8.6c15.2-5.6,24.3-16.3,27.6-31.8c1.3-6,1.9-12.3,1.8-18.4C209.6,420,195.6,401.5,177.1,398.4z
		 M78.7,466.1c-6.5,7.1-15.9,7.2-22.6,0.3c-4.9-5-7.7-12.7-7.7-22.3c0.2-6.5,2.1-13.6,7.7-19.3c6.7-6.9,16.1-6.8,22.6,0.2
		C88.5,435.6,88.5,455.5,78.7,466.1z M169.6,466.6c-6.1,6.3-14.9,6.5-21.4,0.7c-11.2-10.2-11.2-32.9,0-43.2
		c6.4-5.9,15.2-5.7,21.4,0.6c5.7,5.8,7.6,13.1,7.9,20.9C177.2,453.5,175.2,460.7,169.6,466.6z"/>
</g>
</svg>