<svg width="29" height="29" viewBox="0 0 29 29" fill="none" xmlns="http://www.w3.org/2000/svg">
<path d="M24.1668 9.66661L16.9168 3.31078C16.2522 2.71633 15.3918 2.3877 14.5001 2.3877C13.6084 2.3877 12.7481 2.71633 12.0834 3.31078L4.83345 9.66661C4.44964 10.0099 4.14337 10.431 3.93502 10.9018C3.72667 11.3727 3.62102 11.8826 3.62511 12.3974V22.9583C3.62511 23.9197 4.00703 24.8417 4.68685 25.5215C5.36667 26.2014 6.2887 26.5833 7.25011 26.5833H21.7501C22.7115 26.5833 23.6336 26.2014 24.3134 25.5215C24.9932 24.8417 25.3751 23.9197 25.3751 22.9583V12.3854C25.3775 11.8725 25.271 11.365 25.0627 10.8963C24.8544 10.4276 24.5491 10.0085 24.1668 9.66661ZM16.9168 24.1666H12.0834V18.1249C12.0834 17.8045 12.2108 17.4971 12.4374 17.2705C12.664 17.0439 12.9713 16.9166 13.2918 16.9166H15.7084C16.0289 16.9166 16.3363 17.0439 16.5629 17.2705C16.7895 17.4971 16.9168 17.8045 16.9168 18.1249V24.1666ZM22.9584 22.9583C22.9584 23.2787 22.8311 23.5861 22.6045 23.8127C22.3779 24.0393 22.0706 24.1666 21.7501 24.1666H19.3334V18.1249C19.3334 17.1635 18.9515 16.2415 18.2717 15.5617C17.5919 14.8819 16.6699 14.4999 15.7084 14.4999H13.2918C12.3304 14.4999 11.4083 14.8819 10.7285 15.5617C10.0487 16.2415 9.66678 17.1635 9.66678 18.1249V24.1666H7.25011C6.92964 24.1666 6.6223 24.0393 6.39569 23.8127C6.16909 23.5861 6.04178 23.2787 6.04178 22.9583V12.3854C6.042 12.2138 6.07875 12.0442 6.14959 11.888C6.22042 11.7317 6.32372 11.5923 6.45261 11.4791L13.7026 5.13536C13.9231 4.94164 14.2066 4.83481 14.5001 4.83481C14.7936 4.83481 15.0771 4.94164 15.2976 5.13536L22.5476 11.4791C22.6765 11.5923 22.7798 11.7317 22.8506 11.888C22.9215 12.0442 22.9582 12.2138 22.9584 12.3854V22.9583Z" fill="black"/>
</svg>
