<svg viewBox="0 0 100 100" fill="none" xmlns="http://www.w3.org/2000/svg">
<path d="M57.8827 26.1453C57.8827 26.1453 62.4138 21.3028 68.1138 24.2166C73.2912 26.8622 75.5084 34.5 69.5604 40.7145C63.248 47.314 50.2294 49.9875 50.2294 49.9875C50.2294 49.9875 42.8784 42.3814 40.4918 34.3547C37.8294 25.4163 42.3881 17.4241 49.911 18.3267C55.1025 18.9492 57.3653 23.2356 57.8827 26.1453Z" fill="#FF7B54" stroke="#FF7B54" stroke-miterlimit="10" stroke-linecap="square" stroke-linejoin="round"/>
<path d="M17.0691 36.5404L33.5783 46.7231L50.0875 56.9057L33.0128 66.1117L15.9438 75.3147L16.5036 55.9291L17.0691 36.5404Z" fill="#FFB26B" stroke="#FFB26B" stroke-miterlimit="10" stroke-linecap="round" stroke-linejoin="round"/>
<path d="M85.3549 73.0388C81.2341 81.322 71.1787 84.6962 62.8955 80.5754C54.6124 76.4546 51.2381 66.3991 55.359 58.116C59.4798 49.8328 69.5352 46.4586 77.8184 50.5794C86.1015 54.7003 89.4758 64.7557 85.3549 73.0388Z" fill="#FFD56F" stroke="#FFD56F"/>
</svg>
