<svg viewBox="0 0 232 62" fill="none" xmlns="http://www.w3.org/2000/svg">
<path d="M94.66 47.54C86.956 47.54 81.556 41.96 81.556 34.004C81.556 26.048 86.956 20.432 94.66 20.468C98.296 20.468 101.536 22.016 103.876 24.428L101.428 26.84C99.844 24.932 97.288 23.744 94.624 23.744C89.08 23.744 85.336 27.848 85.336 34.004C85.336 40.124 89.08 44.264 94.624 44.264C97.468 44.264 99.772 43.004 101.284 41.276L103.876 43.58C101.536 45.992 98.44 47.576 94.66 47.54ZM120.746 36.452C120.458 34.04 119.09 31.52 115.742 31.52C112.898 31.52 110.702 33.68 110.27 36.488L120.746 36.452ZM106.67 37.892C106.67 32.312 110.378 28.388 115.67 28.388C121.574 28.388 123.338 33.14 123.482 33.5C124.598 36.2 124.238 39.008 124.238 39.332H110.27C110.702 42.248 113.078 44.228 115.706 44.228C119.342 44.228 120.458 42.032 120.602 41.816L123.626 43.184C123.626 43.184 121.898 47.36 115.67 47.36C110.378 47.36 106.67 43.436 106.67 37.892ZM127.659 20.756H131.403V47.252H127.659V20.756ZM139.805 39.188C139.805 42.248 141.677 44.3 144.341 44.3C147.257 44.264 149.273 42.32 149.237 39.296V28.424H152.981V47.252H149.237V44.516C148.121 46.316 145.925 47.432 143.837 47.432C139.337 47.432 136.061 44.156 136.061 39.368V28.424H139.805V39.188ZM174.833 28.424L166.877 47.252H163.529L155.609 28.424H159.677L165.185 42.5L170.765 28.424H174.833ZM189.97 36.452C189.682 34.04 188.314 31.52 184.966 31.52C182.122 31.52 179.926 33.68 179.494 36.488L189.97 36.452ZM175.894 37.892C175.894 32.312 179.602 28.388 184.894 28.388C190.798 28.388 192.562 33.14 192.706 33.5C193.822 36.2 193.462 39.008 193.462 39.332H179.494C179.926 42.248 182.302 44.228 184.93 44.228C188.566 44.228 189.682 42.032 189.826 41.816L192.85 43.184C192.85 43.184 191.122 47.36 184.894 47.36C179.602 47.36 175.894 43.436 175.894 37.892ZM205.808 44.336C208.796 44.336 211.388 41.6 211.424 37.964C211.388 34.328 208.796 31.592 205.808 31.592C202.604 31.592 200.372 34.148 200.372 37.964C200.372 41.744 202.604 44.336 205.808 44.336ZM196.628 37.964C196.628 32.42 200.336 28.496 205.556 28.496C207.644 28.496 209.84 29.504 211.388 31.736V28.424H215.132V47.252L211.388 47.288V44.156C209.804 46.46 207.644 47.432 205.556 47.432C200.336 47.432 196.628 43.508 196.628 37.964ZM226.837 47.36C223.597 47.36 221.257 44.984 221.185 41.564V31.844H217.945V28.568H221.185V23.42H224.929V28.568H228.961V31.844H224.929V41.384C224.929 42.68 225.721 43.796 226.837 43.832C227.593 43.832 228.061 43.688 228.745 43.544L229.537 47.036C228.745 47.18 227.845 47.36 226.837 47.36Z" fill="black"/>
<path d="M49.2146 8.62604C49.2146 8.62604 53.0671 4.50866 57.9135 6.9861C62.3156 9.23556 64.2007 15.7295 59.1435 21.0134C53.7764 26.6246 42.7074 28.8977 42.7074 28.8977C42.7074 28.8977 36.4572 22.4307 34.4281 15.606C32.1643 8.00618 36.0404 1.21088 42.4367 1.97823C46.8507 2.50753 48.7746 6.15203 49.2146 8.62604Z" fill="#FF7B54" stroke="#FF7B54" stroke-miterlimit="10" stroke-linecap="square" stroke-linejoin="round"/>
<path d="M14.5129 17.4645L28.5498 26.1222L42.5867 34.78L28.069 42.6074L13.5561 50.4322L14.0321 33.9496L14.5129 17.4645Z" fill="#FFB26B" stroke="#FFB26B" stroke-miterlimit="10" stroke-linecap="round" stroke-linejoin="round"/>
<path d="M72.5048 48.4638C69.0195 55.4695 60.5149 58.3233 53.5092 54.838C46.5035 51.3527 43.6496 42.8481 47.1349 35.8424C50.6203 28.8367 59.1249 25.9828 66.1306 29.4681C73.1363 32.9534 75.9901 41.4581 72.5048 48.4638Z" fill="#FFD56F" stroke="#FFD56F"/>
</svg>
