<svg width="29" height="29" viewBox="0 0 29 29" fill="none" xmlns="http://www.w3.org/2000/svg">
<path d="M25.761 22.8976L18.511 25.3142H18.4264C18.3702 25.3199 18.3135 25.3199 18.2573 25.3142H17.9794H17.8223H17.7377L10.8744 22.958L4.01102 25.3142C3.8293 25.3741 3.63596 25.3901 3.44689 25.3606C3.25783 25.3312 3.07845 25.2573 2.92352 25.1451C2.76735 25.0339 2.63988 24.8871 2.55164 24.7169C2.46339 24.5467 2.41691 24.358 2.41602 24.1663V7.24964C2.41537 6.99632 2.49434 6.7492 2.64179 6.54321C2.78923 6.33722 2.99769 6.18278 3.23769 6.10172L10.4877 3.68505C10.7311 3.60568 10.9934 3.60568 11.2369 3.68505L18.1244 5.98089L24.9877 3.62464C25.116 3.60723 25.2461 3.60723 25.3744 3.62464C25.627 3.62108 25.8736 3.70187 26.0752 3.85422C26.2314 3.96541 26.3588 4.11216 26.4471 4.28234C26.5353 4.45253 26.5818 4.64127 26.5827 4.83297V21.7496C26.5833 22.003 26.5044 22.2501 26.3569 22.4561C26.2095 22.6621 26.001 22.8165 25.761 22.8976ZM9.66602 6.51255L4.83269 8.11964V22.4867L9.66602 20.8796V6.51255ZM16.916 8.11964L12.0827 6.51255V20.8796L16.916 22.4867V8.11964ZM24.166 6.51255L19.3327 8.11964V22.4867L24.166 20.8796V6.51255Z" fill="black"/>
</svg>
