<svg width="12" height="12" viewBox="0 0 26 26" fill="none" xmlns="http://www.w3.org/2000/svg">
<path d="M25 25L17 17M19.6667 10.3333C19.6667 11.559 19.4253 12.7727 18.9562 13.905C18.4872 15.0374 17.7997 16.0663 16.933 16.933C16.0663 17.7997 15.0374 18.4872 13.905 18.9562C12.7727 19.4253 11.559 19.6667 10.3333 19.6667C9.10766 19.6667 7.89399 19.4253 6.76162 18.9562C5.62925 18.4872 4.60035 17.7997 3.73367 16.933C2.86699 16.0663 2.1795 15.0374 1.71046 13.905C1.24141 12.7727 1 11.559 1 10.3333C1 7.85798 1.98333 5.48401 3.73367 3.73367C5.48401 1.98333 7.85798 1 10.3333 1C12.8087 1 15.1827 1.98333 16.933 3.73367C18.6833 5.48401 19.6667 7.85798 19.6667 10.3333Z" stroke="#000" stroke-width="2" stroke-linecap="round" stroke-linejoin="round"/>
</svg>
