<svg width="21" height="26" viewBox="0 0 21 26" fill="none" xmlns="http://www.w3.org/2000/svg">
<path d="M21 13C21 12.6552 20.8617 12.3246 20.6156 12.0808C20.3694 11.837 20.0356 11.7 19.6875 11.7H9.72562L12.7444 8.723C12.8668 8.60179 12.9638 8.45789 13.0301 8.29952C13.0963 8.14116 13.1304 7.97142 13.1304 7.8C13.1304 7.62858 13.0963 7.45884 13.0301 7.30048C12.9638 7.14211 12.8668 6.99821 12.7444 6.877C12.622 6.75579 12.4767 6.65964 12.3168 6.59404C12.1569 6.52844 11.9856 6.49468 11.8125 6.49468C11.6394 6.49468 11.4681 6.52844 11.3082 6.59404C11.1483 6.65964 11.003 6.75579 10.8806 6.877L5.63062 12.077C5.51113 12.2006 5.41747 12.3464 5.355 12.506C5.22373 12.8225 5.22373 13.1775 5.355 13.494C5.41747 13.6536 5.51113 13.7994 5.63062 13.923L10.8806 19.123C11.0026 19.2448 11.1478 19.3416 11.3077 19.4076C11.4677 19.4736 11.6392 19.5075 11.8125 19.5075C11.9858 19.5075 12.1573 19.4736 12.3173 19.4076C12.4772 19.3416 12.6224 19.2448 12.7444 19.123C12.8674 19.0021 12.965 18.8584 13.0317 18.6999C13.0983 18.5415 13.1326 18.3716 13.1326 18.2C13.1326 18.0284 13.0983 17.8585 13.0317 17.7C12.965 17.5416 12.8674 17.3979 12.7444 17.277L9.72562 14.3H19.6875C20.0356 14.3 20.3694 14.163 20.6156 13.9192C20.8617 13.6754 21 13.3448 21 13ZM17.0625 0H3.9375C2.89321 0 1.89169 0.410892 1.15327 1.14228C0.414843 1.87368 0 2.86566 0 3.9V22.1C0 23.1343 0.414843 24.1263 1.15327 24.8577C1.89169 25.5891 2.89321 26 3.9375 26H17.0625C18.1068 26 19.1083 25.5891 19.8467 24.8577C20.5852 24.1263 21 23.1343 21 22.1V18.2C21 17.8552 20.8617 17.5246 20.6156 17.2808C20.3694 17.037 20.0356 16.9 19.6875 16.9C19.3394 16.9 19.0056 17.037 18.7594 17.2808C18.5133 17.5246 18.375 17.8552 18.375 18.2V22.1C18.375 22.4448 18.2367 22.7754 17.9906 23.0192C17.7444 23.263 17.4106 23.4 17.0625 23.4H3.9375C3.5894 23.4 3.25556 23.263 3.00942 23.0192C2.76328 22.7754 2.625 22.4448 2.625 22.1V3.9C2.625 3.55522 2.76328 3.22456 3.00942 2.98076C3.25556 2.73696 3.5894 2.6 3.9375 2.6H17.0625C17.4106 2.6 17.7444 2.73696 17.9906 2.98076C18.2367 3.22456 18.375 3.55522 18.375 3.9V7.8C18.375 8.14478 18.5133 8.47544 18.7594 8.71924C19.0056 8.96304 19.3394 9.1 19.6875 9.1C20.0356 9.1 20.3694 8.96304 20.6156 8.71924C20.8617 8.47544 21 8.14478 21 7.8V3.9C21 2.86566 20.5852 1.87368 19.8467 1.14228C19.1083 0.410892 18.1068 0 17.0625 0Z" fill="black"/>
</svg>
