<svg width="28" height="27" viewBox="0 0 28 27" fill="none" xmlns="http://www.w3.org/2000/svg">
<path d="M25.9472 25.5062H26.5183L26.4428 24.9401C25.9184 21.005 22.6362 17.9846 18.5982 17.9846H9.40176C5.36383 17.9846 2.08158 21.005 1.55717 24.9401L1.48173 25.5062H2.05279H25.9472ZM20.9311 7.60154C20.9311 11.4866 17.8222 14.6615 13.9589 14.6615C10.0993 14.6615 6.9868 11.4486 6.9868 7.56C6.9868 3.67497 10.0957 0.5 13.9589 0.5C17.8186 0.5 20.9311 3.71292 20.9311 7.60154ZM19.9604 7.56C19.9604 4.21554 17.2787 1.49385 13.9589 1.49385C10.6344 1.49385 7.95748 4.26195 7.95748 7.60154C7.95748 10.9509 10.6441 13.6262 13.9589 13.6262C17.2787 13.6262 19.9604 10.9045 19.9604 7.56ZM27.0147 26.5H0.985337C0.73325 26.5 0.5 26.2725 0.5 26.0031C0.5 21.0398 4.51038 16.9908 9.40176 16.9908H18.5982C23.4896 16.9908 27.5 21.0398 27.5 26.0031C27.5 26.2725 27.2668 26.5 27.0147 26.5Z" fill="black" stroke="black"/>
</svg>
