<svg id="SvgjsSvg1001" width="100%" height="100%" xmlns="http://www.w3.org/2000/svg" version="1.1" xmlns:xlink="http://www.w3.org/1999/xlink" xmlns:svgjs="http://svgjs.com/svgjs"><defs id="SvgjsDefs1002"></defs><g id="SvgjsG1008"><svg xmlns="http://www.w3.org/2000/svg" data-name="Layer 1" viewBox="0 0 800 800" width="100%" height="100%"><path fill="#010101" d="M143.33 719.36h564.93v4.29H143.33z" class="color010101 svgShape"></path><path fill="#e7ebef" d="M126.17 413.19C148.56 267.93 274.74-.2 459.82 107.61 618.71 200.17 509.37 312.45 640 358.66c223 78.88 29.2 411.47-241.33 354s-293.32-164.35-272.5-299.47Z" class="colore7ebef svgShape"></path><path fill="#e7ebef" d="M574.79 155.36c-10.5 52.95 7.9 151.65 111.4 185.43s67.56-47.43 0-113.56-95.59-151.65-111.4-71.87Z" class="colore7ebef svgShape"></path><path fill="#abb7c2" d="M627.08 558.27H574V529.2h53.06Zm-50-3h47v-23h-47Z" class="colorabb7c2 svgShape"></path><path fill="#abb7c2" d="M663.41 584.3h-53v-29.07h53Zm-50-3h47v-23h-47ZM496.24 308.44h-53.05v-29.07h53.05Zm-50-3h47v-23h-47ZM403 629.36h-53.06V600.3H403Zm-50-3h47v-23h-47Z" class="colorabb7c2 svgShape"></path><path fill="#abb7c2" d="M453.07 629.36H400V600.3h53.06Zm-50-3h47v-23h-47Z" class="colorabb7c2 svgShape"></path><path fill="#abb7c2" d="M428 655.39h-53v-29.07h53Zm-50-3h47v-23h-47ZM317.58 449.15h-53.06v-29.07h53.06Zm-50-3h47v-23h-47Z" class="colorabb7c2 svgShape"></path><path fill="#abb7c2" d="M281.24 475.18h-53.05v-29.07h53.05Zm-50-3h47v-23h-47ZM307.33 204.64h-53.06v-29.07h53.06Zm-50-3h47v-23h-47Z" class="colorabb7c2 svgShape"></path><path fill="#abb7c2" d="M282.27 230.67h-53.06v-29.08h53.06Zm-50-3h47v-23h-47ZM609 296.8H172.25a20.41 20.41 0 0 0-20.39 21.42L170.68 696h439.89l18.82-377.76A20.41 20.41 0 0 0 609 296.8Z" class="colorabb7c2 svgShape"></path><path fill="#ffffff" d="m191.66 673.93-17.68-355.08h433.29l-17.68 355.08H191.66z" class="colorfff svgShape"></path><path fill="#010101" d="m606.49 319.59-17.61 353.6H192.37l-17.61-353.6Zm1.57-1.48H173.19L191 674.67h399.3l17.76-356.56Z" class="color010101 svgShape"></path><rect width="51.89" height="13.32" x="177.45" y="686.46" fill="#010101" rx="1.62" class="color010101 svgShape"></rect><rect width="33.96" height="13.32" x="246.32" y="686.46" fill="#010101" rx="1.62" class="color010101 svgShape"></rect><rect width="65.41" height="13.32" x="290.35" y="686.46" fill="#010101" rx="1.62" class="color010101 svgShape"></rect><rect width="58.21" height="13.32" x="373.97" y="686.46" fill="#010101" rx="1.62" class="color010101 svgShape"></rect><rect width="33.96" height="13.32" x="446.01" y="686.46" fill="#010101" rx="1.62" class="color010101 svgShape"></rect><rect width="33.97" height="13.32" x="569.84" y="686.46" fill="#010101" rx="1.62" class="color010101 svgShape"></rect><rect width="65.41" height="13.32" x="490.04" y="686.46" fill="#010101" rx="1.62" class="color010101 svgShape"></rect><rect width="506.4" height="22.92" x="137.43" y="695.98" fill="#abb7c2" rx="5.49" class="colorabb7c2 svgShape"></rect><path fill="#abb7c2" d="M275.26 576v-31.25h-63.61v-26.07L279.07 420h25v98.58h19.29v26.18h-19.27V576Zm0-57.45v-53.09l-35.73 53.11ZM387.94 420q22.57 0 35.3 16.11 15.15 19.08 15.16 63.28t-15.27 63.39q-12.61 15.9-35.19 15.91t-36.57-17.44q-13.89-17.44-13.89-62.18 0-43.87 15.26-63.17 12.61-15.9 35.2-15.9Zm0 24.7a14.86 14.86 0 0 0-9.65 3.44q-4.25 3.45-6.57 12.35-3.08 11.55-3.08 38.9T371.4 537q2.76 10.23 6.94 13.62a15.26 15.26 0 0 0 19.24-.05q4.25-3.45 6.58-12.35 3.06-11.45 3.07-38.8t-2.76-37.57q-2.76-10.23-6.94-13.68a14.65 14.65 0 0 0-9.59-3.48ZM516.73 576v-31.25h-63.6v-26.07L520.55 420h25v98.58h19.29v26.18h-19.27V576Zm0-57.45v-53.09L481 518.57ZM320.41 622.85q0-8.28 4.45-13a15.13 15.13 0 0 1 11.49-4.69 15.94 15.94 0 0 1 8.31 2.21 14.44 14.44 0 0 1 5.64 6.14 20 20 0 0 1 1.94 8.93 19.62 19.62 0 0 1-2 9.06 14 14 0 0 1-5.79 6.05 16.47 16.47 0 0 1-8.09 2.06 15.78 15.78 0 0 1-8.4-2.27 14.56 14.56 0 0 1-5.61-6.2 18.81 18.81 0 0 1-1.94-8.29Zm4.54.07q0 6 3.23 9.48a11.3 11.3 0 0 0 16.31 0q3.21-3.5 3.21-9.92a17 17 0 0 0-1.38-7.09 10.51 10.51 0 0 0-4-4.7 10.87 10.87 0 0 0-5.94-1.67 11.27 11.27 0 0 0-8.05 3.21q-3.38 3.17-3.33 10.69ZM355.87 627q0-6.69 3.73-9.92a11.24 11.24 0 0 1 7.58-2.68 10.83 10.83 0 0 1 8.13 3.26c2.1 2.17 3.15 5.18 3.15 9a16 16 0 0 1-1.39 7.33 9.85 9.85 0 0 1-4.07 4.14 11.85 11.85 0 0 1-5.82 1.48 10.84 10.84 0 0 1-8.18-3.25q-3.13-3.24-3.13-9.36Zm4.2 0c0 3.09.68 5.41 2 6.94a6.72 6.72 0 0 0 10.15 0c1.35-1.54 2-3.9 2-7.06 0-3-.67-5.24-2-6.78a6.75 6.75 0 0 0-10.14 0c-1.33 1.51-2.01 3.82-2.01 6.9ZM381.73 627q0-6.69 3.73-9.92a11.24 11.24 0 0 1 7.54-2.68 10.82 10.82 0 0 1 8.13 3.26c2.1 2.17 3.16 5.18 3.16 9a16 16 0 0 1-1.4 7.33 9.82 9.82 0 0 1-4.06 4.14 11.89 11.89 0 0 1-5.83 1.48 10.85 10.85 0 0 1-8.18-3.25q-3.09-3.24-3.09-9.36Zm4.21 0c0 3.09.67 5.41 2 6.94a6.71 6.71 0 0 0 10.14 0c1.35-1.54 2-3.9 2-7.06q0-4.47-2-6.78a6.74 6.74 0 0 0-10.13 0q-2.01 2.28-2.01 6.9ZM409.12 648.3V615h3.72v3.13a9.2 9.2 0 0 1 3-2.76 8.18 8.18 0 0 1 4-.92 9.51 9.51 0 0 1 5.44 1.59 9.73 9.73 0 0 1 3.57 4.49 16.39 16.39 0 0 1 1.2 6.34 16.08 16.08 0 0 1-1.33 6.67 10.11 10.11 0 0 1-9.18 6.12 7.65 7.65 0 0 1-3.67-.87 8.33 8.33 0 0 1-2.67-2.18v11.69Zm3.7-21.16q0 4.67 1.88 6.88a5.81 5.81 0 0 0 4.57 2.23 5.9 5.9 0 0 0 4.66-2.31c1.3-1.53 1.94-3.92 1.94-7.14q0-4.6-1.89-6.9a5.73 5.73 0 0 0-4.53-2.3 5.89 5.89 0 0 0-4.62 2.45c-1.34 1.62-2.01 3.95-2.01 7.09ZM433.34 631.86l4.05-.63a5.58 5.58 0 0 0 1.89 3.72 6.64 6.64 0 0 0 4.35 1.3 6.42 6.42 0 0 0 4.18-1.15 3.41 3.41 0 0 0 1.36-2.69 2.49 2.49 0 0 0-1.2-2.18 17.93 17.93 0 0 0-4.18-1.39 37.71 37.71 0 0 1-6.23-2 5.91 5.91 0 0 1-3.53-5.53 6.2 6.2 0 0 1 .73-3 6.81 6.81 0 0 1 2-2.29 8.9 8.9 0 0 1 2.6-1.19 12.6 12.6 0 0 1 3.53-.49 14.07 14.07 0 0 1 5 .82 6.81 6.81 0 0 1 3.17 2.22 8.54 8.54 0 0 1 1.4 3.73l-4 .54a4.41 4.41 0 0 0-1.58-2.9 5.75 5.75 0 0 0-3.69-1 6.75 6.75 0 0 0-4 .93 2.73 2.73 0 0 0-1.2 2.18 2.19 2.19 0 0 0 .5 1.43 3.5 3.5 0 0 0 1.56 1.09c.41.16 1.61.5 3.61 1.05a48.15 48.15 0 0 1 6.05 1.9 6.06 6.06 0 0 1 2.69 2.14 5.94 5.94 0 0 1 1 3.5 6.92 6.92 0 0 1-1.19 3.85 7.75 7.75 0 0 1-3.44 2.79 12.49 12.49 0 0 1-5.09 1q-4.69 0-7.16-2a9.11 9.11 0 0 1-3.18-5.75ZM459.39 639.06v-4.65H464v4.65ZM472.31 639.06v-4.65H477v4.65ZM485.23 639.06v-4.65h4.65v4.65Z" class="colorabb7c2 svgShape"></path><path fill="#f58132" d="M321.1 403.91H70.33a21.33 21.33 0 0 1-18.47-32l125.38-217.17a21.33 21.33 0 0 1 36.95 0l125.39 217.18a21.33 21.33 0 0 1-18.48 31.99Z" class="colorf58132 svgShape"></path><path fill="#010101" d="m186.76 339.4-8.28-84.4v-39H213v39l-8.16 84.37Zm-6.92 42.87V350.4h31.87v31.87Z" class="color010101 svgShape"></path><path fill="#ffffff" d="M606.66 708.65c-2.29 0-3.52-.59-3.65-1.75-.06-.53-.24-1.61-.48-3-1.46-8.44-2-13.26-1-14.56.41-.51 1.41-1.09 5.61-1.09.12 0 11.94.15 12.26 2.05.18 1.09 1.51 13.44-.48 15.4-1.27 1.3-8.37 2.95-12.26 2.95Z" class="colorfff svgShape"></path><path fill="#010101" d="M607.13 689c4.86 0 11.42.83 11.52 1.43.46 2.76 1.17 13.35-.26 14.75-1 1-7.75 2.71-11.73 2.71-1.65 0-2.82-.3-2.91-1.08-.25-2.32-3-15.32-1.65-17 .48-.59 2.53-.81 5-.81Zm0-1.49c-4.47 0-5.62.66-6.19 1.37-1.11 1.39-.91 4.93.86 15.16.23 1.35.42 2.42.47 2.93.18 1.6 1.65 2.41 4.39 2.41 3.78 0 11.29-1.68 12.77-3.14 2.46-2.4.71-15.92.69-16.06-.41-2.47-10-2.67-13-2.67Z" class="color010101 svgShape"></path><path fill="#010101" d="M619.45 702s6.94 9.92 2 17.71c0 0-36.14 1.7-47 0 0 0-.28-13.32 9.07-14.46a171.93 171.93 0 0 1 19.89-1s9.25 5.08 16.04-2.25Z" class="color010101 svgShape"></path><path fill="#ffffff" d="M687 709.86c-1.93 0-2.32-1-2.38-1.51 0-.38-.14-1.08-.26-2-1.51-11.15-1.72-15.74-.75-17 .37-.47 1.32-1.1 5.16-1.1.1 0 10.25.15 10.56 2 .18 1.09 1.51 13.45-.48 15.4-1.2 1.24-8.39 4.21-11.85 4.21Z" class="colorfff svgShape"></path><path fill="#010101" d="M688.76 689.05c4.2 0 9.73.8 9.82 1.39.46 2.76 1.18 13.35-.26 14.75-1.07 1-8.09 3.93-11.33 3.93-1 0-1.57-.25-1.64-.85-.25-2.32-2.51-16.72-1.17-18.39.48-.6 2.34-.83 4.58-.83Zm0-1.49c-4.09 0-5.2.71-5.75 1.39-1 1.23-1.17 4.39.6 17.5.13.91.22 1.6.26 2s.45 2.17 3.12 2.17c3.48 0 10.94-3 12.37-4.35 2.45-2.4.71-15.92.69-16.06-.4-2.44-8.74-2.63-11.29-2.63ZM619.05 561.35c-1.7 21.26-.14 64.12 1.56 85.38.11 1.43.11 50.81.11 50.81l-20 1.91c-10.86-32.45-31.63-105.24-31.63-137.56s2.79-86.15 14.66-111.69c11.29-24.29 55.83 9.25 61.07 15.21 2.41 2.75-2.16 27.34-8.49 43.63-7.33 18.88-16.33 40.88-17.28 52.31Z" class="color010101 svgShape"></path><path fill="#010101" d="M622 646.58c-1.16-21.29-4.68-64-3-85.23.92-11.43 14.78-44.38 22.12-63.26-1.94-5.81.48-18.3-4.31-21.54-4-2.65-19.54 14.94-21.28 20.14-1.39 4.12 1.16 9.32 1.46 13.44a38.44 38.44 0 0 1-5 21.56c-5.51 9.77-12.28 17.45-15.37 28.5-6 21.5-1.19 43.92 3.84 65.07 3.2 13.33 6.6 26.77 7.41 40.51.45 7.89 1.55 25.19.43 33l12.33-1.18s2.56-29.8 1.37-51.01Z" class="color010101 svgShape"></path><path fill="#010101" d="m700.12 697.54-17.74 1.91c-9.26-30.62-34-82.92-37.64-115C639.1 534.56 632.28 481.17 632 468c0-2.11-.07-3.23-.07-3.23 12.22-14.87 32.91-20.92 42.13-22 3.64-.45 6.29.27 7.45 2.18a137.8 137.8 0 0 1 8.94 17.48c14.87 35.3 2.35 56.63 2.62 102.55 0 2.65 0 5.37.1 8.06.48 19-4.64 42.35.82 62.18 10.67 38.92 6.13 62.32 6.13 62.32Z" class="color010101 svgShape"></path><path fill="#010101" d="M697.36 634c-3.09-20.33-3.78-41.92-4.22-60.9-.07-2.69-.1-5.41-.1-8.06-.27-45.92 12.24-68.36-2.63-103.66 0-7.06-16.69-10.49-16.82-6.2a85.69 85.69 0 0 0 1.32 15.4c1.46 8.91 3.37 17.72 2.08 26.91-2 14.21-6.6 27.65-7.55 42.14-1.74 26.63 4.35 51.09 13.39 75.85 5.65 15.37 10.21 30.67 12 47 1.12 10.34 1.37 25.07 1.27 35.48l4-.39s4.67-14.7-2.74-63.57ZM699.38 702s6.94 9.92 2 17.71c0 0-36.14 1.7-47.05 0 0 0-.28-13.32 9.07-14.46s21.35-1.63 21.35-1.63 7.84 5.71 14.63-1.62ZM602 312.3s-27.33 21.22-44.62 77.79L602 400.18l.46-56.15Z" class="color010101 svgShape"></path><path fill="#f58132" d="M574.81 465.55c.54 1.69 21.52 8.9 42.34 12.11 24 3.69 62.18-5.53 72-7.4 4-.75 6.62-1.83 7.23-3.12 1.9-4.1-4.67-44-3.88-70.51.14-5.14.25-10.35.25-15.45.14-26.67-1.72-51.64-7.76-56.28-1.37-1.08-3-2.19-4.71-3.38-1.51-1-3.13-2.08-4.92-3.12-1.33-.8-2.74-1.58-4.21-2.34a85.78 85.78 0 0 0-18.79-7.26 78 78 0 0 0-37.52-.57 76.9 76.9 0 0 0-10.35 3.09c-.82.29-1.65.62-2.51.94-11.79 4.74-10.1 30.4-8.2 51.93.87 10 1.77 19.08 1.41 24.76a51.07 51.07 0 0 1-.72 5.67c-2.68 15.88-17.68 59.38-19.66 70.93Z" class="colorf58132 svgShape"></path><path fill="#ffffff" d="M626.41 312.73a8.27 8.27 0 0 1-1.66-.16 2.11 2.11 0 0 1-1.56-1.18c-.78-1.67.56-4.5 1-5.28v-11.84l16.12-6.68v19.08l-.29.22c-.3.24-7.56 5.84-13.58 5.84Z" class="colorfff svgShape"></path><path fill="#010101" d="M639.53 288.71v17.6s-7.29 5.69-13.12 5.69a7.58 7.58 0 0 1-1.51-.14c-2.73-.55 0-5.55 0-5.55v-11.54l14.63-6.06Zm1.49-2.23-2 .85-14.64 6.07-.92.38v12.15c-.6 1.19-1.76 3.91-.9 5.77a2.85 2.85 0 0 0 2.1 1.6 9.48 9.48 0 0 0 1.8.17c6.27 0 13.72-5.75 14-6l.54-.47v-20.52Z" class="color010101 svgShape"></path><path fill="#ffffff" d="M626.35 298.8a14.65 14.65 0 0 1-11.5-5.69c-2-2.58-2.77-5.44-2.14-7.86 2.59-9.94 9.32-20.24 9.39-20.34l.27-.42 24.74 5.12v.56c0 .17.93 16.34-11.21 25.25a16.06 16.06 0 0 1-9.59 3.38Z" class="colorfff svgShape"></path><path fill="#010101" d="m622.72 265.32 23.68 4.9s1.05 15.83-10.9 24.6a15.37 15.37 0 0 1-9.15 3.24c-8.12 0-14.28-7.41-12.92-12.62 2.59-9.94 9.29-20.12 9.29-20.12Zm-.69-1.66-.55.84c-.28.43-6.86 10.5-9.49 20.56-.69 2.65.14 5.74 2.27 8.51a15.39 15.39 0 0 0 12.09 6 16.76 16.76 0 0 0 10-3.52c12.47-9.15 11.55-25.21 11.51-25.89l-.07-1.13-1.11-.23-23.68-4.94-1-.2Z" class="color010101 svgShape"></path><path fill="#010101" d="M653.24 281.13c1.85 3.47-2.2 5.66-6.14 6.14a4.07 4.07 0 0 1-.63.85c0 4-3 7.76-6.92 4.68-5.81 4.62-12.88 8.37-21.19 4.62-3.63-1.64-6.39-7.52-5.4-10.54 1.25-3.8 7 .48 9.46-1.78a1.92 1.92 0 0 1 2.63.11c2.15 2.57 3.71 3.82 7.42 3.05a13.54 13.54 0 0 0 5.16-2.32c.53-2.78 2.21-5.56 3-8 .24-.69 1.08-3.62 1.85-6-9.31-1.3-21.6-3.56-25.45-11.72-3.43-7.27 2.4-11 8.66-10.05 2.85-2.1 8-1.1 9.35 2.35 2.23-1 4.84-1.66 6.56.17a3.38 3.38 0 0 1 1 2.65 4.16 4.16 0 0 1 2.32.49 5.89 5.89 0 0 1 2.55 2.68c2.83-.94 6 2.93 5.16 6.49a5.17 5.17 0 0 1 1.1 7 5.68 5.68 0 0 1-.49 9.13ZM601.8 416.73s-40.22 4.45-44.54-6.39c-4-10.16.31-22.62 5.53-36.55 4-10.77 37.69 21.76 37.69 21.76ZM621.22 394.26c2.62 3 2.41 21.42 6.47 21.74 22.64 1.9 33.74-22.57 35.83-20.3.86.9 1 6.43 1.33 8a288.15 288.15 0 0 0 7.83 33c.32 1 .68 2.33 1.15 3.45-1.19 4.6 14.16 26.49 15.34 30.11 4-.75 6.62-1.83 7.23-3.12 1.9-4.1-4.67-44-3.88-70.51.14-5.14.25-10.35.25-15.45.14-26.67-1.81-45-6.27-54.6-.73-1.57-4.44-3.87-6.2-5.06-1.51-1-3.8 7.58-5.6 6.54-12.68-3.88-20.69 6.25-31.5 12.65-11.3 6.7-36.1 37-36.46 38.13-2.59 8.02 9.41 9.7 14.48 15.42Z" class="color010101 svgShape"></path><path fill="#ffffff" d="m579.08 317.38-.71-4.28.58-1.53a6.25 6.25 0 0 1-.84-.77c-1.52-1.72-1.88-3-2.26-6.21a6.13 6.13 0 0 1 1-5.18 2.88 2.88 0 0 1 1.88-1.11c.4-1.81 1.7-3.07 2.89-3.07a1.43 1.43 0 0 1 .29 0 4.23 4.23 0 0 1 3.48-2.14 2.57 2.57 0 0 1 1.16.25 24.12 24.12 0 0 0-1.43-5.77 2.8 2.8 0 0 1 .12-2.68 1.94 1.94 0 0 1 1.65-.89 2.38 2.38 0 0 1 1.34.44c1.35.92 2.55 3.69 3.68 8.48a26 26 0 0 1 .45 10.18 2.5 2.5 0 0 1 1.4-.43 2.05 2.05 0 0 1 2.14 2c.11 1.82 0 3.72-1.57 5.21-.13.12-1.36 1.05-2.64 2 .09.47.17.89.22 1s.18.48-1.23 5l-.08.27-4.46 2.85Z" class="colorfff svgShape"></path><path fill="#010101" d="M586.94 284.77a1.63 1.63 0 0 1 .92.32c1.65 1.12 2.89 6 3.38 8 1 4.31 1.17 9.28-.59 13.39a7.62 7.62 0 0 1 1.05.16 9.82 9.82 0 0 0 .5-1.95 1.59 1.59 0 0 1 1.61-1.28 1.31 1.31 0 0 1 1.39 1.28c.11 1.73 0 3.37-1.33 4.63-.09.08-1.33 1-3 2.2.13.71.29 1.47.34 1.6s-1.24 4.53-1.24 4.53l-3.92 2.42-6.35-3.22-.61-3.7.72-1.9a5 5 0 0 1-1.19-1c-1.38-1.55-1.7-2.62-2.08-5.8-.65-3.66 1.29-5.45 2.29-5.45a.51.51 0 0 1 .53.36c0-2.05 1.32-3.43 2.26-3.43a.8.8 0 0 1 .67.34 3.43 3.43 0 0 1 3.1-2.46c.9 0 1.71.55 1.94 2 .32-2.06-.65-6.44-1.52-8.51-.59-1.4.09-2.54 1.08-2.54Zm0-1.49a2.69 2.69 0 0 0-2.27 1.23 3.58 3.58 0 0 0-.19 3.38 22.7 22.7 0 0 1 1.22 4.49h-.26a5 5 0 0 0-3.88 2.12 4.17 4.17 0 0 0-3.38 3.17 3.76 3.76 0 0 0-1.85 1.27 6.87 6.87 0 0 0-1.2 5.83c.38 3.25.79 4.68 2.42 6.53a6.38 6.38 0 0 0 .52.52l-.32.84-.15.37.07.4.61 3.71.12.74.68.34 6.35 3.22.74.37.71-.44 3.92-2.37.48-.29.16-.54c1.49-4.77 1.41-5 1.2-5.5 0-.06 0-.22-.08-.42 1-.72 2.15-1.6 2.33-1.77 1.79-1.71 1.92-3.89 1.8-5.8a2.8 2.8 0 0 0-2.88-2.68 2.59 2.59 0 0 0-.48 0 27.75 27.75 0 0 0-.64-9.21c-1.57-6.63-3-8.27-4-8.92a3.11 3.11 0 0 0-1.76-.58Z" class="color010101 svgShape"></path><path fill="#f58132" d="M595.59 416.35c-30.66-6.94-18.18-103.49-18.18-103.49l14.8 1.28c.88.73 9 71.9 17.15 69.2 3.59-1.17 29.27-46.69 44.91-56.63 7.88-5 15.91-5.88 22.38-5.77 9 .14 13.42 8.91 12 17.78-2.93 18-16.22 43.36-33.76 61.61-19.3 20.06-32.89 22.03-59.3 16.02Z" class="colorf58132 svgShape"></path><path fill="#ffffff" d="M613.83 421.42a4.06 4.06 0 0 1-2.52-.91 3 3 0 0 1-1.78.69 2.88 2.88 0 0 1-2.23-1.51 4.59 4.59 0 0 1-3.23 1.62 3.41 3.41 0 0 1-1.13-.2 3 3 0 0 1-2-2.62l-.23.17a3.12 3.12 0 0 1-1.77.59c-1.94 0-3.26-2-3.37-3.89-.1-1.69 1.58-4.75 2.48-6.13l.26-.4a8 8 0 0 1 2.8-3.06 2.84 2.84 0 0 1 1.18-.29c1.12 0 2 .81 2.41 2.33a2.7 2.7 0 0 1 2-1 3.38 3.38 0 0 1 1.72.52 4.72 4.72 0 0 1 2 2.34 4.62 4.62 0 0 1 1.07-.79 2.51 2.51 0 0 1 1.21-.33c1.82 0 2.71 2.2 2.86 3.68a6.47 6.47 0 0 1 0 1.32c1.46.34 2.16 2.07 2.24 3.33a4.32 4.32 0 0 1-1.15 3.26 4.05 4.05 0 0 1-2.91 1.28Z" class="colorfff svgShape"></path><path fill="#010101" d="M602.31 406.22c1.42 0 1.9 2.13 2 3.65.53-1.24 1.28-2.32 2.42-2.32a2.69 2.69 0 0 1 1.34.42 4.08 4.08 0 0 1 2 3.32 5.39 5.39 0 0 1 1.8-1.76 1.9 1.9 0 0 1 .86-.24c1.28 0 2 1.79 2.12 3a5.9 5.9 0 0 1-.15 2.06 1 1 0 0 1 .43-.13h.11c1.2 0 1.8 1.73 1.86 2.7a3.43 3.43 0 0 1-3.32 3.74 3.31 3.31 0 0 1-2.12-.79.68.68 0 0 1-.22-.52 3.06 3.06 0 0 1-2 1.09h-.16c-1-.11-1.49-1.17-1.85-2a.53.53 0 0 1 0-.12c-1 1.22-2.14 2.22-3.42 2.22a2.43 2.43 0 0 1-.87-.16c-1.51-.56-1.71-2.05-1.4-3.68a9 9 0 0 1-1.49 1.31 2.31 2.31 0 0 1-1.35.46c-1.44 0-2.54-1.61-2.63-3.18-.08-1.36 1.38-4.17 2.36-5.68.68-1 1.58-2.63 2.76-3.2a2.06 2.06 0 0 1 .86-.22Zm0-1.49a3.52 3.52 0 0 0-1.5.37 8.67 8.67 0 0 0-3.11 3.33l-.25.39c-.12.17-2.75 4.23-2.61 6.59.14 2.2 1.75 4.58 4.12 4.58a3.54 3.54 0 0 0 1.52-.34 3.61 3.61 0 0 0 2.21 2.16 4.06 4.06 0 0 0 1.38.25 4.88 4.88 0 0 0 3.11-1.25 3 3 0 0 0 2 1.11 2 2 0 0 0 .34 0 3.47 3.47 0 0 0 1.77-.52 4.7 4.7 0 0 0 6-.77 5 5 0 0 0 1.35-3.81c-.08-1.29-.75-3.19-2.21-3.85a5.77 5.77 0 0 0 0-.84c-.22-2.16-1.53-4.34-3.6-4.34a3.27 3.27 0 0 0-1.57.42 3.14 3.14 0 0 0-.46.28 5.47 5.47 0 0 0-1.88-1.82 4.13 4.13 0 0 0-2.1-.63 3.16 3.16 0 0 0-1.74.51 3 3 0 0 0-2.72-1.84Z" class="color010101 svgShape"></path><path fill="#ffffff" d="M575.74 77.05H372.28a19.55 19.55 0 0 0-19.49 19.49v115.38a19.55 19.55 0 0 0 19.49 19.49h109.48l102 33.91-38.5-33.91h30.49a19.55 19.55 0 0 0 19.49-19.49V96.54a19.55 19.55 0 0 0-19.5-19.49Z" class="colorfff svgShape"></path><path fill="#010101" d="m586.79 267.07-105.14-35H372.28a20.21 20.21 0 0 1-20.19-20.19V96.54a20.22 20.22 0 0 1 20.19-20.19h203.46a20.21 20.21 0 0 1 20.19 20.19v115.38a20.2 20.2 0 0 1-20.19 20.19H547.1ZM372.28 77.75a18.81 18.81 0 0 0-18.79 18.79v115.38a18.81 18.81 0 0 0 18.79 18.8h109.7l98.72 32.82-37.3-32.85h32.34a18.81 18.81 0 0 0 18.79-18.8V96.54a18.81 18.81 0 0 0-18.79-18.79Z" class="color010101 svgShape"></path><path fill="#010101" d="M423.26 126.49V99.16h8.86a31.57 31.57 0 0 1 6.56.41 7.19 7.19 0 0 1 3.94 2.67 8.55 8.55 0 0 1 1.58 5.33 8.88 8.88 0 0 1-.91 4.23 7.6 7.6 0 0 1-2.32 2.7 8.08 8.08 0 0 1-2.86 1.29 31.71 31.71 0 0 1-5.73.39h-3.6v10.31Zm5.52-22.71v7.76h3a14.19 14.19 0 0 0 4.37-.43 3.6 3.6 0 0 0 2.35-3.47 3.56 3.56 0 0 0-.88-2.46 3.82 3.82 0 0 0-2.22-1.21 27 27 0 0 0-4-.19ZM470.55 126.49h-6l-2.39-6.21h-10.93l-2.23 6.21h-5.86l10.65-27.33h5.83Zm-10.16-10.81-3.77-10.14-3.69 10.14ZM486.2 116.44v-4.6h11.89v10.89a14.88 14.88 0 0 1-5 3 18.37 18.37 0 0 1-6.69 1.27 15 15 0 0 1-7.48-1.8 11.44 11.44 0 0 1-4.79-5.15 16.58 16.58 0 0 1-1.6-7.28 15.7 15.7 0 0 1 1.79-7.59 12 12 0 0 1 5.24-5.09 14.08 14.08 0 0 1 6.54-1.36q5.1 0 7.95 2.14a9.65 9.65 0 0 1 3.69 5.9l-5.48 1a5.81 5.81 0 0 0-2.18-3.18 6.6 6.6 0 0 0-4-1.16 7.47 7.47 0 0 0-5.75 2.29c-1.42 1.53-2.14 3.8-2.14 6.81 0 3.24.73 5.68 2.17 7.3a7.22 7.22 0 0 0 5.67 2.43 9.35 9.35 0 0 0 3.47-.68 11.73 11.73 0 0 0 3-1.65v-3.47ZM503.18 126.49V99.16h20.27v4.62H508.7v6.06h13.73v4.61H508.7v7.44H524v4.6ZM435.71 169.31V142h5.37l11.19 18.25V142h5.13v27.33h-5.54l-11-17.82v17.82ZM462.11 155.81a17.45 17.45 0 0 1 1.25-7 12.85 12.85 0 0 1 2.55-3.75 10.75 10.75 0 0 1 3.53-2.46 15 15 0 0 1 5.89-1.08 12.83 12.83 0 0 1 9.67 3.75q3.63 3.75 3.63 10.42T485 166a12.75 12.75 0 0 1-9.62 3.74q-6.11 0-9.7-3.72t-3.57-10.21Zm5.69-.18q0 4.63 2.15 7a7.38 7.38 0 0 0 10.86 0q2.12-2.38 2.11-7.14c0-3.13-.68-5.47-2.06-7a7.63 7.63 0 0 0-11 0q-2.05 2.42-2.06 7.14ZM499.09 169.31V146.6H491V142h21.7v4.62h-8.09v22.71ZM413.42 212.13V184.8h18.74v4.62h-13.22v6.47h11.41v4.63h-11.41v11.61ZM435.59 198.63a17.28 17.28 0 0 1 1.25-7 13 13 0 0 1 2.54-3.75 10.89 10.89 0 0 1 3.54-2.46 15 15 0 0 1 5.89-1.08 12.83 12.83 0 0 1 9.67 3.75q3.63 3.75 3.62 10.42t-3.6 10.36a14.36 14.36 0 0 1-19.31 0q-3.6-3.71-3.6-10.24Zm5.69-.18q0 4.63 2.14 7a7.38 7.38 0 0 0 10.86 0q2.12-2.38 2.12-7.14t-2.06-7a7.64 7.64 0 0 0-11 0q-2.06 2.42-2.06 7.14ZM466.37 184.8h5.52v14.8a30 30 0 0 0 .21 4.57 4.41 4.41 0 0 0 1.69 2.7 5.92 5.92 0 0 0 3.64 1 5.54 5.54 0 0 0 3.54-1 3.76 3.76 0 0 0 1.44-2.36 31 31 0 0 0 .24-4.64V184.8h5.52v14.36a37.72 37.72 0 0 1-.44 7 7.6 7.6 0 0 1-1.66 3.43 8.31 8.31 0 0 1-3.21 2.23 14.07 14.07 0 0 1-5.26.83 15.22 15.22 0 0 1-5.94-.9 8.66 8.66 0 0 1-3.2-2.35 7.53 7.53 0 0 1-1.54-3 32.48 32.48 0 0 1-.55-6.94ZM494.05 212.13V184.8h5.37l11.19 18.25V184.8h5.12v27.33h-5.54l-11-17.82v17.82ZM521.55 184.8h10.09a19.62 19.62 0 0 1 5.2.52 9.09 9.09 0 0 1 4.12 2.52 11.7 11.7 0 0 1 2.61 4.43 20 20 0 0 1 .9 6.46 17.86 17.86 0 0 1-.84 5.81 12 12 0 0 1-2.93 4.83 9.73 9.73 0 0 1-3.88 2.19 16.88 16.88 0 0 1-4.88.57h-10.39Zm5.52 4.62v18.11h4.12a15.38 15.38 0 0 0 3.34-.26 5.14 5.14 0 0 0 2.23-1.14 5.72 5.72 0 0 0 1.44-2.64 17.91 17.91 0 0 0 .56-5 16.38 16.38 0 0 0-.56-4.86 6.22 6.22 0 0 0-1.56-2.65 5.41 5.41 0 0 0-2.56-1.29 25.43 25.43 0 0 0-4.53-.26Z" class="color010101 svgShape"></path></svg></g></svg>