<?xml version="1.0" standalone="no"?>
<!DOCTYPE svg PUBLIC "-//W3C//DTD SVG 20010904//EN"
 "http://www.w3.org/TR/2001/REC-SVG-20010904/DTD/svg10.dtd">
<svg version="1.0" xmlns="http://www.w3.org/2000/svg"
 width="20px" height="16px" viewBox="0 0 512.000000 512.000000"
 preserveAspectRatio="xMidYMid meet">

<g transform="translate(0.000000,512.000000) scale(0.100000,-0.100000)"
fill="#797371" stroke="none">
<path d="M2457 4999 c-173 -22 -317 -97 -452 -233 -147 -148 -213 -299 -222
-506 -7 -169 30 -317 114 -449 19 -29 33 -55 31 -57 -2 -1 -42 -17 -88 -34
-300 -111 -504 -294 -585 -527 l-24 -67 -76 -18 c-156 -37 -315 -138 -418
-267 -206 -258 -231 -616 -62 -890 38 -62 42 -73 27 -77 -330 -102 -565 -293
-656 -535 -41 -111 -48 -188 -44 -549 3 -323 4 -337 26 -392 44 -108 161 -212
293 -260 l64 -23 955 0 955 0 73 24 c39 13 100 43 133 66 l62 43 50 -38 c65
-50 143 -79 242 -91 49 -6 433 -9 980 -7 l900 3 65 23 c88 32 149 72 214 143
98 105 100 118 104 509 4 361 -3 438 -44 549 -69 182 -221 339 -429 443 -60
30 -169 74 -227 92 -15 4 -11 15 26 75 135 220 149 499 36 737 -102 214 -292
369 -518 423 l-73 17 -24 67 c-82 234 -270 405 -580 524 -49 19 -91 36 -93 38
-2 2 12 27 31 56 84 132 121 280 114 449 -9 198 -74 352 -210 496 -132 140
-290 220 -477 243 -94 12 -97 12 -193 0z m238 -271 c121 -30 262 -141 323
-255 201 -378 -115 -830 -535 -765 -422 66 -591 582 -290 883 130 130 321 182
502 137z m-453 -1217 c109 -50 181 -65 313 -65 135 -1 192 10 313 61 l83 35
92 -22 c243 -59 418 -161 518 -304 60 -85 62 -101 12 -111 -85 -16 -217 -85
-310 -163 -55 -46 -131 -141 -172 -213 -67 -119 -111 -311 -97 -426 l6 -53
-440 0 -440 0 6 53 c14 115 -30 307 -97 426 -41 72 -117 167 -172 213 -93 78
-225 147 -310 163 -45 9 -46 21 -10 83 61 104 198 209 355 274 69 28 235 76
269 77 9 1 45 -12 81 -28z m-761 -657 c195 -58 333 -205 374 -399 18 -87 18
-122 0 -208 -51 -243 -264 -417 -510 -417 -244 0 -460 175 -510 415 -18 88
-18 122 0 210 40 191 171 333 365 396 71 23 208 25 281 3z m2430 0 c195 -58
333 -205 374 -399 18 -87 18 -122 0 -208 -51 -243 -264 -417 -510 -417 -244 0
-460 175 -510 415 -18 88 -18 122 0 210 40 191 171 333 365 396 71 23 208 25
281 3z m-799 -916 c18 -29 32 -55 31 -57 -1 -2 -28 -13 -60 -23 -87 -29 -232
-100 -304 -148 -35 -24 -99 -79 -141 -122 l-78 -79 -77 79 c-43 43 -107 98
-142 122 -72 48 -217 119 -304 148 -32 10 -58 22 -58 26 0 4 13 29 30 56 l31
50 520 0 520 0 32 -52z m-2091 -298 c110 -51 180 -65 324 -65 144 0 214 14
324 65 l64 30 81 -19 c274 -65 491 -204 568 -361 44 -92 49 -148 46 -485 -3
-307 -3 -310 -26 -343 -13 -18 -47 -45 -75 -60 l-52 -27 -930 0 -930 0 -52 27
c-28 15 -62 42 -75 60 -23 33 -23 36 -26 348 -2 216 0 332 8 370 47 216 254
381 585 465 50 13 93 24 96 24 4 1 35 -12 70 -29z m2430 0 c110 -51 180 -65
324 -65 144 0 214 14 324 65 l64 30 81 -19 c274 -65 491 -204 568 -361 44 -92
49 -148 46 -485 -3 -307 -3 -310 -26 -343 -13 -18 -47 -45 -75 -60 l-52 -27
-930 0 -930 0 -52 27 c-28 15 -62 42 -75 60 -23 33 -23 36 -26 348 -2 216 0
332 8 370 47 216 254 381 585 465 50 13 93 24 96 24 4 1 35 -12 70 -29z"/>
</g>
</svg>
