<svg width="20" height="20" viewBox="0 0 50 50" fill="none" xmlns="http://www.w3.org/2000/svg">
<path d="M22.9166 12.2542V40.0833C22.9159 40.9468 22.6106 41.7824 22.0544 42.4428C21.4981 43.1032 20.7266 43.5462 19.8758 43.6936C19.025 43.841 18.1495 43.6834 17.4035 43.2486C16.6575 42.8138 16.0889 42.1296 15.7978 41.3167L11.3249 28.5042M11.3249 28.5042C9.55659 27.7523 8.10236 26.4147 7.20829 24.7139C6.31421 23.0131 6.03522 21.0556 6.41851 19.1727C6.8018 17.2898 7.82384 15.5972 9.31166 14.3812C10.7995 13.1653 12.6617 12.5007 14.5832 12.5H18.3999C26.9416 12.5 34.2853 9.92917 37.4999 6.25V35.4167C34.2853 31.7375 26.9436 29.1667 18.3999 29.1667H14.5832C13.4637 29.1683 12.3554 28.9416 11.3249 28.5042ZM37.4999 27.0833C39.1575 27.0833 40.7472 26.4249 41.9193 25.2528C43.0914 24.0807 43.7499 22.4909 43.7499 20.8333C43.7499 19.1757 43.0914 17.586 41.9193 16.4139C40.7472 15.2418 39.1575 14.5833 37.4999 14.5833V27.0833Z" stroke="#FF5B37" stroke-width="2" stroke-linecap="round" stroke-linejoin="round"/>
</svg>
