<svg width="16" height="16" viewBox="0 0 50 50" fill="none" xmlns="http://www.w3.org/2000/svg" stroke="current">
<path d="M29.1667 20.8333H39.0917C39.8018 20.8334 40.5002 21.0149 41.1204 21.3607C41.7407 21.7065 42.2623 22.205 42.6357 22.8091C43.0091 23.4131 43.2219 24.1026 43.2539 24.812C43.286 25.5214 43.1362 26.2273 42.8187 26.8625L35.5271 41.4458C35.181 42.1385 34.6487 42.721 33.99 43.128C33.3313 43.535 32.5722 43.7504 31.7979 43.75H23.4292C23.0896 43.75 22.75 43.7083 22.4187 43.625L14.5833 41.6667M29.1667 20.8333V10.4167C29.1667 9.3116 28.7277 8.25179 27.9463 7.47039C27.1649 6.68899 26.1051 6.25 25 6.25H24.8021C23.7604 6.25 22.9167 7.09375 22.9167 8.13542C22.9167 9.62292 22.4771 11.0771 21.65 12.3146L14.5833 22.9167V41.6667M29.1667 20.8333H25M14.5833 41.6667H10.4167C9.3116 41.6667 8.25179 41.2277 7.47039 40.4463C6.68899 39.6649 6.25 38.6051 6.25 37.5V25C6.25 23.8949 6.68899 22.8351 7.47039 22.0537C8.25179 21.2723 9.3116 20.8333 10.4167 20.8333H15.625" stroke-width="2" stroke-linecap="round" stroke-linejoin="round"/>
</svg>
