<svg xmlns="http://www.w3.org/2000/svg" viewBox="0 0 200.49 200.49" width="40" height="40"><path fill="#474549" d="M126.13,143.44c0-7.06,0-14.11,0-21.16,0-4.86.65-9.22,4-13.29s.68-9.29,1.57-13.89c1.16-6-2.56-7.95-7-10.41-9.65-5.37-14.64-14.06-14.86-25.14-.22-10.69,0-21.38-.07-32.08,0-5.56,2.16-9.53,8.17-9.52s8.12,4,8.12,9.57c0,8.19.07,16.38.1,24.57,0,2.12-.13,4.2,3.05,4,2.83-.19,2.38-2.24,2.39-4q.08-12.28,0-24.57c0-5.56,2.11-9.54,8.11-9.59s8.15,4,8.17,9.52c0,8.19.08,16.38.11,24.57,0,2.09-.17,4.23,3,4,2.82-.17,2.41-2.21,2.41-3.94,0-8.19,0-16.38,0-24.56,0-5.53,2.13-9.55,8.11-9.63s8.21,3.95,8.22,9.47c0,10.69.25,21.39-.06,32.08-.35,12.17-6.16,21.27-17.22,26.45-3.47,1.63-4.76,3.45-4.51,7.16.45,6.84-1.63,14,4,20,1.8,1.9,1.38,5.18,1.38,7.92,0,15,.08,30,0,45.05-.07,9.88-5.56,15.91-14,15.71-8-.19-13.11-6.25-13.18-15.77-.06-7.51,0-15,0-22.52Z"/><path fill="#46474b" d="M49.63,142.89c0-7.28,0-14.56,0-21.84,0-4.2.69-8,3.57-11.41,3.66-4.29,1.12-9.64,1.9-14.44.88-5.5-1.76-8.1-6.39-11C28.48,71.48,28.11,36.82,47.63,23,65,10.72,87.54,21.43,92.44,44.28c3.72,17.34-2.71,32.5-17.89,42-1.37.85-3.12,1.42-2.88,3.35.88,7.39-3,15.42,3.22,22.13,2.08,2.25,2,5.5,2,8.46,0,15.24.14,30.49,0,45.73C76.79,176,71.45,181.86,63,181.73c-8-.11-13.14-6-13.29-15.64-.13-7.73,0-15.47,0-23.2Z"/><path fill="#fbd380" d="M164.84,44.32c-.32,6.13-.24,12.3-1,18.37C162.26,74.32,152,83.08,140.27,83.4c-11.55.31-22.54-8.17-24.41-19.7-1.94-11.94-.53-24.06-.72-36.1,0-1.85.42-4.1,2.71-4,2.61.08,2.92,2.52,2.94,4.61.07,8.87.14,17.74,0,26.62,0,4.08.32,7.48,5.74,6.72,4.33-.6,10.8,2.65,10.5-6.17-.27-7.72-.3-15.46-.06-23.18.09-3-1.82-8.28,2.9-8.34,4-.05,2.68,5,2.75,8,.17,8,.35,15.94,0,23.89-.31,6.57,3.83,5.94,8,5.88s8.41.93,8.18-5.74c-.33-9.09-.1-18.19,0-27.29,0-2-.11-4.72,2.52-4.88,3.18-.19,3.13,2.74,3.17,5,.11,5.23,0,10.47,0,15.7Z"/><path fill="#51d9d9" d="M139.18,176c-5.28-.56-7.29-3.85-7.3-8.77V119.81c0-5,2.17-8.1,7.3-8.8,3.38,1.86,3.38,5.17,3.4,8.33q.18,24.16,0,48.34C142.54,170.81,142.71,174.19,139.18,176Z"/><path fill="#74dfe1" d="M139.18,176a329.35,329.35,0,0,0,0-64.95c6.34.44,9,4.1,9,10.18,0,14.9.06,29.8,0,44.69C148.14,171.73,145.94,176,139.18,176Z"/><path fill="#debf83" d="M142.83,97.16c0,1.8,0,3.59,0,5.39s-1.05,2.75-3,2.79c-2.36,0-3.13-1.2-3.11-3.34,0-3.14,0-6.28,0-9.43,0-2.32.49-3.92,3.35-3.79,2.56.12,2.78,1.74,2.78,3.67v4.71Z"/><path fill="#fdd37f" d="M65.28,83.05c-3,.88-5.84-.14-8.64-1-12.58-4-20.23-20.12-17.15-36.12C42.11,32.25,52.8,23,65.27,23.67c11.55,12.11,15.78,26,11,42.47C74.34,73,69.65,77.86,65.28,83.05Z"/><path fill="#fbbf69" d="M65.28,83.05c-.86-1.35-.47-2.34.53-3.58C80,62.05,80.35,46.82,67.25,28.72c-1.08-1.5-3.62-2.47-2-5,13.52,2.43,22.13,13.56,22.41,29C88,68.67,79.63,80,65.28,83.05Z"/><path fill="#51d8d8" d="M62.69,176c-5.29-.55-7.27-3.86-7.27-8.78q0-23.68,0-47.37c0-5,2.17-8.1,7.31-8.79,3.35,1.86,3.36,5.16,3.39,8.33q.16,24.15,0,48.3C66.07,170.79,66.09,174.11,62.69,176Z"/><path fill="#74dfe0" d="M62.69,176a332.34,332.34,0,0,0,0-64.94c6.41.47,9,4.23,9,10.33q0,22.17,0,44.35C71.71,171.74,69.19,175.6,62.69,176Z"/><path fill="#ddbf83" d="M66.38,97.1c-1.48,2.21,2.92,8-3.07,8-5.79,0-2.05-5.58-3-8.53-.4-1.22-.07-2.67-.06-4,0-1.88.13-3.58,2.73-3.72,2.81-.14,3.48,1.36,3.39,3.74C66.34,93.86,66.38,95.21,66.38,97.1Z"/><path fill="#4f4842" d="M44.4,50.85c.27-10,6.92-19.56,15.06-21.62,2.09-.52,4.85-1.6,5.91,1.29,1.2,3.27-1.61,3.24-3.82,4-8,2.61-10.76,9-11.68,16.72-.24,1.93-.06,4.66-2.87,4.6C43.51,55.73,44.74,52.63,44.4,50.85Z"/></svg>