<svg xmlns="http://www.w3.org/2000/svg" viewBox="0 0 64 64"><g data-name="Layer 31"><circle cx="32" cy="32" r="31" fill="#d6e4e8"/><circle cx="32" cy="32" r="27" fill="#f8c460"/><path fill="#faaf42" d="M25 29a2 2 0 0 0-2 2v3a2 2 0 0 1-4 0v-3a2 2 0 0 0-4 0v3a6 6 0 0 0 12 0v-3a2 2 0 0 0-2-2Z"/><path fill="#faaf42" d="M19 27v-3l-2 2-2-2v3a2 2 0 0 0 4 0zm27-13a4.406 4.406 0 0 0-4-4 4.406 4.406 0 0 0-4 4c0 1.108.809 1.621 2 1.845V20a2 2 0 0 0 4 0v-4.155c1.191-.224 2-.737 2-1.845z"/><circle cx="26" cy="17" r="9" fill="#faaf42"/><path fill="#faaf42" d="M11.3 37.476c.684-1 .893-1.935.11-2.719a4.408 4.408 0 0 0-5.657 0 3.222 3.222 0 0 0-.527.714 26.789 26.789 0 0 0 1.263 5.382 2.433 2.433 0 0 0 1.987-.553l2.938 2.939a2 2 0 1 0 2.829-2.829zm16.972 16.156a2 2 0 1 1-2.828-2.832 3 3 0 0 0-4.244-4.239 8 8 0 0 0-1.315 9.567 26.859 26.859 0 0 0 11.241 2.85 7.993 7.993 0 0 0 1.388-1.1l7.779-7.778-4.243-4.246z"/><path fill="#faaf42" d="M25.444 46.561a3 3 0 0 1 0-4.243l2.828-2.828.707 3.535 3.536.707-2.829 2.829a3 3 0 0 1-4.242 0zM38.172 40.9a8 8 0 0 0 0 11.314L49.485 40.9a8 8 0 0 0-11.313 0z"/><path fill="#f98658" d="M23.2 56.874a8 8 0 0 1 0-11.313 3 3 0 0 1 4.243 0 3 3 0 0 1 0 4.242 2 2 0 0 0 0 2.829 2 2 0 0 0 2.828 0l7.778-7.778 4.244 4.246-7.778 7.778a8 8 0 0 1-11.315-.004Z"/><path fill="#f98658" d="M27.444 45.561a3 3 0 0 1 0-4.243l2.828-2.828.707 3.535 3.536.707-2.829 2.829a3 3 0 0 1-4.242 0zM40.172 39.9a8 8 0 0 0 0 11.314L51.485 39.9a8 8 0 0 0-11.313 0z"/><path fill="#c67a60" d="M8.171 37 11 34.17l4.242 4.243a2 2 0 0 1 0 2.828 2 2 0 0 1-2.828 0L8.171 37Z"/><path fill="#c67a60" d="M12.414 32.757c1.172 1.172.148 2.681-1.414 4.243s-3.071 2.586-4.243 1.414a4.408 4.408 0 0 1 0-5.657 4.408 4.408 0 0 1 5.657 0zM42 13h4v6a2 2 0 0 1-2 2 2 2 0 0 1-2-2v-6z"/><path fill="#c67a60" d="M48 13c0 1.657-1.791 2-4 2s-4-.343-4-2a4.406 4.406 0 0 1 4-4 4.406 4.406 0 0 1 4 4Z"/><circle cx="28" cy="15" r="9" fill="#f98658"/><path fill="#ed744a" d="M23.761 12.553a.991.991 0 0 0-1.434.5 5.954 5.954 0 0 0 0 3.892.991.991 0 0 0 1.434.5L28 15Z"/><path fill="#ed744a" d="M26.774 9.126a5.988 5.988 0 0 0-3.291 1.933.992.992 0 0 0 .281 1.5L28 15v-4.895a1.009 1.009 0 0 0-1.226-.979zm5.743 1.933a5.988 5.988 0 0 0-3.291-1.933 1.009 1.009 0 0 0-1.226.979V15l4.236-2.446a.992.992 0 0 0 .281-1.495zm-9.034 7.882a5.988 5.988 0 0 0 3.291 1.933A1.009 1.009 0 0 0 28 19.9V15l-4.236 2.446a.992.992 0 0 0-.281 1.495zm5.743 1.933a5.988 5.988 0 0 0 3.291-1.933.992.992 0 0 0-.281-1.495L28 15v4.9a1.009 1.009 0 0 0 1.226.974z"/><path fill="#ed744a" d="M32.239 12.553 28 15l4.239 2.447a.991.991 0 0 0 1.434-.5 5.954 5.954 0 0 0 0-3.892.991.991 0 0 0-1.434-.502Z"/><path fill="#faaf42" d="M52 29a6.237 6.237 0 0 1 1.414 4.243 6.232 6.232 0 0 1-4.242-1.415 6.232 6.232 0 0 1-1.415-4.242A6.237 6.237 0 0 1 52 29Z"/><path fill="#6dbc53" d="M53.414 27.586a6.235 6.235 0 0 1 1.414 4.242 6.235 6.235 0 0 1-4.242-1.414 6.235 6.235 0 0 1-1.414-4.242 6.235 6.235 0 0 1 4.242 1.414Z"/><path fill="#faaf42" d="M48.414 52.414a6.235 6.235 0 0 1-4.242 1.414 6.235 6.235 0 0 1 1.414-4.242 6.235 6.235 0 0 1 4.242-1.414 6.235 6.235 0 0 1-1.414 4.242Z"/><path fill="#6dbc53" d="M50.414 51.414a6.235 6.235 0 0 1-4.242 1.414 6.235 6.235 0 0 1 1.414-4.242 6.235 6.235 0 0 1 4.242-1.414 6.235 6.235 0 0 1-1.414 4.242Z"/><path fill="#faaf42" d="M13.93 22.177a6.235 6.235 0 0 1-4.242 1.414 6.235 6.235 0 0 1 1.412-4.242 6.238 6.238 0 0 1 4.242-1.415 6.237 6.237 0 0 1-1.412 4.243Z"/><path fill="#6dbc53" d="M15.414 20.414a6.235 6.235 0 0 1-4.242 1.414 6.235 6.235 0 0 1 1.414-4.242 6.235 6.235 0 0 1 4.242-1.414 6.235 6.235 0 0 1-1.414 4.242zm.172 24.172a6.235 6.235 0 0 1 4.242-1.414 6.235 6.235 0 0 1-1.414 4.242 6.235 6.235 0 0 1-4.242 1.414 6.235 6.235 0 0 1 1.414-4.242z"/><path fill="#faaf42" d="m8 27 2 1h2.5a1.5 1.5 0 0 1 1.5 1.5 1.5 1.5 0 0 1-1.5 1.5H12a4 4 0 0 1-4-4Z"/><path fill="#f96464" d="m9 25 2 1h2.5a1.5 1.5 0 0 1 1.5 1.5 1.5 1.5 0 0 1-1.5 1.5H13a4 4 0 0 1-4-4Z"/><path fill="#faaf42" d="M37 21a6 6 0 0 1 6 6v3a2 2 0 0 1-2 2 2 2 0 0 1-2-2v-3a2 2 0 0 0-2-2 2 2 0 0 0-2 2v3a2 2 0 0 1-2 2 2 2 0 0 1-2-2v-3a6 6 0 0 1 6-6zm4 11a2 2 0 0 1 2 2v3l-2-2-2 2v-3a2 2 0 0 1 2-2zm-3.464 3.293L35.414 36l-1.768 1.768a1.5 1.5 0 0 1-2.121 0 1.5 1.5 0 0 1 0-2.122l.354-.353a4 4 0 0 1 5.657 0z"/><path fill="#f96464" d="M38.536 34.293 36.414 35l-1.768 1.768a1.5 1.5 0 0 1-2.121 0 1.5 1.5 0 0 1 0-2.122l.354-.353a4 4 0 0 1 5.657 0Z"/><path fill="#faaf42" d="M54.536 21.293 52.414 22l-1.768 1.768a1.5 1.5 0 0 1-2.121 0 1.5 1.5 0 0 1 0-2.122l.354-.353a4 4 0 0 1 5.657 0Z"/><path fill="#f96464" d="M55.536 20.293 53.414 21l-1.768 1.768a1.5 1.5 0 0 1-2.121 0 1.5 1.5 0 0 1 0-2.122l.354-.353a4 4 0 0 1 5.657 0Z"/><path fill="#f98658" d="M23 38a6 6 0 0 1-6-6v-3a2 2 0 0 1 2-2 2 2 0 0 1 2 2v3a2 2 0 0 0 2 2 2 2 0 0 0 2-2v-3a2 2 0 0 1 2-2 2 2 0 0 1 2 2v3a6 6 0 0 1-6 6zm-4-11a2 2 0 0 1-2-2v-3l2 2 2-2v3a2 2 0 0 1-2 2zm20-8a6 6 0 0 1 6 6v3a2 2 0 0 1-2 2 2 2 0 0 1-2-2v-3a2 2 0 0 0-2-2 2 2 0 0 0-2 2v3a2 2 0 0 1-2 2 2 2 0 0 1-2-2v-3a6 6 0 0 1 6-6zm4 11a2 2 0 0 1 2 2v3l-2-2-2 2v-3a2 2 0 0 1 2-2z"/><path d="M49.549 5.237a1 1 0 1 0-1.1 1.672 29.855 29.855 0 1 1-3.869-2.152 1 1 0 0 0 .84-1.816 32.048 32.048 0 1 0 4.129 2.3Z"/><path d="M4 32A28 28 0 1 0 32 4 28.032 28.032 0 0 0 4 32Zm7.707 5.707q.38-.38.687-.727l2.142 2.141a1 1 0 1 1-1.415 1.415L10.98 38.4c.232-.211.474-.439.727-.693Zm.1-3.365a7.027 7.027 0 0 1-1.519 1.951 7.027 7.027 0 0 1-1.951 1.519c-.5.212-.694.079-.878-.1a3.41 3.41 0 0 1 0-4.243 2.864 2.864 0 0 1 2.044-.743 3.278 3.278 0 0 1 2.2.743c.187.178.321.371.109.873Zm10.051 16.876a6.958 6.958 0 0 1 .865-3.371l3.358 2.238A3 3 0 0 0 25.9 51.6h-4.02c-.01-.13-.022-.255-.022-.382Zm5.707-7.779a1.986 1.986 0 0 1 .586-1.414l1.507-1.507.341 1.7a1 1 0 0 0 .784.784l1.7.341-1.507 1.508a2.049 2.049 0 0 1-2.828 0 1.987 1.987 0 0 1-.583-1.412Zm9.44 3.874a8.931 8.931 0 0 0 1.795 3.863l-1.456 1.456-2.829-2.832Zm19.43-6.7c.022.022.052.03.076.05a25.965 25.965 0 0 1-3.682 6.884c.006-.243 0-.4 0-.428a1 1 0 0 0-.944-.944 7.224 7.224 0 0 0-5 1.706 7.22 7.22 0 0 0-1.706 5 1 1 0 0 0 .932.941 25.822 25.822 0 0 1-11.171 4.007c.092-.085.193-.159.282-.247l16.97-16.971a3 3 0 0 1 4.243 0Zm-9.206 11.16a3.637 3.637 0 0 1 3.542-3.542 3.637 3.637 0 0 1-3.542 3.542Zm2.792-11.817-9.8 9.8a7 7 0 0 1 9.8-9.8ZM33.1 51.217l2.828 2.829-2.113 2.114-2.263-3.394Zm-3.139 2.769 2.245 3.368a6.951 6.951 0 0 1-1.488.613 25.782 25.782 0 0 1-2.309-.221v-3.6a3.146 3.146 0 0 0 1.553-.16Zm-2.781-5.571-3.249-2.167a2 2 0 0 1 3.249 2.167Zm-2.264 8.59a7.068 7.068 0 0 1-1.009-.838A6.951 6.951 0 0 1 22.28 53.6h4.129v3.791c-.5-.11-.994-.236-1.483-.374Zm29.2-38.656a4.983 4.983 0 0 0-4.943 1.236l-.355.354a2.5 2.5 0 0 0 3.537 3.536l1.6-1.6 1.731-.577a25.936 25.936 0 0 1 1.457 17.322 5.005 5.005 0 0 0-5.621-.029 8.92 8.92 0 0 0-.908-.645l1.578-1.578a2 2 0 0 1 2.829 0 1 1 0 0 0 1.414-1.414 4.006 4.006 0 0 0-5.657 0l-2.085 2.086a8.975 8.975 0 0 0-11.806 7.56l-7.322 7.322a1 1 0 1 1-1.414-1.415 3.973 3.973 0 0 0 1.144-3.1c.09.006.178.026.27.026a3.978 3.978 0 0 0 2.829-1.171l2.828-2.829a1 1 0 0 0-.511-1.687l-2.882-.577-.577-2.882a1 1 0 0 0-1.687-.51l-2.828 2.828a3.971 3.971 0 0 0-1.172 2.828c0 .092.02.18.026.271a3.97 3.97 0 0 0-3.1 1.144 9 9 0 0 0-1.535 10.678A26.129 26.129 0 0 1 7.2 39.807a2.5 2.5 0 0 0 .7.111 3.126 3.126 0 0 0 1.223-.265c.061-.026.127-.067.19-.1l2.394 2.4a3 3 0 1 0 4.243-4.243l-2.395-2.394c.031-.063.072-.128.1-.19a2.647 2.647 0 0 0-.532-3.073 5.42 5.42 0 0 0-7.071 0c-.018.019-.029.042-.047.061v-.111A26.021 26.021 0 0 1 20.1 8.9a9.953 9.953 0 0 0 .166 12.427L19 22.586l-1.293-1.293A1 1 0 0 0 16 22v3a2.981 2.981 0 0 0 .78 2 2.981 2.981 0 0 0-.78 2v3a7 7 0 0 0 14 0v-3a3 3 0 0 0-6 0v3a1 1 0 0 1-2 0v-3a2.981 2.981 0 0 0-.78-2 2.981 2.981 0 0 0 .78-2v-2.019a9.961 9.961 0 0 0 8.221 1.771 1 1 0 0 0-.442-1.95 8 8 0 1 1 6.172-6.913 1 1 0 1 0 1.987.222 9.979 9.979 0 0 0-5.589-10.1 25.831 25.831 0 0 1 10.227 2.246A5.555 5.555 0 0 0 39 13a2.641 2.641 0 0 0 2 2.611V17a1 1 0 0 0 2 0v-1.025c.4.024.752.025 1 .025s.6 0 1-.025V19a1 1 0 0 0 2 0v-3.389A2.641 2.641 0 0 0 49 13a3.68 3.68 0 0 0-.078-.715 26.184 26.184 0 0 1 5.193 6.064Zm-1.2 1.781a1.013 1.013 0 0 0-.213.163l-1.768 1.768a.5.5 0 0 1-.708-.707l.359-.354a2.99 2.99 0 0 1 2.122-.877c.07 0 .142.002.212.007ZM18 25v-.586l.293.293a1 1 0 0 0 1.414 0l.293-.293V25a1 1 0 0 1-2 0Zm2 4v1h-2v-1a1 1 0 0 1 2 0Zm0 3a2.972 2.972 0 0 0 .692 1.894l-1.4 1.4a.163.163 0 0 0-.011.017A4.959 4.959 0 0 1 18 32Zm2.468 2.946a2.648 2.648 0 0 0 1.064 0l1.573 1.573a4.847 4.847 0 0 1-4.21 0Zm4.25.364a.163.163 0 0 0-.011-.017l-1.4-1.4A2.972 2.972 0 0 0 26 32h2a4.959 4.959 0 0 1-1.282 3.31ZM28 30h-2v-1a1 1 0 0 1 2 0Zm16-16c-3 0-3-.7-3-1a3.409 3.409 0 0 1 3-3 3.409 3.409 0 0 1 3 3c0 .3 0 1-3 1Z"/><path d="M44.379 39.869a1 1 0 1 0 1.414 0 1 1 0 0 0-1.414 0zM33.736 18.315a1.927 1.927 0 0 0 .883-1.042 6.962 6.962 0 0 0 0-4.546 1.922 1.922 0 0 0-.882-1.042 1.923 1.923 0 0 0-.465-1.284 7.037 7.037 0 0 0-3.842-2.255 2.032 2.032 0 0 0-1.43.241 2.024 2.024 0 0 0-1.429-.241 7.038 7.038 0 0 0-3.842 2.254 1.923 1.923 0 0 0-.465 1.284 1.927 1.927 0 0 0-.883 1.042 6.962 6.962 0 0 0 0 4.546 1.922 1.922 0 0 0 .882 1.042 1.923 1.923 0 0 0 .465 1.284 7.037 7.037 0 0 0 3.842 2.255 2.118 2.118 0 0 0 .418.043A2.018 2.018 0 0 0 28 21.623a2.018 2.018 0 0 0 1.011.274 2.118 2.118 0 0 0 .418-.043 7.038 7.038 0 0 0 3.842-2.254 1.923 1.923 0 0 0 .465-1.285zm-1-4.9A4.936 4.936 0 0 1 33 15a4.81 4.81 0 0 1-.261 1.581l-1.893-1.092L30 15h.008zM23 15a5.374 5.374 0 0 1 .242-1.582h.019l1.523.879L26 15l-2.735 1.58A4.936 4.936 0 0 1 23 15zm8.735-3.312-.951.55-1.776 1.025.013-3.159a5.031 5.031 0 0 1 2.714 1.584zM26.979 10.1H27v3.164l-2.735-1.579a5.023 5.023 0 0 1 2.714-1.585zm0 9.792a5.031 5.031 0 0 1-2.714-1.584l.951-.55 1.776-1.025zm2.042 0H29v-3.16l2.735 1.579a5.026 5.026 0 0 1-2.714 1.589zm25.624 12.94c.135 0 .219 0 .238-.005a1 1 0 0 0 .944-.944 7.22 7.22 0 0 0-1.706-5 7.219 7.219 0 0 0-5-1.706 1 1 0 0 0-.944.944 7.22 7.22 0 0 0 1.706 5 7.036 7.036 0 0 0 4.762 1.711zm-1.938-4.539a4.356 4.356 0 0 1 1.064 2.478 4.353 4.353 0 0 1-2.478-1.064 4.356 4.356 0 0 1-1.064-2.478 4.353 4.353 0 0 1 2.478 1.064zm-41.59-5.466h.238a7.034 7.034 0 0 0 4.766-1.711 7.22 7.22 0 0 0 1.706-5 1 1 0 0 0-.944-.944 7.223 7.223 0 0 0-5 1.706 7.22 7.22 0 0 0-1.706 5 1 1 0 0 0 .94.949zm2.176-4.534a4.356 4.356 0 0 1 2.478-1.064 4.353 4.353 0 0 1-1.064 2.478 4.356 4.356 0 0 1-2.478 1.064 4.353 4.353 0 0 1 1.064-2.478zm6.59 23.88a7.217 7.217 0 0 0-5 1.706 7.22 7.22 0 0 0-1.706 5 1 1 0 0 0 .944.944c.019 0 .1.005.238.005a7.034 7.034 0 0 0 4.766-1.711 7.22 7.22 0 0 0 1.706-5 1 1 0 0 0-.948-.944zm-2.176 4.534a4.356 4.356 0 0 1-2.478 1.064 4.353 4.353 0 0 1 1.064-2.478 4.356 4.356 0 0 1 2.478-1.064 4.353 4.353 0 0 1-1.064 2.478zM13.5 25h-2.264l-1.789-.895A1 1 0 0 0 8 25a5.006 5.006 0 0 0 5 5h.5a2.5 2.5 0 0 0 0-5zm0 3H13a3 3 0 0 1-2.266-1.036A.992.992 0 0 0 11 27h2.5a.5.5 0 0 1 0 1zm18.672 5.585-.355.354a2.5 2.5 0 0 0 3.537 3.536l1.6-1.6 1.9-.632a1 1 0 0 0 .391-1.656 5.006 5.006 0 0 0-7.073-.002zm3.535.708-1.768 1.768a.5.5 0 0 1-.708-.707l.355-.354a2.99 2.99 0 0 1 2.122-.877c.07 0 .142 0 .212.007a1.013 1.013 0 0 0-.213.163z"/><path d="M39 18a7.008 7.008 0 0 0-7 7v3a3 3 0 0 0 6 0v-3a1 1 0 0 1 2 0v3a2.981 2.981 0 0 0 .78 2 2.981 2.981 0 0 0-.78 2v3a1 1 0 0 0 1.707.707L43 34.414l1.293 1.293A1 1 0 0 0 46 35v-3a2.981 2.981 0 0 0-.78-2 2.981 2.981 0 0 0 .78-2v-3a7.008 7.008 0 0 0-7-7Zm5 10a1 1 0 0 1-2 0v-1h2Zm-2.9-7.519-1.573 1.573a2.648 2.648 0 0 0-1.064 0L36.9 20.481a4.847 4.847 0 0 1 4.21 0Zm-5.818 1.209a.163.163 0 0 0 .011.017l1.4 1.4A2.972 2.972 0 0 0 36 25h-2a4.959 4.959 0 0 1 1.282-3.31ZM35 29a1 1 0 0 1-1-1v-1h2v1a1 1 0 0 1-1 1Zm9 3.586-.293-.293a1 1 0 0 0-1.414 0l-.293.293V32a1 1 0 0 1 2 0ZM42 25a2.972 2.972 0 0 0-.692-1.894l1.4-1.4a.163.163 0 0 0 .011-.017A4.959 4.959 0 0 1 44 25Z"/></g></svg>