<svg xmlns="http://www.w3.org/2000/svg" data-name="Layer 1" viewBox="0 0 64 64"><path fill="#d74c4c" d="M38 24c0 2.15-.57 3.11-2.82 5.77a5.093 5.093 0 0 0-1.1 2.32 4.2 4.2 0 0 1-.98 1.82 2.982 2.982 0 0 0 .02 4.21 3.015 3.015 0 0 1 .88 2.12V50a3 3 0 0 1-3 3h-6.76a3.015 3.015 0 0 1-2.12-.88 2.994 2.994 0 0 0-4.24 0 3.015 3.015 0 0 1-2.12.88H13a3 3 0 0 1-3-3V33.02a5.036 5.036 0 0 0-1.17-3.24 22.4 22.4 0 0 1-1.8-2.55 2.438 2.438 0 0 1 .51-2.77 2.052 2.052 0 0 0 0-2.92 2.046 2.046 0 0 1-.41-2.33c1.83-3.76 5.77-6.66 10.63-7.74a2.236 2.236 0 0 1 2.41.7 2.583 2.583 0 0 0 3.66 0 2.622 2.622 0 0 1 2.44-.7C33.02 12.99 38 18.03 38 24Z"/><path fill="#e0d8c1" d="M7.54 24.46a2.438 2.438 0 0 0-.51 2.77 22.4 22.4 0 0 0 1.8 2.55A5.036 5.036 0 0 1 10 33.02V50a3 3 0 0 0 3 3h2.76a3.015 3.015 0 0 0 2.12-.88 2.994 2.994 0 0 1 4.24 0 3.015 3.015 0 0 0 2.12.88H31a3 3 0 0 0 3-3v-9.76a3.015 3.015 0 0 0-.88-2.12 2.982 2.982 0 0 1-.02-4.21 4.2 4.2 0 0 0 .98-1.82 5.093 5.093 0 0 1 1.1-2.32C37.43 27.11 38 26.15 38 24c0-5.97-4.98-11.01-11.73-12.53a2.622 2.622 0 0 0-2.44.7 2.583 2.583 0 0 1-3.66 0 2.236 2.236 0 0 0-2.41-.7c-4.86 1.08-8.8 3.98-10.63 7.74a2.046 2.046 0 0 0 .41 2.33 2.052 2.052 0 0 1 0 2.92ZM43 24c0 3.94-1.49 6.04-4 9v21a4 4 0 0 1-4 4H9a4 4 0 0 1-4-4V33c-2.51-2.96-4-5.06-4-9 0-9.94 9.4-18 21-18s21 8.06 21 18Z"/><path fill="#c89d84" d="M50 24c0 3.94-1.49 6.04-4 9v21a4 4 0 0 1-4 4h-7a4 4 0 0 0 4-4V33c2.51-2.96 4-5.06 4-9 0-9.94-9.4-18-21-18h7c11.6 0 21 8.06 21 18Z"/><path fill="#b18264" d="M36 6c11.6 0 21 8.06 21 18 0 3.94-1.49 6.04-4 9v21a4 4 0 0 1-4 4h-7a4 4 0 0 0 4-4V33c2.51-2.96 4-5.06 4-9 0-9.94-9.4-18-21-18Z"/><path fill="#c89d84" d="M63 24c0 3.94-1.49 6.04-4 9v21a4 4 0 0 1-4 4h-6a4 4 0 0 0 4-4V33c2.51-2.96 4-5.06 4-9 0-9.94-9.4-18-21-18h7c11.6 0 20 8.06 20 18Z"/><path fill="#252525" d="M43 5H22C9.869 5 0 13.523 0 24c0 4.19 1.574 6.482 4 9.366V54a5.006 5.006 0 0 0 5 5h46a5.006 5.006 0 0 0 5-5V33.366c2.426-2.884 4-5.176 4-9.366 0-10.832-9.028-19-21-19Zm2 28v21a3 3 0 0 1-3 3h-3.026A4.948 4.948 0 0 0 40 54V33.366c2.426-2.884 4-5.176 4-9.366 0-7.227-4.7-13.523-11.592-16.734C41.815 8.647 49 15.615 49 24c0 3.652-1.422 5.592-3.763 8.354A1 1 0 0 0 45 33ZM6 54V33a1 1 0 0 0-.237-.646C3.422 29.592 2 27.652 2 24c0-9.374 8.972-17 20-17s20 7.626 20 17c0 3.652-1.422 5.592-3.763 8.354A1 1 0 0 0 38 33v21a3 3 0 0 1-3 3H9a3 3 0 0 1-3-3Zm52.237-21.646A1 1 0 0 0 58 33v21a3 3 0 0 1-3 3h-2.026A4.948 4.948 0 0 0 54 54v-7a1 1 0 0 0-2 0v7a3 3 0 0 1-3 3h-3.026A4.948 4.948 0 0 0 47 54V33.366c2.426-2.884 4-5.176 4-9.366 0-7.227-4.7-13.523-11.592-16.734C48.815 8.647 56 15.615 56 24c0 3.652-1.422 5.592-3.763 8.354A1 1 0 0 0 52 33v9a1 1 0 0 0 2 0v-8.634c2.426-2.884 4-5.176 4-9.366 0-7.226-4.7-13.522-11.59-16.734C55.5 8.626 62 15.358 62 24c0 3.652-1.422 5.592-3.763 8.354Z"/><path fill="#252525" d="M35 40.24a4.026 4.026 0 0 0-1.173-2.827 1.982 1.982 0 0 1 0-2.812 5.121 5.121 0 0 0 1.239-2.326 4.111 4.111 0 0 1 .881-1.86C38.162 27.793 39 26.561 39 24c0-6.293-5.145-11.847-12.509-13.5a3.6 3.6 0 0 0-3.368.968 1.624 1.624 0 0 1-2.246 0 3.31 3.31 0 0 0-3.334-.97C12.43 11.63 8.2 14.725 6.23 18.772a3.041 3.041 0 0 0 .6 3.475 1.053 1.053 0 0 1 0 1.506 3.436 3.436 0 0 0-.654 4 23.863 23.863 0 0 0 1.887 2.672A4.019 4.019 0 0 1 9 33.02V38a1 1 0 0 0 2 0v-4.98a6.019 6.019 0 0 0-1.407-3.886A21.5 21.5 0 0 1 7.876 26.7a1.509 1.509 0 0 1 .371-1.53 3.052 3.052 0 0 0 0-4.334 1.056 1.056 0 0 1-.218-1.186c1.705-3.5 5.424-6.2 9.937-7.2a1.609 1.609 0 0 1 1.5.429 3.671 3.671 0 0 0 5.074 0 1.617 1.617 0 0 1 1.513-.432C32.5 13.9 37 18.649 37 24c0 1.78-.362 2.5-2.588 5.129a6.118 6.118 0 0 0-1.312 2.792 3.234 3.234 0 0 1-.709 1.289A3.962 3.962 0 0 0 31.24 36a4.026 4.026 0 0 0 1.173 2.827A2.013 2.013 0 0 1 33 40.24V50a2 2 0 0 1-2 2h-6.76a2.013 2.013 0 0 1-1.413-.587 3.993 3.993 0 0 0-5.654 0A2.013 2.013 0 0 1 15.76 52H13a2 2 0 0 1-2-2v-7a1 1 0 0 0-2 0v7a4 4 0 0 0 4 4h2.76a4.026 4.026 0 0 0 2.827-1.173 2.064 2.064 0 0 1 2.826 0A4.026 4.026 0 0 0 24.24 54H31a4 4 0 0 0 4-4Z"/><path fill="#252525" d="M24 49a1 1 0 0 0 1 1 6.006 6.006 0 0 0 6-6v-2a1 1 0 0 0-2 0v2a4 4 0 0 1-4 4 1 1 0 0 0-1 1zm1-7a2 2 0 0 1-2 2 1 1 0 0 0 0 2 4 4 0 0 0 4-4v-3a1 1 0 0 0-2 0zm-6.991-26.711a9.03 9.03 0 0 0-6.588 5.357 1 1 0 0 0 .629 1.254.982.982 0 0 0 1.267-.622c.043-.124 1.1-3.039 5.174-4.051a1 1 0 1 0-.482-1.941zm-.486 7.773a2.639 2.639 0 0 1 1.909-1.441 1 1 0 1 0-.483-1.941 4.586 4.586 0 0 0-3.318 2.735.992.992 0 0 0 .619 1.249 1.015 1.015 0 0 0 1.273-.602z"/><circle cx="15.578" cy="25.851" r="1" fill="#252525"/><circle cx="26" cy="35" r="1" fill="#252525"/></svg>