<svg xmlns="http://www.w3.org/2000/svg" data-name="Layer 1" viewBox="0 0 64 64"><path fill="#d74c4c" d="M48 45.5v7A10.5 10.5 0 0 1 37.5 63H12A10.994 10.994 0 0 1 1 52v-7a10.994 10.994 0 0 0 11 11h25.5A10.5 10.5 0 0 0 48 45.5Z"/><path fill="#8c4b4b" d="M12 51a6 6 0 0 1-6-6v-4.4a5.607 5.607 0 0 1 8.86-4.56 20.781 20.781 0 0 0 5.24 2.73A13.281 13.281 0 0 0 12 51Z"/><path fill="#a06b6b" d="M27.2 40h2.89A13.652 13.652 0 0 0 27 48.66V51H12a13.281 13.281 0 0 1 8.1-12.23A20.752 20.752 0 0 0 27.2 40Z"/><path fill="#8c4b4b" d="M37.5 40a5.5 5.5 0 0 1 0 11H27v-2.34A13.652 13.652 0 0 1 30.09 40Z"/><path fill="#e47f7f" d="M30.09 40H27.2a21.324 21.324 0 0 1-12.34-3.96A5.607 5.607 0 0 0 6 40.6V45a6 6 0 0 0 6 6h25.5a5.5 5.5 0 0 0 0-11zm14.83-1.92A10.493 10.493 0 0 1 37.5 56H12A10.994 10.994 0 0 1 1 45v-4.4a10.6 10.6 0 0 1 16.76-8.63A16.252 16.252 0 0 0 27.2 35h10.3a10.46 10.46 0 0 1 7.42 3.08zM16 11.5A10.516 10.516 0 0 0 26.5 22h10.3a16.252 16.252 0 0 1 9.44 3.03A10.609 10.609 0 0 0 63 16.4v7a10.6 10.6 0 0 1-16.76 8.63A16.252 16.252 0 0 0 36.8 29H26.5A10.5 10.5 0 0 1 16 18.5z"/><path fill="#d74c4c" d="M40.22 6H26.5a5.5 5.5 0 0 0 0 11H37a20.5 20.5 0 0 1 12.14 3.96A5.607 5.607 0 0 0 58 16.4V12a6 6 0 0 0-6-6ZM63 12v4.4a10.6 10.6 0 0 1-16.76 8.63A16.252 16.252 0 0 0 36.8 22H26.5a10.5 10.5 0 0 1 0-21H52a10.994 10.994 0 0 1 11 11Z"/><path fill="#8c4b4b" d="M26.5 6h13.72A7.923 7.923 0 0 0 37 12.39V17H26.5a5.5 5.5 0 0 1 0-11Z"/><path fill="#a06b6b" d="M58 12v4.4a5.607 5.607 0 0 1-8.86 4.56A20.5 20.5 0 0 0 37 17v-4.61A7.923 7.923 0 0 1 40.22 6H52a6 6 0 0 1 6 6Zm-4 1a3 3 0 1 0-3 3 3 3 0 0 0 3-3Z"/><circle cx="51" cy="13" r="3" fill="#d8ceb2"/><circle cx="37.5" cy="45.5" r="1.5" fill="#a06b6b"/><circle cx="26.5" cy="11.5" r="1.5" fill="#a06b6b"/><path fill="#252525" d="M37.5 34H27.2a15.161 15.161 0 0 1-8.859-2.844A11.686 11.686 0 0 0 11.6 29 11.619 11.619 0 0 0 0 40.6V52a11.994 11.994 0 0 0 12 12h25.5A11.513 11.513 0 0 0 49 52.5v-7A11.516 11.516 0 0 0 37.5 34ZM20 57h17.5a11.5 11.5 0 0 0 9.5-5.03C47 57.63 42.848 62 37.5 62H12a9.907 9.907 0 0 1-7.073-2.927C2 56.13 2 51.642 2 51.642a12.1 12.1 0 0 0 1.513 1.845A11.922 11.922 0 0 0 12 57a1 1 0 0 0 0-2A9.993 9.993 0 0 1 2 45v-4.4a9.618 9.618 0 0 1 9.6-9.6 9.671 9.671 0 0 1 5.579 1.783A17.147 17.147 0 0 0 27.2 36h10.3a9.5 9.5 0 0 1 0 19H20a1 1 0 0 0 0 2Z"/><path fill="#252525" d="M37.5 52a6.508 6.508 0 0 0 6.5-6.5c0-3.767-2.523-6.5-6-6.5a1 1 0 0 0 0 2c2.355 0 4 1.851 4 4.5a4.505 4.505 0 0 1-4.5 4.5H28v-1.34A12.7 12.7 0 0 1 30.589 41H34a1 1 0 0 0 0-2h-6.8a20.331 20.331 0 0 1-11.762-3.776A6.607 6.607 0 0 0 5 40.6V45a7.008 7.008 0 0 0 7 7zm-9.328-11A14.71 14.71 0 0 0 26 48.66V50H13.043a12.258 12.258 0 0 1 7.13-10.16A21.791 21.791 0 0 0 27.2 41zM7 45v-4.4a4.607 4.607 0 0 1 7.277-3.747 21.772 21.772 0 0 0 3.467 2.018 14.257 14.257 0 0 0-6.7 11.032A5 5 0 0 1 7 45zM60.487 3.513A11.922 11.922 0 0 0 52 0H26.5A11.513 11.513 0 0 0 15 11.5v7A11.513 11.513 0 0 0 26.5 30h10.3a15.161 15.161 0 0 1 8.859 2.844A11.686 11.686 0 0 0 52.4 35 11.619 11.619 0 0 0 64 23.4V12a11.923 11.923 0 0 0-3.513-8.487zm-1.306 26.672A11.425 11.425 0 0 1 52.4 33a9.671 9.671 0 0 1-5.579-1.783A17.147 17.147 0 0 0 36.8 28H26.5c-6.707 0-9.5-5.783-9.5-10.033a11.659 11.659 0 0 0 1.373 1.66A11.419 11.419 0 0 0 26.5 23a1 1 0 0 0 0-2 9.5 9.5 0 0 1 0-19H52a9.993 9.993 0 0 1 10 10v4.4a9.618 9.618 0 0 1-9.6 9.6 9.671 9.671 0 0 1-5.579-1.783A17.147 17.147 0 0 0 36.8 21H31a1 1 0 0 0 0 2h5.8a15.161 15.161 0 0 1 8.859 2.844A11.686 11.686 0 0 0 52.4 28a11.481 11.481 0 0 0 8.2-3.4 11.613 11.613 0 0 0 1.4-1.695 10.52 10.52 0 0 1-2.819 7.28z"/><path fill="#252525" d="M48.562 21.776A6.607 6.607 0 0 0 59 16.4V12a7.008 7.008 0 0 0-7-7 1 1 0 0 0 0 2 5.006 5.006 0 0 1 5 5v4.4a4.606 4.606 0 0 1-7.278 3.746A21.511 21.511 0 0 0 38 16.038V12.39A6.946 6.946 0 0 1 40.579 7H44a1 1 0 0 0 0-2H26.5a6.5 6.5 0 0 0 0 13H37a19.529 19.529 0 0 1 11.562 3.776ZM22 11.5A4.505 4.505 0 0 1 26.5 7h11.322A8.973 8.973 0 0 0 36 12.39V16h-9.5a4.505 4.505 0 0 1-4.5-4.5Z"/><path fill="#252525" d="M51 17a4 4 0 1 0-4-4 4 4 0 0 0 4 4Zm0-6a2 2 0 1 1-2 2 2 2 0 0 1 2-2Z"/><circle cx="16" cy="56" r="1" fill="#252525"/><circle cx="48" cy="6" r="1" fill="#252525"/></svg>