<svg xmlns="http://www.w3.org/2000/svg" data-name="Layer 1" viewBox="0 0 64 64"><path fill="#ea8532" d="M63 32v3a12.012 12.012 0 0 0-1.52-5.77 10.083 10.083 0 0 0-4.09-4.12 14.392 14.392 0 0 1-3.84-2.86C51.37 20 50 18 47 18c0-3-2.17-6.12-5.61-7.89A9.1 9.1 0 0 1 38 7a25 25 0 0 1 25 25zM26 7a9.1 9.1 0 0 1-3.39 3.11 11.433 11.433 0 0 0-4.09 3.48A7.684 7.684 0 0 0 17 18c-3 0-4.37 2-6.55 4.25a14.392 14.392 0 0 1-3.84 2.86 10.083 10.083 0 0 0-4.09 4.12A12.012 12.012 0 0 0 1 35v-3A25 25 0 0 1 26 7z"/><path fill="#ccbfa3" d="M41.39 10.11C44.83 11.88 47 15 47 18c-3 0-4.18 1.45-6 4a9.1 9.1 0 0 1-3.39 3.11 10.083 10.083 0 0 0-4.09 4.12A12.012 12.012 0 0 0 32 35a12.012 12.012 0 0 0-1.52-5.77 10.083 10.083 0 0 0-4.09-4.12A9.1 9.1 0 0 1 23 22c-1.82-2.55-3-4-6-4a7.684 7.684 0 0 1 1.52-4.41 11.433 11.433 0 0 1 4.09-3.48A9.1 9.1 0 0 0 26 7c1.82-2.55 3-4 6-4s4.18 1.45 6 4a9.1 9.1 0 0 0 3.39 3.11Z"/><path fill="#e0d8c1" d="M17 18c3 0 4.18 1.45 6 4a9.1 9.1 0 0 0 3.39 3.11 10.083 10.083 0 0 1 4.09 4.12A12.012 12.012 0 0 1 32 35a8.4 8.4 0 0 1-1.25 4.52 9.667 9.667 0 0 1-3.4 3.22A8.974 8.974 0 0 1 22.77 44H10.23a8.974 8.974 0 0 1-4.58-1.26 9.667 9.667 0 0 1-3.4-3.22A8.4 8.4 0 0 1 1 35a12.012 12.012 0 0 1 1.52-5.77 10.083 10.083 0 0 1 4.09-4.12 14.392 14.392 0 0 0 3.84-2.86C12.63 20 14 18 17 18Z"/><path fill="#e0d8c1" d="M47 18c3 0 4.37 2 6.55 4.25a14.392 14.392 0 0 0 3.84 2.86 10.083 10.083 0 0 1 4.09 4.12A12.012 12.012 0 0 1 63 35a8.4 8.4 0 0 1-1.25 4.52 9.667 9.667 0 0 1-3.4 3.22A8.974 8.974 0 0 1 53.77 44H41.23a8.974 8.974 0 0 1-4.58-1.26 9.667 9.667 0 0 1-3.4-3.22A8.4 8.4 0 0 1 32 35a12.012 12.012 0 0 1 1.52-5.77 10.083 10.083 0 0 1 4.09-4.12A9.1 9.1 0 0 0 41 22c1.82-2.55 3-4 6-4Z"/><path fill="#ea8532" d="M1 41v-6a8.4 8.4 0 0 0 1.25 4.52 9.667 9.667 0 0 0 3.4 3.22A8.974 8.974 0 0 0 10.23 44h12.54a8.974 8.974 0 0 0 4.58-1.26 9.667 9.667 0 0 0 3.4-3.22A8.4 8.4 0 0 0 32 35a8.4 8.4 0 0 0 1.25 4.52 9.667 9.667 0 0 0 3.4 3.22A8.974 8.974 0 0 0 41.23 44h12.54a8.974 8.974 0 0 0 4.58-1.26 9.667 9.667 0 0 0 3.4-3.22A8.4 8.4 0 0 0 63 35v6a10 10 0 0 1-10 10H11A10 10 0 0 1 1 41Z"/><path fill="#ffcc3e" d="M53 51a10 10 0 0 0 10-10v6a10 10 0 0 1-10 10H38a6 6 0 0 0-6-6Z"/><path fill="#f7a539" d="M63 47v6a10 10 0 0 1-10 10H32a6.009 6.009 0 0 0 6-6h15a10 10 0 0 0 10-10Z"/><path fill="#ffcc3e" d="M11 57h27a6.009 6.009 0 0 1-6 6H11A10 10 0 0 1 1 53v-6a10 10 0 0 0 10 10Z"/><path fill="#f7a539" d="M3.93 54.07A9.969 9.969 0 0 1 1 47v-6a10 10 0 0 0 10 10h21a6 6 0 0 1 6 6H11a9.969 9.969 0 0 1-7.07-2.93Z"/><path fill="#252525" d="M21.77 39a1 1 0 0 0 1 1 5.031 5.031 0 0 0 2.549-.7A5.6 5.6 0 0 0 28 34.47a1 1 0 0 0-2 0 3.6 3.6 0 0 1-1.7 3.108 3.033 3.033 0 0 1-1.53.422 1 1 0 0 0-1 1zm-7.258-14.994a1.028 1.028 0 0 0-1.012.983 2.556 2.556 0 0 1-1.447 2.116 1 1 0 0 0-.448 1.342 1.133 1.133 0 0 0 1.342.448A4.556 4.556 0 0 0 15.5 25a1 1 0 0 0-.988-.994zm6.541 4.894a1.205 1.205 0 0 0 1.342-.448 1 1 0 0 0-.448-1.342 2.558 2.558 0 0 1-1.447-2.12 1 1 0 0 0-2 .01 4.556 4.556 0 0 0 2.553 3.9zm5.552-15.453c.281.651 1.2.519 1.342.448A4.556 4.556 0 0 0 30.5 10a1 1 0 0 0-.988-.994 1.029 1.029 0 0 0-1.012.983 2.556 2.556 0 0 1-1.447 2.116 1.023 1.023 0 0 0-.448 1.342zm9.448.453c.143.071 1.068.24 1.342-.448a1.034 1.034 0 0 0-.448-1.342A2.558 2.558 0 0 1 35.5 9.99a1 1 0 0 0-2 .01 4.556 4.556 0 0 0 2.553 3.9zM53.77 40a5.031 5.031 0 0 0 2.549-.7A5.6 5.6 0 0 0 59 34.47a1 1 0 0 0-2 0 3.6 3.6 0 0 1-1.7 3.108 3.033 3.033 0 0 1-1.53.422 1 1 0 0 0 0 2zm-2.717-11.1a1.1 1.1 0 0 0 1.342-.448 1.007 1.007 0 0 0-.448-1.342 2.558 2.558 0 0 1-1.447-2.12 1 1 0 0 0-2 .01 4.556 4.556 0 0 0 2.553 3.9zm-6.541-4.894a1.046 1.046 0 0 0-1.012.983 2.556 2.556 0 0 1-1.447 2.116 1 1 0 0 0-.448 1.342 1.05 1.05 0 0 0 1.342.448A4.556 4.556 0 0 0 45.5 25a1 1 0 0 0-.988-.994z"/><path fill="#252525" d="M38.521 6.013C36.944 3.821 35.446 2 32 2s-4.944 1.82-6.521 4.013A26.026 26.026 0 0 0 0 32v21a11 11 0 0 0 11 11h42a11.013 11.013 0 0 0 11-11V32A26.025 26.025 0 0 0 38.521 6.013ZM61.574 27.52a10.626 10.626 0 0 0-3.722-3.3 13.371 13.371 0 0 1-3.584-2.669c-.3-.314-.592-.623-.871-.922-1.554-1.667-3.039-3.242-5.478-3.564a10.82 10.82 0 0 0-6.067-7.845 7.149 7.149 0 0 1-1.6-1.114A24.046 24.046 0 0 1 61.574 27.52ZM11 50a9 9 0 0 1-9-9 21.718 21.718 0 0 0 3.141 2.6A9.991 9.991 0 0 0 10.23 45h12.54A10.6 10.6 0 0 0 32 39.289a11.536 11.536 0 0 0 4.141 4.311A10.081 10.081 0 0 0 41.23 45h12.54a9.99 9.99 0 0 0 5.086-1.4A21.729 21.729 0 0 0 62 41a9.01 9.01 0 0 1-9 9Zm6-28a1 1 0 0 0 1-1v-1.92c1.7.267 2.615 1.3 4.185 3.5A10.1 10.1 0 0 0 25.931 26a9.037 9.037 0 0 1 3.675 3.718A11.057 11.057 0 0 1 31 35a7.43 7.43 0 0 1-1.1 4 8.641 8.641 0 0 1-3.06 2.88A7.987 7.987 0 0 1 22.77 43H10.23a7.988 7.988 0 0 1-4.073-1.122A8.638 8.638 0 0 1 3.1 38.991 7.425 7.425 0 0 1 2 35a11.064 11.064 0 0 1 1.394-5.285A9.037 9.037 0 0 1 7.072 26a15.294 15.294 0 0 0 4.1-3.051c.313-.323.61-.642.9-.95 1.4-1.5 2.409-2.562 3.935-2.884V21A1 1 0 0 0 17 22Zm30 0a1 1 0 0 0 1-1v-1.9c1.53.32 2.535 1.4 3.935 2.9.287.308.584.627.9.949A15.289 15.289 0 0 0 56.931 26a9.037 9.037 0 0 1 3.675 3.718A11.057 11.057 0 0 1 62 35a7.43 7.43 0 0 1-1.1 4 8.641 8.641 0 0 1-3.06 2.88A7.987 7.987 0 0 1 53.77 43H41.23a7.988 7.988 0 0 1-4.073-1.122 8.638 8.638 0 0 1-3.057-2.887A7.425 7.425 0 0 1 33 35a11.064 11.064 0 0 1 1.394-5.285A9.037 9.037 0 0 1 38.072 26a10.093 10.093 0 0 0 3.741-3.416c1.575-2.2 2.481-3.246 4.187-3.511V21a1 1 0 0 0 1 1ZM31 4.08V6a1 1 0 0 0 2 0V4.08c1.7.267 2.615 1.3 4.185 3.5A10.1 10.1 0 0 0 40.933 11a8.955 8.955 0 0 1 4.983 6.08c-2.877.372-4.217 2.221-5.731 4.342a8.069 8.069 0 0 1-3.034 2.8 11.01 11.01 0 0 0-4.505 4.522A12.7 12.7 0 0 0 32 30.1a12.974 12.974 0 0 0-.646-1.357 11.009 11.009 0 0 0-4.5-4.522 8.074 8.074 0 0 1-3.039-2.8C22.3 19.3 20.96 17.45 18.082 17.079a7.119 7.119 0 0 1 1.253-2.911A10.441 10.441 0 0 1 23.072 11a10.093 10.093 0 0 0 3.741-3.416C28.385 5.38 29.3 4.347 31 4.08Zm-7.249 4.029a7.145 7.145 0 0 1-1.6 1.113 12.439 12.439 0 0 0-4.451 3.789 8.938 8.938 0 0 0-1.624 4.057c-2.438.322-3.923 1.9-5.477 3.564-.279.3-.567.608-.872.923a13.376 13.376 0 0 1-3.58 2.667 10.618 10.618 0 0 0-3.725 3.3A24.045 24.045 0 0 1 23.751 8.109ZM4.637 59.363a8.932 8.932 0 0 1-2.621-6.031 11.14 11.14 0 0 0 1.207 1.445A10.929 10.929 0 0 0 11 58a1 1 0 0 0 0-2 8.986 8.986 0 0 1-8.984-8.668 11.14 11.14 0 0 0 1.207 1.445A10.929 10.929 0 0 0 11 52h21a5.006 5.006 0 0 1 5 5 5.009 5.009 0 0 1-5 5H11a8.945 8.945 0 0 1-6.363-2.637ZM53 62H36.89c.018-.017.037-.032.054-.049A6.983 6.983 0 0 0 36.889 52H53a10.985 10.985 0 0 0 8.983-4.673A9 9 0 0 1 53 56H43a1 1 0 0 0 0 2h10a10.985 10.985 0 0 0 8.983-4.673A9 9 0 0 1 53 62Z"/><path fill="#252525" d="M36 46h-8a1 1 0 0 0 0 2h8a1 1 0 0 0 0-2zm-3 13v-4a1 1 0 0 0-2 0v1H19a1 1 0 0 0 0 2h12v1a1 1 0 0 0 2 0z"/><circle cx="15" cy="57" r="1" fill="#252525"/><circle cx="57" cy="31" r="1" fill="#252525"/></svg>