<svg xmlns="http://www.w3.org/2000/svg" data-name="Layer 1" viewBox="0 0 64 64"><path fill="#946143" d="M9 58h46a5 5 0 0 1-5 5H14a5 5 0 0 1-5-5Z"/><path fill="#b18264" d="M55 53v5H9v-5h16a6.911 6.911 0 0 0 7-6.99A6.911 6.911 0 0 0 39 53h16Z"/><path fill="#29724d" d="M11 39h12v14H11zM41 39h12v14H41z"/><path fill="#e6e6e6" d="M60.99 42.3A7.278 7.278 0 0 1 62 46.01 6.915 6.915 0 0 1 55 53h-2V39H41v14h-2a6.911 6.911 0 0 1-7-6.99 7.278 7.278 0 0 1 1.01-3.71l7.43-12.48a7.931 7.931 0 0 1 2.81-2.8 7.4 7.4 0 0 1 7.5 0 7.931 7.931 0 0 1 2.81 2.8L55 32.24Z"/><path fill="#e6e6e6" d="M32 46.01A6.911 6.911 0 0 1 25 53h-2V39H11v14H9a6.915 6.915 0 0 1-7-6.99 7.278 7.278 0 0 1 1.01-3.71L9 32.24l1.44-2.42a7.931 7.931 0 0 1 2.81-2.8 7.4 7.4 0 0 1 7.5 0 7.931 7.931 0 0 1 2.81 2.8l7.43 12.48A7.278 7.278 0 0 1 32 46.01Z"/><path fill="#b18264" d="M50 8h-9.38l5.37 8.7A6.775 6.775 0 0 1 47 20.26a6.63 6.63 0 0 1-4.05 6.13A7.269 7.269 0 0 1 40 27H24a7.269 7.269 0 0 1-2.95-.61A6.664 6.664 0 0 1 17 20.26a6.775 6.775 0 0 1 1.01-3.56L23.38 8H14a5 5 0 0 0-5 5v19.24l1.44-2.42a7.931 7.931 0 0 1 2.81-2.8 7.4 7.4 0 0 1 7.5 0 7.931 7.931 0 0 1 2.81 2.8l7.43 12.48A7.278 7.278 0 0 1 32 46.01a7.278 7.278 0 0 1 1.01-3.71l7.43-12.48a7.931 7.931 0 0 1 2.81-2.8 7.4 7.4 0 0 1 7.5 0 7.931 7.931 0 0 1 2.81 2.8L55 32.24V13a5 5 0 0 0-5-5Z"/><path fill="#e6e6e6" d="M47 20.26a6.63 6.63 0 0 1-4.05 6.13A7.269 7.269 0 0 1 40 27h-2V13H26v14h-2a7.269 7.269 0 0 1-2.95-.61A6.664 6.664 0 0 1 17 20.26a6.775 6.775 0 0 1 1.01-3.56L23.38 8l2.06-3.33a7.779 7.779 0 0 1 2.81-2.69 7.687 7.687 0 0 1 10.31 2.69L40.62 8l5.37 8.7A6.775 6.775 0 0 1 47 20.26Z"/><path fill="#29724d" d="M26 13h12v14H26z"/><circle cx="15.5" cy="48.5" r="1.5" fill="#016031"/><circle cx="16.5" cy="31.5" r="1.5" fill="#ccc"/><circle cx="28" cy="47" r="1" fill="#ccc"/><circle cx="31.5" cy="5.5" r="1.5" fill="#ccc"/><circle cx="43" cy="21" r="1" fill="#ccc"/><circle cx="47.5" cy="31.5" r="1.5" fill="#ccc"/><circle cx="58" cy="47" r="1" fill="#ccc"/><circle cx="48.5" cy="48.5" r="1.5" fill="#016031"/><circle cx="13.5" cy="12.5" r="1.5" fill="#c89d84"/><circle cx="30.5" cy="22.5" r="1.5" fill="#252525"/><circle cx="19" cy="45" r="1" fill="#252525"/><circle cx="15" cy="43" r="1" fill="#252525"/><circle cx="20" cy="34" r="1" fill="#252525"/><circle cx="6" cy="45" r="1" fill="#252525"/><circle cx="35" cy="8" r="1" fill="#252525"/><circle cx="22" cy="19" r="1" fill="#252525"/><circle cx="44" cy="34" r="1" fill="#252525"/><circle cx="57" cy="44" r="1" fill="#252525"/><circle cx="34" cy="19" r="1" fill="#252525"/><circle cx="30" cy="17" r="1" fill="#252525"/><path fill="#252525" d="M63 46.01a8.266 8.266 0 0 0-1.15-4.222L56 31.963V13a6.006 6.006 0 0 0-6-6h-8.826l-1.765-2.859a8.689 8.689 0 0 0-11.646-3.035 8.813 8.813 0 0 0-3.174 3.038L22.826 7H14a6.006 6.006 0 0 0-6 6v18.963l-5.85 9.826A8.259 8.259 0 0 0 1 46.01a7.948 7.948 0 0 0 2.287 5.642A7.863 7.863 0 0 0 8 53.934V58a6.006 6.006 0 0 0 6 6h36a6.006 6.006 0 0 0 6-6v-4.066a7.85 7.85 0 0 0 4.71-2.28A7.946 7.946 0 0 0 63 46.01ZM50 9a4 4 0 0 1 4 4v15.7a8.9 8.9 0 0 0-2.746-2.539 8.467 8.467 0 0 0-4.975-1.089A7.634 7.634 0 0 0 48 20.26a7.772 7.772 0 0 0-1.159-4.085L42.41 9ZM32 42.086c-.053-.1-7.581-12.778-7.581-12.778a9.08 9.08 0 0 0-1-1.337c.191.013 16.961.013 17.152 0a9.133 9.133 0 0 0-.995 1.337S32.053 41.988 32 42.086ZM27 26V14h10v12Zm-.711-20.8a6.779 6.779 0 0 1 2.448-2.345A6.685 6.685 0 0 1 37.709 5.2l7.43 12.029A5.783 5.783 0 0 1 46 20.26a5.608 5.608 0 0 1-3.455 5.216A6.243 6.243 0 0 1 40 26h-1V13a1 1 0 0 0-1-1H26a1 1 0 0 0-1 1v13h-1a6.263 6.263 0 0 1-2.561-.531A5.668 5.668 0 0 1 18 20.26a5.777 5.777 0 0 1 .861-3.034ZM14 9h7.59l-4.431 7.175A7.772 7.772 0 0 0 16 20.26a7.585 7.585 0 0 0 1.7 4.806 8.473 8.473 0 0 0-4.952 1.091A8.9 8.9 0 0 0 10 28.7V13a4 4 0 0 1 4-4ZM3 46.01a6.263 6.263 0 0 1 .869-3.2l7.43-12.48a6.971 6.971 0 0 1 2.455-2.449 6.515 6.515 0 0 1 6.492 0 6.971 6.971 0 0 1 2.454 2.451l7.43 12.479a6.261 6.261 0 0 1 .87 3.2A5.931 5.931 0 0 1 25 52h-1V39a1 1 0 0 0-1-1H11a1 1 0 0 0-1 1v13H9a5.915 5.915 0 0 1-6-5.99ZM22 40v12H12V40Zm28 22H14a4 4 0 0 1-3.858-3H41a1 1 0 0 0 0-2H10v-3h15a7.917 7.917 0 0 0 7-4.072A7.917 7.917 0 0 0 39 54h15v3h-8a1 1 0 0 0 0 2h7.858A4 4 0 0 1 50 62Zm-8-10V40h10v12Zm13 0h-1V39a1 1 0 0 0-1-1H41a1 1 0 0 0-1 1v13h-1a5.931 5.931 0 0 1-6-5.99 6.263 6.263 0 0 1 .869-3.2l7.43-12.48a6.971 6.971 0 0 1 2.455-2.449 6.515 6.515 0 0 1 6.492 0 6.977 6.977 0 0 1 2.454 2.45l7.429 12.48a6.261 6.261 0 0 1 .87 3.2A5.915 5.915 0 0 1 55 52Z"/><circle cx="45" cy="45" r="1" fill="#252525"/><circle cx="49" cy="43" r="1" fill="#252525"/></svg>