<svg xmlns="http://www.w3.org/2000/svg" data-name="Layer 3" viewBox="0 0 64 64" width="40" height="40"><circle cx="32" cy="36" r="26" fill="#596e79"/><circle cx="32" cy="36" r="22" fill="#e0e0e0"/><path fill="#7d909b" d="M57.466,2.606a2.07,2.07,0,0,0-2.927,0L37,21l2.5,2.5L57.466,5.534A2.07,2.07,0,0,0,57.466,2.606Z"/><path fill="#94a4ad" d="M60.394 5.534a2.07 2.07 0 00-2.928 0L39.5 23.5 42 26 60.394 8.461A2.07 2.07 0 0060.394 5.534zM57.515 31a26.016 26.016 0 010 10H62V31zM6 36a26.148 26.148 0 01.485-5H2V41H6.485A26.148 26.148 0 016 36z"/><path fill="#f3a33a" d="M26.811,28.79l-8.8-9.773a22.1,22.1,0,0,0-5.672,7.106l13.2,4.715A8.032,8.032,0,0,1,26.811,28.79Z"/><path fill="#f7c244" d="M18.015,19.017l8.8,9.773c-.044.051-.077.11-.119.162a7.976,7.976,0,0,1,2.3-1.971L25.043,15.129a21.968,21.968,0,0,0-7.028,3.888Z"/><path fill="#74574a" d="M26,34H18V32H16.414A3.415,3.415,0,0,0,14,33h0a3.415,3.415,0,0,0-1,2.414v1.172A3.415,3.415,0,0,0,14,39h0a3.415,3.415,0,0,0,2.414,1H18V38h8Z"/><circle cx="40" cy="29" r="5" fill="#518c46"/><circle cx="35" cy="25" r="5" fill="#518c46"/><circle cx="40" cy="24" r="5" fill="#67ac5c"/><path fill="#fff" d="M40.9,33.574a8,8,0,0,0-15.981.275A5.989,5.989,0,0,0,30.759,43.9a6,6,0,0,0,9.607-7.072A7.967,7.967,0,0,0,40.9,33.574Z"/><path fill="#b73831" d="M31.335 44.444c.02.017.041.033.062.049C31.377 44.476 31.355 44.461 31.335 44.444zM35.472 45.846a5.96 5.96 0 01-3.448-.9h0L28.4 54H33l3.08-8.214A6.046 6.046 0 0135.472 45.846z"/><path fill="#d4483f" d="M30.759 43.9a5.879 5.879 0 01-2.548.173L24.241 54 28 55l4.024-10.059A6.026 6.026 0 0130.759 43.9zM39.137 44.364a5.972 5.972 0 01-3.665 1.482c-.179.008-.355 0-.532 0L38 54l4-2z"/><path fill="#f7c244" d="M41.068,41.011a5.943,5.943,0,0,1-.893,2.164L48,51l.051.038a21.98,21.98,0,0,0,4.813-8.061Z"/><path fill="#f3a33a" d="M52.864,42.977A21.965,21.965,0,0,0,54,36c0-.665-.035-1.322-.092-1.972L41,38l-.083.083a5.861,5.861,0,0,1,.151,2.928Z"/><circle cx="32" cy="36" r="3" fill="#f3a33a"/><path fill="#74574a" d="M23,45H19V43H17.414A3.415,3.415,0,0,0,15,44h0a3.415,3.415,0,0,0-1,2.414v1.172A3.415,3.415,0,0,0,15,50h0a3.415,3.415,0,0,0,2.414,1H19V49h4Z"/><path d="M62,30H58.325a26.834,26.834,0,0,0-6.338-12.141L61.1,9.168a3.057,3.057,0,0,0-2.042-5.227,3.058,3.058,0,0,0-5.244-2.025L44.253,11.945A26.987,26.987,0,0,0,5.68,30H2a1,1,0,0,0-1,1V41a1,1,0,0,0,1,1H5.68a26.994,26.994,0,0,0,52.64,0H62a1,1,0,0,0,1-1V31A1,1,0,0,0,62,30ZM59.7,7.737,45.392,21.384a6.022,6.022,0,0,0-.954-1.408L58.174,6.24a1.07,1.07,0,0,1,1.529,1.5ZM15,47.586V46.414A2.414,2.414,0,0,1,17.414,44H18v1a1,1,0,0,0,1,1h3v2H19a1,1,0,0,0-1,1v1h-.586a2.389,2.389,0,0,1-1.539-.569c-.235-.282-.448-.582-.669-.876A2.413,2.413,0,0,1,15,47.586ZM19,52a1,1,0,0,0,1-1V50h3a1,1,0,0,0,1-1V45a1,1,0,0,0-1-1H20V43a1,1,0,0,0-1-1H17.414a4.363,4.363,0,0,0-4.239,3.248,20.763,20.763,0,0,1-.3-17.874l11.4,4.072a8.882,8.882,0,0,0-.3,1.554H19V32a1,1,0,0,0-1-1H16.414A4.415,4.415,0,0,0,12,35.414v1.172A4.415,4.415,0,0,0,16.414,41H18a1,1,0,0,0,1-1V39h3.158a7.01,7.01,0,0,0,4.7,5.761l-3.547,8.868a1,1,0,0,0,.671,1.338l3.76,1A1.036,1.036,0,0,0,28,56a1,1,0,0,0,.929-.629L29.077,55H33a1,1,0,0,0,.937-.648l1.563-4.17,1.563,4.17a1,1,0,0,0,1.384.543l4-2a1,1,0,0,0,.49-1.247l-2.579-6.876,6.267,6.267A20.916,20.916,0,0,1,18.432,52ZM44,29a4,4,0,0,1-2.207,3.56,8.939,8.939,0,0,0-.849-2.642,5.977,5.977,0,0,0,3.023-1.428A4.12,4.12,0,0,1,44,29ZM22.2,37H18a1,1,0,0,0-1,1v1h-.586A2.414,2.414,0,0,1,14,36.586V35.414A2.414,2.414,0,0,1,16.414,33H17v1a1,1,0,0,0,1,1h4.855A6.981,6.981,0,0,0,22.2,37Zm3.414-2.435a1,1,0,0,0,.3-.7,7,7,0,1,1,13.52,2.607,1,1,0,0,0,.069.865A5,5,0,0,1,31.5,43.227a1,1,0,0,0-.737-.326,1.044,1.044,0,0,0-.276.038,4.916,4.916,0,0,1-1.148.2,4.994,4.994,0,0,1-3.724-8.57ZM31,25a4,4,0,0,1,3.8-3.98A5.964,5.964,0,0,0,34,24a6.028,6.028,0,0,0,.1,1.04,8.612,8.612,0,0,0-3.09.123C31.01,25.108,31,25.055,31,25ZM29.431,45.133a6.811,6.811,0,0,0,1.018-.128c.114.1.234.2.353.3l-3.4,8.5-1.812-.483,3.278-8.193C29.053,45.136,29.24,45.141,29.431,45.133Zm3.113,1.2a6.969,6.969,0,0,0,1.68.447l.208.554L32.307,53h-2.43Zm3.806.419a6.926,6.926,0,0,0,2.306-.82l2.092,5.577-2.2,1.1ZM44,24a4,4,0,0,1-4,4c-.128,0-.251-.018-.377-.03a8.859,8.859,0,0,0-3.26-2.317A4,4,0,1,1,44,24Zm-5.777-5.731a5.985,5.985,0,0,0-1.8.923,5.909,5.909,0,0,0-7.346,4.883L26.321,15.8a20.808,20.808,0,0,1,13.558.73Zm-13.8-1.833L27.8,26.551a9.046,9.046,0,0,0-.958.776L19.5,19.168A20.94,20.94,0,0,1,24.425,16.436Zm-6.476,4,7.562,8.4c-.169.243-.323.5-.468.757l-11.25-4.018A21.141,21.141,0,0,1,17.949,20.438Zm30.043,29.14-6.564-6.564a6.9,6.9,0,0,0,.372-.867l9.7,1.616A21.03,21.03,0,0,1,47.992,49.578ZM53,36a20.91,20.91,0,0,1-.845,5.846l-9.977-1.663c.01-.22.011-.44,0-.662a6.833,6.833,0,0,0-.091-.809L52.97,35.363C52.976,35.576,53,35.786,53,36Zm-11.517.8c-.01-.019-.016-.04-.026-.059a8.913,8.913,0,0,0,.408-2.064,5.952,5.952,0,0,0,3.58-8.178A5.947,5.947,0,0,0,46,24c0-.139-.012-.275-.021-.412l1.656-1.579A20.864,20.864,0,0,1,52.809,33.32ZM55.246,3.313A1.07,1.07,0,0,1,56.76,4.826l-13.9,13.9a5.961,5.961,0,0,0-1.723-.615ZM3,40V32H5.3a26.995,26.995,0,0,0,0,8ZM32,61A25,25,0,1,1,42.806,13.462l-1.454,1.526a22.991,22.991,0,0,0-27.734,34.82,4.425,4.425,0,0,0,.675.9c.042.042.093.072.137.112A22.983,22.983,0,1,0,49.083,20.628l1.457-1.389A24.993,24.993,0,0,1,32,61ZM61,40H58.7a27.067,27.067,0,0,0,.3-4,27.378,27.378,0,0,0-.3-4H61Z"/><path d="M32,40a4,4,0,1,0-4-4A4,4,0,0,0,32,40Zm0-6a2,2,0,1,1-2,2A2,2,0,0,1,32,34Z"/><rect width="2" height="1.414" x="37.5" y="21.793" transform="rotate(-45 38.5 22.5)"/><rect width="2" height="1.414" x="40.5" y="24.793" transform="rotate(-45 41.5 25.5)"/><rect width="1.414" height="2" x="40.793" y="21.5" transform="rotate(-45 41.5 22.5)"/><rect width="1.414" height="2" x="37.793" y="24.5" transform="rotate(-45 38.5 25.5)"/><rect width="2.828" height="2" x="45.586" y="32" transform="rotate(-45 47 33)"/><rect width="2" height="2.828" x="48" y="27.586" transform="rotate(-45 49 29)"/></svg>