<svg xmlns="http://www.w3.org/2000/svg" data-name="Layer 1" viewBox="0 0 64 64"><path fill="#ffcc3e" d="M23 48H8V33a15.005 15.005 0 0 0 15 15Z"/><path fill="#ccbfa3" d="m44 56 6 7H12l6-7h26z"/><path fill="#e0d8c1" d="M44 56H18l-6 7-4-15h46l-4 15-6-7z"/><circle cx="33.5" cy="40.5" r="2.5" fill="#419947"/><path fill="#f7a539" d="M36 40.5a2.5 2.5 0 0 0-2.5-2.5H39a10 10 0 0 1 10 10h-5a5 5 0 0 0-5-5h-5.5a2.5 2.5 0 0 0 2.5-2.5Z"/><path fill="#ea8532" d="M44 48H23A15.005 15.005 0 0 1 8 33c0-5 2-9 5.21-11.36a2.538 2.538 0 0 0 1.49.35 2.5 2.5 0 0 0 2.29-2.69A14.9 14.9 0 0 1 23 18v5a10 10 0 0 0 0 20h16a5 5 0 0 1 5 5Z"/><path fill="#e0d8c1" d="M23 13v5a14.9 14.9 0 0 0-6.01 1.3 2.5 2.5 0 0 0-4.98.4 2.452 2.452 0 0 0 1.2 1.94C10 24 8 28 8 33V13h15Z"/><path fill="#419947" d="M16.99 19.3a2.5 2.5 0 0 1-2.29 2.69 2.538 2.538 0 0 1-1.49-.35 2.452 2.452 0 0 1-1.2-1.94 2.5 2.5 0 0 1 4.98-.4Z"/><path fill="#b18264" d="M13 8h10v5H13z"/><path fill="#c89d84" d="M13 4h10v4H13zM63 3v5H33V4l30-1z"/><path fill="#b18264" d="M54 13.7 33 13V8h30v6l-9-.3z"/><path fill="#e0d8c1" d="M54 13.7V33a14.96 14.96 0 0 0-5.21-11.36 2.452 2.452 0 0 0 1.2-1.94 2.5 2.5 0 1 0-4.98-.4A14.9 14.9 0 0 0 39 18h-6v-5Z"/><path fill="#d74c4c" d="M48.79 21.64a2.538 2.538 0 0 1-1.49.35 2.5 2.5 0 1 1 2.69-2.29 2.452 2.452 0 0 1-1.2 1.94Z"/><path fill="#ea8532" d="M54 33v15a14.929 14.929 0 0 0-5-11.17V33a10 10 0 0 0-10-10h-6v-5h6a14.9 14.9 0 0 1 6.01 1.3 2.5 2.5 0 0 0 2.29 2.69 2.538 2.538 0 0 0 1.49-.35A14.96 14.96 0 0 1 54 33Z"/><path fill="#ffcc3e" d="M44 33v.86a14.839 14.839 0 0 0-5-.86h-6v-5h6a5 5 0 0 1 5 5Z"/><path fill="#f7a539" d="M49 33v3.83a14.723 14.723 0 0 0-5-2.97V33a5 5 0 0 0-5-5h-6v-5h6a10 10 0 0 1 10 10Z"/><path fill="#f7a539" d="M33 28v5h-5V4c0-2 1.12-3 2.5-3a2.327 2.327 0 0 1 1.77.75A3.278 3.278 0 0 1 33 4v24Z"/><path fill="#ea8532" d="M28 4v29h-5V4c0-2 1.12-3 2.5-3a2.327 2.327 0 0 1 1.77.75A3.278 3.278 0 0 1 28 4Z"/><path fill="#ffcc3e" d="M44 33.86a14.723 14.723 0 0 1 5 2.97A14.929 14.929 0 0 1 54 48h-5a10 10 0 0 0-10-10H23a5 5 0 1 1 0-10v5h16a14.839 14.839 0 0 1 5 .86Z"/><path fill="#f7a539" d="M31 40.5a2.5 2.5 0 0 0 2.5 2.5H23a10 10 0 0 1 0-20v5a4.985 4.985 0 0 0-5 5 2.5 2.5 0 1 0-2.5 2.5A2.5 2.5 0 0 0 18 33a5 5 0 0 0 5 5h10.5a2.5 2.5 0 0 0-2.5 2.5Z"/><circle cx="15.5" cy="33" r="2.5" fill="#d74c4c"/><path fill="#252525" d="M63.7 2.281A.937.937 0 0 0 62.967 2L33.9 2.97a3.858 3.858 0 0 0-.882-1.889A3.325 3.325 0 0 0 30.5 0a3.366 3.366 0 0 0-2.493 1.075A3.325 3.325 0 0 0 25.5 0a3.405 3.405 0 0 0-3.412 3H13a1 1 0 0 0-1 1v8H8a1 1 0 0 0-1 1v35.131l4.034 15.127A1 1 0 0 0 12 64h38a1 1 0 0 0 .966-.742L55 48.131V18a1 1 0 0 0-2 0v7.3a15.959 15.959 0 0 0-2.763-3.652 3.418 3.418 0 0 0 .75-1.865 3.5 3.5 0 1 0-6.154 1.985 3.719 3.719 0 0 0 2.393 1.222 3.072 3.072 0 0 0 1.35-.168A13.975 13.975 0 0 1 53 33v7.291a15.9 15.9 0 0 0-3-3.875V33.36a11.48 11.48 0 0 0-2.9-7.8A10.94 10.94 0 0 0 39 22h-5v-3h5a13.119 13.119 0 0 1 1.858.133 1.03 1.03 0 0 0 1.132-.849.987.987 0 0 0-.848-1.132A15.341 15.341 0 0 0 39 17h-5v-2.967L63 15a1 1 0 0 0 1-1V3a1 1 0 0 0-.3-.719ZM48.28 20.779a1.667 1.667 0 0 1-1.922-.308A1.5 1.5 0 0 1 47.5 18a1.467 1.467 0 0 1 1.142.527 1.505 1.505 0 0 1 .351 1.1 1.447 1.447 0 0 1-.713 1.152ZM34 29h5a3.992 3.992 0 0 1 3.949 3.5A15.871 15.871 0 0 0 39 32h-5ZM24 4c0-1.271.547-2 1.5-2a1.348 1.348 0 0 1 1.027.419A2.345 2.345 0 0 1 27 4v10a1 1 0 0 0 2 0V4c0-1.271.547-2 1.5-2a1.348 1.348 0 0 1 1.027.419A2.345 2.345 0 0 1 32 4v28h-3V22a1 1 0 0 0-2 0v10h-3ZM14 5h8v2h-8Zm0 4h8v3h-8Zm-5 5h13v3.054a15.757 15.757 0 0 0-4.359.927 3.523 3.523 0 0 0-3.421-1.968 3.5 3.5 0 0 0-3.208 3.758 3.426 3.426 0 0 0 .708 1.819A13.169 13.169 0 0 0 9 25Zm6.994 5.38a1.5 1.5 0 0 1-.352 1.091 1.429 1.429 0 0 1-1.919.31 1.385 1.385 0 0 1-.715-1.159 1.5 1.5 0 0 1 2.988-.24Zm-2.617 3.42a3.722 3.722 0 0 0 3.79-1.038A3.486 3.486 0 0 0 17.956 20 13.9 13.9 0 0 1 22 19.054v3a10.9 10.9 0 0 0-7.8 4.346 1 1 0 0 0 .2 1.4 1.127 1.127 0 0 0 1.4-.2 8.925 8.925 0 0 1 6.2-3.543v3.032a6.012 6.012 0 0 0-3.251 1.668 6.084 6.084 0 0 0-1.09 1.51A3.464 3.464 0 0 0 15.5 29.5 3.5 3.5 0 0 0 12 33a11 11 0 0 0 11 11h16a4.008 4.008 0 0 1 3.874 3H23A14.015 14.015 0 0 1 9 33c0-4.31 1.56-7.9 4.377-10.2ZM30.351 42H23a9.014 9.014 0 0 1-8.34-5.613 3.356 3.356 0 0 0 3-.657A6 6 0 0 0 23 39h7.351a3.381 3.381 0 0 0 0 3ZM14 33a1.5 1.5 0 1 1 1.5 1.5A1.5 1.5 0 0 1 14 33Zm18 7.5a1.5 1.5 0 1 1 1.5 1.5 1.5 1.5 0 0 1-1.5-1.5Zm-23 .229A16.1 16.1 0 0 0 15.271 47H9ZM14.174 62l4.286-5h25.08l4.286 5Zm35.349-1.092-4.271-4.983 1.58-2.37a1 1 0 1 0-1.664-1.11L43.465 55h-24.93l-1.7-2.555a1 1 0 0 0-1.664 1.11l1.58 2.37-4.271 4.983L9.3 49h43.4ZM52.947 47h-3A11.01 11.01 0 0 0 39 37a1 1 0 0 0 0 2 9.01 9.01 0 0 1 8.941 8H44.91A6.006 6.006 0 0 0 39 42h-2.351A3.464 3.464 0 0 0 37 40.5a3.5 3.5 0 0 0-3.5-3.5H23a3.988 3.988 0 0 1-1-7.858V33a1 1 0 0 0 1 1h16a13.827 13.827 0 0 1 4.67.8 13.613 13.613 0 0 1 4.664 2.771A13.973 13.973 0 0 1 52.947 47ZM39 24a9 9 0 0 1 9 9v1.792a15.725 15.725 0 0 0-3.008-1.609A5.938 5.938 0 0 0 39 27h-5v-3Zm23-11.034-28-.933V9h28ZM62 7H34V4.967l28-.933Z"/><circle cx="28" cy="18" r="1" fill="#252525"/></svg>