<svg xmlns="http://www.w3.org/2000/svg" data-name="Layer 1" viewBox="0 0 64 64" width="40" height="40"><path fill="#b18264" d="M54.46 41.46A5.022 5.022 0 0 0 53 45 52.928 52.928 0 0 0 37.96 8.04L45.05.95A62.845 62.845 0 0 1 63 45a5.006 5.006 0 0 0-8.54-3.54Z"/><path fill="#e5cea3" d="M39 49.5a4.494 4.494 0 0 1 4.5-4.5H53a5 5 0 0 1 10 0v4a3 3 0 0 1-3 3H36.5a2.492 2.492 0 0 0 2.5-2.5zM36.5 52H28v-3a3 3 0 0 1 6-.05V49c0 2 1.12 3 2.5 3zM12 50v2H6v-2a3 3 0 0 1 6 0zm11-2v4h-6v-4a3 3 0 0 1 6 0z"/><path fill="#27935d" d="m21 35 1 6h-9l3-5 5-1z"/><path fill="#f7a539" d="M53 45h-9.5a4.494 4.494 0 0 0-4.5 4.5 2.492 2.492 0 0 1-2.5 2.5c-1.38 0-2.5-1-2.5-3v-.05a3 3 0 0 0-6 .05v9.5a2.5 2.5 0 1 1-5 0V48a3 3 0 0 0-6 0v12.5a2.5 2.5 0 1 1-5 0V50a3 3 0 0 0-6 0v4.5a2.5 2.5 0 1 1-5 0V45L37.96 8.04A52.928 52.928 0 0 1 53 45Zm-5-5-2-6-5-1-3 7Zm-6-18.5a4.5 4.5 0 1 0-4.5 4.5 4.494 4.494 0 0 0 4.5-4.5Zm-7 12a4.5 4.5 0 1 0-4.5 4.5 4.494 4.494 0 0 0 4.5-4.5ZM22 41l-1-6-5 1-3 5Z"/><circle cx="37.5" cy="21.5" r="4.5" fill="#d74c4c"/><circle cx="30.5" cy="33.5" r="4.5" fill="#d74c4c"/><path fill="#27935d" d="m46 34 2 6H38l3-7 5 1z"/><circle cx="58" cy="45" r="2" fill="#eadabe"/><path fill="#252525" d="M45.765.251a1 1 0 0 0-.709-.3 1.114 1.114 0 0 0-.713.293L.293 44.293A1 1 0 0 0 0 45v9.5a3.5 3.5 0 0 0 7 0V53h4v7.5a3.5 3.5 0 0 0 7 0V53h4v5.5a3.5 3.5 0 0 0 7 0V53h7.5a3.493 3.493 0 0 0 3.5-3.5 3.5 3.5 0 0 1 3.5-3.5H53a1 1 0 0 0 1-1 3.934 3.934 0 0 1 4-4 4 4 0 0 1 4 4v4a2 2 0 0 1-2 2H43a1 1 0 0 0 0 2h17a4 4 0 0 0 4-4v-4A63.72 63.72 0 0 0 45.765.251ZM7 51v-1a2 2 0 0 1 4 0v1Zm11 0v-3a2 2 0 0 1 4 0v3Zm11 0v-2a1.983 1.983 0 0 1 .587-1.413 2.082 2.082 0 0 1 2.867.018A1.9 1.9 0 0 1 33 49a4.767 4.767 0 0 0 .407 2Zm29-12a6.006 6.006 0 0 0-4.179 1.692A53.833 53.833 0 0 0 45.83 16.47a1 1 0 0 0-1.7 1.059A51.836 51.836 0 0 1 51.983 44H43.5a5.506 5.506 0 0 0-5.5 5.5 1.492 1.492 0 0 1-1.5 1.5c-.953 0-1.5-.729-1.5-2.038a3.839 3.839 0 0 0-1.124-2.762A4.066 4.066 0 0 0 31 45a4 4 0 0 0-4 4v9.5a1.5 1.5 0 1 1-3 0V48a4 4 0 0 0-8 0v12.5a1.5 1.5 0 1 1-3 0V50a4 4 0 0 0-8 0v4.5a1.5 1.5 0 1 1-3 0v-9.086L37.928 9.486a52.521 52.521 0 0 1 3.5 4.118 1 1 0 1 0 1.594-1.204 54.685 54.685 0 0 0-3.679-4.325l5.693-5.693a61.671 61.671 0 0 1 16.8 38.008A5.973 5.973 0 0 0 58 39Z"/><path fill="#252525" d="M43 21.5a5.5 5.5 0 1 0-5.5 5.5 5.506 5.506 0 0 0 5.5-5.5zm-9 0a3.5 3.5 0 1 1 3.5 3.5 3.5 3.5 0 0 1-3.5-3.5zM30.5 28a5.5 5.5 0 0 0 0 11 1 1 0 0 0 0-2 3.5 3.5 0 1 1 3.5-3.5 1 1 0 0 0 2 0 5.506 5.506 0 0 0-5.5-5.5zm9.581 4.606-3 7A1 1 0 0 0 38 41h10a1 1 0 0 0 .949-1.316l-2-6a1 1 0 0 0-.753-.664l-5-1a.994.994 0 0 0-1.115.586zm5.154 2.261L46.613 39h-7.1l2.087-4.86zm-23.667-.69a.989.989 0 0 0-.764-.157l-5 1a1 1 0 0 0-.661.465l-3 5A1 1 0 0 0 13 42h9a1 1 0 0 0 .986-1.165l-1-6a1 1 0 0 0-.418-.658zM14.766 40l1.864-3.106 3.554-.711.635 3.817z"/><circle cx="28.5" cy="24.5" r="1.5" fill="#252525"/><circle cx="44.5" cy="28.5" r="1.5" fill="#252525"/><circle cx="27.5" cy="42.5" r="1.5" fill="#252525"/></svg>