<svg xmlns="http://www.w3.org/2000/svg" data-name="Layer 3" viewBox="0 0 64 64" width="40" height="40"><circle cx="32" cy="36" r="26" fill="#596e79"/><path fill="#94a4ad" d="M57.515 31a26.016 26.016 0 010 10H62V31zM6 36a26.148 26.148 0 01.485-5H2V41H6.485A26.148 26.148 0 016 36z"/><circle cx="32" cy="36" r="22" fill="#d4483f"/><path fill="#dd6d65" d="M32,14A22,22,0,0,0,15.029,50H38a4,4,0,0,0,4-4V16.406A21.894,21.894,0,0,0,32,14Z"/><rect width="4" height="16" x="26" y="27" fill="#f3a33a"/><rect width="4" height="16" x="30" y="31" fill="#f7c244"/><rect width="4" height="16" x="34" y="33" fill="#f3a33a"/><rect width="15.556" height="4.243" x="16.222" y="27.879" fill="#f3a33a" transform="rotate(-45 24 30)"/><rect width="4.243" height="15.556" x="36.879" y="18.222" fill="#f3a33a" transform="rotate(-45 39 26)"/><path fill="#7d909b" d="M57.466,2.606a2.07,2.07,0,0,0-2.927,0L37,21l2.5,2.5L57.466,5.534A2.07,2.07,0,0,0,57.466,2.606Z"/><path fill="#94a4ad" d="M60.394,5.534a2.07,2.07,0,0,0-2.928,0L39.5,23.5,42,26,60.394,8.461A2.07,2.07,0,0,0,60.394,5.534Z"/><rect width="15.556" height="4.243" x="15.222" y="34.879" fill="#f7c244" transform="rotate(-45 23 37)"/><circle cx="24" cy="48" r="2" fill="#67ac5c"/><circle cx="43" cy="41" r="2" fill="#67ac5c"/><path d="M62,30H58.324a26.878,26.878,0,0,0-6.336-12.142L61.1,9.168a3.029,3.029,0,0,0-2.038-5.2,3.049,3.049,0,0,0-.889-2.07,3.131,3.131,0,0,0-4.359.018L44.256,11.941A27.379,27.379,0,0,0,23.693,10.3l.614,1.9a25.389,25.389,0,0,1,18.5,1.253l-1.454,1.525a23.068,23.068,0,0,0-17.719-.416l.728,1.864a21.032,21.032,0,0,1,15.513.1l-2.894,3.035-1.276-1.276a1,1,0,0,0-1.414,0l-3,3a1,1,0,0,0,0,1.414l11,11a1,1,0,0,0,1.414,0l3-3a1,1,0,0,0,0-1.414l-3.276-3.276,4.206-4.011a20.989,20.989,0,1,1-29-2.206l-1.274-1.542a23.013,23.013,0,1,0,31.723,2.367l1.447-1.38a24.989,24.989,0,1,1-36.573-.553l-1.443-1.384A26.86,26.86,0,0,0,5.675,30H2a1,1,0,0,0-1,1V41a1,1,0,0,0,1,1H5.68a26.994,26.994,0,0,0,52.64,0H62a1,1,0,0,0,1-1V31A1,1,0,0,0,62,30ZM55.246,3.313a1.1,1.1,0,0,1,1.513,0,1.068,1.068,0,0,1,0,1.513L39.5,22.086l-1.1-1.1ZM43,31.586,33.414,22,35,20.414,44.586,30ZM40.914,23.5,58.173,6.241a1.1,1.1,0,0,1,1.514,0A1.061,1.061,0,0,1,60,7a1.05,1.05,0,0,1-.3.74L42.017,24.6ZM3,40V32H5.3A27.378,27.378,0,0,0,5,36a27.067,27.067,0,0,0,.3,4Zm58,0H58.7a26.95,26.95,0,0,0,0-8H61Z"/><path d="M31.707,26.707a1,1,0,0,0,0-1.414l-3-3a1,1,0,0,0-1.414,0l-11,11a1,1,0,0,0,0,1.414L18.586,37l-3.293,3.293a1,1,0,0,0,0,1.414l3,3a1,1,0,0,0,1.414,0L25,39.414V43a1,1,0,0,0,1,1h3v3a1,1,0,0,0,1,1h3v1a1,1,0,0,0,1,1h4a1,1,0,0,0,1-1V33a1,1,0,0,0-1-1H35V31a1,1,0,0,0-1-1H30a.993.993,0,0,0-.93.656L28.414,30ZM18.414,34,28,24.414,29.586,26l-3.293,3.293L20,35.586ZM27,42V37.414l2-2V42Zm10-8V48H35V34Zm-6-2h2V46H31V32Zm-2.414,1L19,42.586,17.414,41l3.293-3.293L27,31.414Z"/><path d="M21 48a3 3 0 103-3A3 3 0 0021 48zm4 0a1 1 0 11-1-1A1 1 0 0125 48zM43 38a3 3 0 103 3A3 3 0 0043 38zm0 4a1 1 0 111-1A1 1 0 0143 42z"/><rect width="2.828" height="2" x="28.586" y="51" transform="rotate(-45 30 52)"/><rect width="2" height="2.828" x="20" y="21.586" transform="rotate(-45 21 23)"/><rect width="2" height="2.828" x="41" y="46.586" transform="rotate(-45 42 48)"/><rect width="2.828" height="2" x="45.586" y="34" transform="rotate(-45 47 35)"/><path d="M20 14.586a3.414 3.414 0 000 4.828l1.293 1.293 1.414-1.414L21.414 18a1.415 1.415 0 010-2L22 15.414a3.414 3.414 0 000-4.828L20.707 9.293l-1.414 1.414L20.586 12a1.415 1.415 0 010 2zM15 10.586a3.414 3.414 0 000 4.828l1.293 1.293 1.414-1.414L16.414 14a1.415 1.415 0 010-2L17 11.414a3.414 3.414 0 000-4.828L15.707 5.293 14.293 6.707 15.586 8a1.415 1.415 0 010 2z"/></svg>