<svg xmlns="http://www.w3.org/2000/svg" enable-background="new 0 0 504 440.221" viewBox="0 0 504 440.221" width="40" height="40"><path fill="#5d5560" d="M82.37 340.3c0 0 39.14 95.92 169.63 95.92s169.63-95.92 169.63-95.92H82.37zM65.39 183.79l-38.85 12.37C13.12 200.43 4 212.9 4 226.99v53.61c0 14.09 9.12 26.56 22.54 30.84l36.91 11.75 1.98-139.28L65.39 183.79zM477.46 196.16l-39.09-12.45 2.18 139.48 36.91-11.75c13.42-4.28 22.54-16.75 22.54-30.84v-53.61C500 212.9 490.88 200.43 477.46 196.16z"/><path fill="#655f68" d="M438.37,183.71H65.63l-0.24,0.08l0.04,0.12c-20.04,20.61-31.58,44.8-31.58,70.68
			c0,25.01,10.78,48.45,29.6,68.6h0.01c5.6,6.01,11.93,11.73,18.91,17.11c39.99,30.86,101.12,50.59,169.63,50.59
			s129.64-19.73,169.63-50.59c6.98-5.38,13.31-11.1,18.91-17.11h0.01c18.82-20.15,29.6-43.59,29.6-68.6
			C470.15,228.63,458.53,204.36,438.37,183.71z"/><path fill="#5d5560" d="M438.37,183.71c-1.09-5.94-1.85-12.32-1.85-19.59H67.48c0,7.27-0.76,13.65-1.85,19.59
			c-2.74,14.94-7.56,27.16-7.56,44.11c0,76.41,86.82,138.35,193.93,138.35s193.93-61.94,193.93-138.35
			C445.93,210.87,441.11,198.65,438.37,183.71z"/><path fill="#655f68" d="M436.52,164.12c0,88.43-82.61,160.12-184.52,160.12S67.48,252.55,67.48,164.12S150.09,4,252,4
			S436.52,75.69,436.52,164.12z"/><path fill="#524956" d="M412.1,164.12c0,24.47-7.44,47.44-20.49,67.34c0,0,8.29-46.94-0.77-76.23
			c-9.05-29.3-32.52-42.28-32.52-42.28c1-5.26,0.95-10.92-1.78-15.51c-7.23-12.17-29.52-9.38-29.52-9.38s-13.92-20.98-29.58-15.03
			c-0.85,0.32-1.65,0.74-2.39,1.23c0,0-24.7-17.13-60.22-13.95c-35.51,3.17-51.47,24.55-51.47,24.55
			c-9.09-4.19-18.43-5.89-25.59-2.67c-12.77,5.73-19.81,22.78-22.78,36.38v0.01c0,0-15.58,10.97-24.92,28.51
			c-9.23,17.34-12.34,52.92-12.41,53.7c-3.76-11.67-5.76-23.97-5.76-36.67c0-75.93,71.68-137.48,160.1-137.48
			S412.1,88.19,412.1,164.12z"/><path fill="#e15c63" d="M174.9 251.23c-7.91 11.47-6.62 30.1-6.62 30.1-10.62-5.6-20.41-12.23-29.19-19.74C148.92 255.6 160.86 252.14 174.9 251.23zM110.07 147.09c9.34-17.54 24.92-28.51 24.92-28.51-1.17 5.39-1.71 10.24-1.71 13.62 0 5.47 2.31 12.63 5.81 18.78 0 0-14.64 12.75-14.64 31.46 0 18.7 20.22 33.18 20.22 33.18-6.27 2.2-10.88 5.15-13.47 8.66-5.88 7.96-3.78 26.21-3.78 26.21-13.59-14.44-23.85-31.29-29.76-49.69 0 0 0 0 0-.01C97.73 200.01 100.84 164.43 110.07 147.09zM368.79 209.29c-4.88-14.63-27.2-14.25-27.2-14.25l-5.04-10.29c-4.95-10.13-17.18-14.33-27.31-9.38l-16.2 7.93c0 0-29.26-35.02-46.2-25.49-16.94 9.52 3.7 49.83 3.7 49.83-1.53 3.89-1.05 8.52 1.84 12.11 3.32 4.11 7.18 7.65 11.67 10.54 1.24.81 2.52 1.55 3.85 2.25 6.23 3.27 13.53 5.43 22.06 6.31 2.75.28 5.64.44 8.66.45 0 0 18.92 17.51 39.44 14.55S373.66 223.92 368.79 209.29zM390.84 155.23c9.06 29.29.77 76.23.77 76.23-18.77 28.64-49.14 50.92-85.65 62.14 0 0-8.74-32.77-37.31-30.99-10.67.66-18.14 6.16-23.31 12.78-.55-.97-1.16-1.91-1.82-2.82-3.74-5.14-11.65-12.54-21.01-18.72 0 0 1.6-18.33-3.3-26.17-2.55-4.1-8.11-8.4-16.05-11.59.43-.26 14.15-8.8 14.15-24.08 0-15.52-18.16-31.62-18.16-31.62 2.82-.11 5.62-.62 8.17-1.76 11.87-5.3 14.84-31.55 6.91-46.98-4.72-9.17-17.54-20.66-30.87-26.79 0 0 15.96-21.38 51.47-24.55 35.52-3.18 60.22 13.95 60.22 13.95-12.96 8.56-10.43 41.07-10.43 41.07s20.55 1.42 33.29 11.26c12.73 9.83 19.3 29.1 19.3 29.1s15.86 2.08 20.99-6.6c5.12-8.69-6.03-19.78-6.03-19.78s4.5-7.65 6.15-16.36C358.32 112.95 381.79 125.93 390.84 155.23z"/><path fill="#f69552" d="M368.79 209.29c4.87 14.63-10.21 41.6-30.73 44.56s-39.44-14.55-39.44-14.55c4.58.02 9.09-1.09 13.2-3.1l21.92-10.72c10.13-4.95 14.33-17.18 9.38-27.31l-1.53-3.13C341.59 195.04 363.91 194.66 368.79 209.29zM269.94 194.59l-13.41 6.56c-2.88 1.41-4.93 3.78-5.99 6.49 0 0-20.64-40.31-3.7-49.83 16.94-9.53 46.2 25.49 46.2 25.49L269.94 194.59zM144.67 215.62c0 0-20.22-14.48-20.22-33.18 0-18.71 14.64-31.46 14.64-31.46 4.13 7.27 9.92 13.14 15.49 13.14 10.29 0 23.68-8.43 23.68-8.43s10.59 5.09 20.89 4.7c0 0 18.16 16.1 18.16 31.62 0 15.28-13.72 23.82-14.15 24.08 0 0 0 0-.01 0-7.25-2.9-16.5-4.86-27.26-4.86-.62 0-1.23 0-1.84.01C162.24 211.39 152.24 212.96 144.67 215.62z"/><path fill="#ffc05a" d="M178.26 155.69c0 0-13.39 8.43-23.68 8.43-5.57 0-11.36-5.87-15.49-13.14-3.5-6.15-5.81-13.31-5.81-18.78 0-3.38.54-8.23 1.71-13.62v-.01c2.97-13.6 10.01-30.65 22.78-36.38 7.16-3.22 16.5-1.52 25.59 2.67 13.33 6.13 26.15 17.62 30.87 26.79 7.93 15.43 4.96 41.68-6.91 46.98-2.55 1.14-5.35 1.65-8.17 1.76C188.85 160.78 178.26 155.69 178.26 155.69zM305.96 293.6c-16.86 5.19-35.03 8.01-53.96 8.01 0 0 0-14.76-6.66-26.22 5.17-6.62 12.64-12.12 23.31-12.78C297.22 260.83 305.96 293.6 305.96 293.6zM219.21 227.68c4.9 7.84 3.3 26.17 3.3 26.17-11.88-7.85-26.09-13.75-36.99-10.55-4.69 1.38-8.11 4.29-10.62 7.93-14.04.91-25.98 4.37-35.81 10.36-4.12-3.51-8.01-7.22-11.67-11.1 0 0-2.1-18.25 3.78-26.21 2.59-3.51 7.2-6.46 13.47-8.66 7.57-2.66 17.57-4.23 29.38-4.38.61-.01 1.22-.01 1.84-.01 10.76 0 20.01 1.96 27.26 4.86v.01c0 0 0 0 .01-.01C211.1 219.28 216.66 223.58 219.21 227.68z"/><path fill="#c8a57b" d="M174.9 251.23c2.51-3.64 5.93-6.55 10.62-7.93 10.9-3.2 25.11 2.7 36.99 10.55 9.36 6.18 17.27 13.58 21.01 18.72.66.91 1.27 1.85 1.82 2.82 6.66 11.46 6.66 26.22 6.66 26.22-30.69 0-59.36-7.42-83.72-20.28C168.28 281.33 166.99 262.7 174.9 251.23zM264.05 230.29c-4.49-2.89-8.35-6.43-11.67-10.54-2.89-3.59-3.37-8.22-1.84-12.11 1.06-2.71 3.11-5.08 5.99-6.49l13.41-6.56 23.1-11.29 16.2-7.93c10.13-4.95 22.36-.75 27.31 9.38l5.04 10.29 1.53 3.13c4.95 10.13.75 22.36-9.38 27.31l-21.92 10.72c-4.11 2.01-8.62 3.12-13.2 3.1-3.02-.01-5.91-.17-8.66-.45-8.53-.88-15.83-3.04-22.06-6.31C266.57 231.84 265.29 231.1 264.05 230.29z"/><path fill="#6fceae" d="M317.91,126.59c-12.74-9.84-33.29-11.26-33.29-11.26s-2.53-32.51,10.43-41.07
			c0.74-0.49,1.54-0.91,2.39-1.23c15.66-5.95,29.58,15.03,29.58,15.03s22.29-2.79,29.52,9.38c2.73,4.59,2.78,10.25,1.78,15.51
			c-1.65,8.71-6.15,16.36-6.15,16.36s11.15,11.09,6.03,19.78c-5.13,8.68-20.99,6.6-20.99,6.6S330.64,136.42,317.91,126.59z"/><path fill="#3a322b" d="M252,305.606c90.487,0,164.104-63.47,164.104-141.484S342.487,22.638,252,22.638
		S87.896,86.107,87.896,164.122S161.513,305.606,252,305.606z M131.267,248.642c-0.448-5.488-0.543-16.987,3.151-21.988
		c4.081-5.524,17.117-11.427,41.471-11.427c22.628,0,36.277,8.713,39.931,14.57c2.344,3.758,2.939,11.267,2.95,17.149
		c-11.353-6.429-24.001-10.527-34.375-7.48c-5.009,1.471-8.779,4.342-11.625,7.915c-12.64,1.04-23.767,4.159-33.146,9.291
		C136.715,254.093,133.927,251.415,131.267,248.642z M210.669,113.479c4.546,8.839,5.314,22.459,1.827,32.386
		c-1.633,4.648-4.051,7.887-6.809,9.118c-7.5,3.347-18.088,0.096-23-1.779c0.514-3.802,1.208-10.578,0.971-18.278
		c-0.067-2.208-1.89-3.909-4.121-3.875c-2.208,0.067-3.943,1.913-3.875,4.121c0.243,7.912-0.599,14.911-1.058,18.04
		c-4.411,2.53-13.421,6.91-20.025,6.91c-6.953,0-17.302-16.699-17.302-27.919c0-10.722,6.368-39.29,22.13-46.364
		c2.073-0.931,4.411-1.354,6.923-1.354C181.909,84.485,204.136,100.777,210.669,113.479z M204.928,209.6l-8.343-21.568
		c-0.797-2.06-3.114-3.084-5.173-2.287c-2.061,0.797-3.085,3.113-2.288,5.174l7.27,18.794c-5.635-1.448-12.007-2.351-19.003-2.466
		l-5.249-29.116c-0.392-2.174-2.473-3.618-4.646-3.227c-2.174,0.392-3.619,2.472-3.227,4.646l5.016,27.825
		c-7.436,0.337-14.147,1.254-19.973,2.696l2.643-23.653c0.246-2.195-1.335-4.174-3.531-4.42c-2.194-0.237-4.175,1.337-4.419,3.531
		l-2.47,22.107c-5.474-5.333-13.088-14.645-13.088-25.201c0-11.337,6.138-20.408,10.067-25.054
		c4.503,6.209,10.202,10.74,16.065,10.74c9.031,0,19.714-5.529,23.958-7.95c3.512,1.437,11.098,4.114,19.031,4.22
		c3.7,3.581,15.745,16.122,15.745,27.618C213.312,200.196,208.501,206.239,204.928,209.6z M134.185,150.194
		c-4.432,4.697-13.739,16.441-13.739,32.241c0,14.308,10.195,26.052,16.68,32.077c-3.947,2.067-7.04,4.541-9.143,7.387
		c-3.376,4.571-4.547,11.498-4.855,17.463c-9.457-11.806-16.757-24.969-21.406-39.074c0.527-5.438,3.803-36.146,11.882-51.322
		c4.613-8.664,10.905-15.703,15.847-20.439c-0.118,1.395-0.174,2.632-0.174,3.674C129.276,137.468,131.143,144.08,134.185,150.194z
		 M250.143,275.9c5.148-5.714,11.443-8.846,18.755-9.301c19.758-1.22,28.853,16.386,31.932,24.312
		c-14.226,4.016-29.346,6.333-45.037,6.654C255.369,292.602,254.074,283.883,250.143,275.9z M247.748,297.555
		c-27.537-0.633-53.313-7.398-75.536-18.746c-0.046-6.922,0.959-27.708,14.437-31.666c17.159-5.041,45.673,16.821,53.63,27.781
		C245.533,282.162,247.212,292.077,247.748,297.555z M164.296,274.491c-6.357-3.705-12.375-7.803-18.014-12.248
		c6.38-3.058,13.63-5.165,21.675-6.29C165.417,262.448,164.551,269.437,164.296,274.491z M308.532,288.545
		c-4.74-12.788-17.482-31.336-40.132-29.93c-8.771,0.546-16.367,4.012-22.654,10.297c-3.875-4.85-10.816-11.297-19.092-17.015
		c0.291-5.56,0.467-19.098-4.046-26.333c-2.22-3.558-6.303-7.225-11.97-10.336c4.678-4.45,10.674-12.283,10.674-23.218
		c0-11.378-8.262-22.603-14.04-29.063c0.566-0.198,1.126-0.413,1.677-0.659c4.854-2.169,8.691-6.931,11.094-13.771
		c4.215-12,3.286-27.912-2.26-38.696c-4.362-8.48-14.608-18.336-26.104-25.106c-0.567-0.334-1.174-0.68-1.81-1.033
		c6.084-5.886,20.752-17.197,45.321-19.391c25.235-2.252,44.964,6.299,53.286,10.738c-9.671,12.331-8.101,37.277-7.84,40.615
		c0.154,1.975,1.733,3.539,3.709,3.679c0.194,0.014,19.521,1.474,31.119,10.432c11.604,8.963,17.903,27.047,17.964,27.226
		c0.491,1.439,1.756,2.477,3.264,2.675c0.227,0.029,1.986,0.249,4.512,0.249c5.894,0,15.958-1.194,20.437-8.783
		c5.063-8.578-1.165-18.11-4.636-22.381c1.071-2.143,2.562-5.443,3.776-9.31c6.906,5.174,20.125,17.2,26.242,36.98
		c7.983,25.819,1.874,66.812,0.803,73.441C370.172,256.42,342.168,277.331,308.532,288.545z M349.342,132.136
		c0.089,0.09,8.832,9.117,5.409,14.917c-2.568,4.352-10.122,5.024-14.691,4.849c-1.984-4.955-7.094-16.2-15.36-24.589l11.304-6.459
		c1.918-1.096,2.584-3.539,1.489-5.457c-1.097-1.917-3.538-2.587-5.458-1.488l-13.888,7.936c-3.147-2.106-6.584-3.793-10.022-5.149
		l5.246-12.792c0.838-2.044-0.139-4.38-2.183-5.219c-2.042-0.835-4.38,0.14-5.218,2.184l-5.454,13.299
		c-4.845-1.333-9.195-2.065-12.069-2.445c-0.294-10.576,1.061-31.406,10.414-34.955c12.465-4.734,24.704,13.333,24.823,13.511
		c0.837,1.264,2.32,1.94,3.825,1.759c5.489-0.672,20.783-0.646,25.595,7.449c4.919,8.274-1.496,22.869-4.38,27.791
		C347.798,128.845,348.056,130.846,349.342,132.136z M252,30.638c86.076,0,156.104,59.881,156.104,133.484
		c0,16.473-3.517,32.256-9.928,46.837c1.4-16.533,1.872-39.507-3.511-56.914c-7.8-25.225-25.547-38.846-32.016-43.116
		c0.619-5.278,0.143-10.801-2.67-15.532c-7-11.775-24.578-11.895-31.051-11.507c-4.262-5.564-17.474-20.459-32.907-14.604
		c-0.272,0.103-0.524,0.233-0.786,0.349c-6.852-4.124-29.735-16.083-60.757-13.314c-30.01,2.68-46.693,17.701-52.237,23.7
		c-7.884-3.195-17.656-5.275-26.11-1.481c-13.919,6.247-21.315,23.639-24.63,37.637c-3.938,3.008-16.687,13.495-24.958,29.031
		c-4.661,8.756-7.795,21.657-9.805,32.798c-0.554-4.565-0.842-9.196-0.842-13.884C95.896,90.519,165.924,30.638,252,30.638z
		 M478.674,192.348l-36.769-11.71c-0.832-5.08-1.388-10.5-1.388-16.516C440.518,73.625,355.949,0,252,0
		S63.482,73.625,63.482,164.122c0,6.016-0.556,11.436-1.388,16.516l-36.769,11.71C10.178,197.172,0,211.095,0,226.993v53.609
		c0,15.897,10.178,29.82,25.326,34.645l35.845,11.416c5.338,5.626,11.333,11.029,17.948,16.18
		c2.209,4.953,12.703,26.558,36.428,48.361c24.332,22.361,67.757,49.017,136.454,49.017s112.122-26.655,136.454-49.017
		c23.725-21.803,34.218-43.408,36.428-48.361c6.615-5.151,12.61-10.554,17.948-16.18l35.845-11.416
		C493.822,310.423,504,296.5,504,280.603v-53.609C504,211.095,493.822,197.172,478.674,192.348z M66.529,198.164
		c0.176-0.729,0.352-1.462,0.528-2.196C84.136,271.275,160.565,328.244,252,328.244s167.864-56.969,184.943-132.276
		c0.176,0.734,0.352,1.466,0.528,2.196c2.295,9.519,4.462,18.509,4.462,29.657c0,74.079-85.204,134.347-189.933,134.347
		S62.067,301.9,62.067,227.821C62.067,216.673,64.234,207.683,66.529,198.164z M252,8c99.538,0,180.518,70.036,180.518,156.122
		S351.538,320.244,252,320.244S71.482,250.208,71.482,164.122S152.462,8,252,8z M27.753,307.624C15.938,303.861,8,293.002,8,280.603
		v-53.609c0-12.4,7.938-23.26,19.753-27.022l25.352-8.074c-15.259,19.352-23.254,40.792-23.254,62.691
		c0,21.342,7.434,41.919,21.525,60.56L27.753,307.624z M383.041,385.314C359.756,406.713,318.12,432.221,252,432.221
		c-65.92,0-107.488-25.363-130.751-46.641c-12.746-11.658-21.554-23.4-27.17-32.209c0.517,0.33,1.024,0.664,1.547,0.991
		c41.831,26.137,97.365,40.531,156.374,40.531s114.543-14.395,156.374-40.531c0.533-0.333,1.049-0.673,1.575-1.009
		C404.388,362.082,395.671,373.707,383.041,385.314z M252,386.894c-118.082,0-214.148-59.352-214.148-132.306
		c0-19.528,7.015-38.753,20.422-56.299c-2.143,8.941-4.207,18.273-4.207,29.532c0,38.282,20.768,74.181,58.479,101.082
		c37.302,26.61,86.828,41.265,139.455,41.265s102.153-14.654,139.455-41.265c37.71-26.901,58.479-62.8,58.479-101.082
		c0-11.261-2.064-20.594-4.208-29.537c13.409,17.546,20.423,36.77,20.423,56.304C466.148,327.542,370.082,386.894,252,386.894z
		 M496,280.603c0,12.399-7.938,23.259-19.753,27.021l-23.624,7.524c14.091-18.641,21.525-39.218,21.525-60.56
		c0-21.905-7.997-43.342-23.257-62.692l25.355,8.075C488.062,203.733,496,214.593,496,226.993V280.603z M225.502,279.176
		c1.469,1.65,1.322,4.179-0.328,5.647c-0.762,0.679-1.712,1.013-2.658,1.013c-1.102,0-2.199-0.452-2.989-1.34
		c-7.524-8.452-16.772-14.706-27.486-18.587c-2.077-0.752-3.151-3.046-2.398-5.123c0.752-2.076,3.046-3.152,5.123-2.398
		C206.743,262.727,217.084,269.721,225.502,279.176z M146.154,234.566c-0.741-2.082,0.346-4.369,2.427-5.11
		c8.349-2.972,17.401-4.191,26.91-3.626c2.205,0.132,3.886,2.025,3.755,4.23c-0.131,2.206-2.026,3.885-4.231,3.756
		c-8.428-0.5-16.42,0.567-23.752,3.177c-0.443,0.157-0.896,0.232-1.341,0.232C148.278,237.226,146.737,236.204,146.154,234.566z
		 M167.562,95.772c1.981-0.977,4.38-0.162,5.356,1.819c2.632,5.342,4.882,11.159,6.879,17.785c0.637,2.115-0.561,4.347-2.676,4.984
		c-0.385,0.116-0.774,0.171-1.156,0.171c-1.719,0-3.307-1.116-3.829-2.847c-1.868-6.199-3.96-11.615-6.395-16.557
		C164.766,99.146,165.581,96.749,167.562,95.772z M371.42,174.605c-0.724-2.086-3.001-3.192-5.091-2.466
		c-2.087,0.725-3.191,3.004-2.466,5.091c2.402,6.917,3.269,14.193,2.613,21.721c-7.115-6.179-17.527-7.536-22.353-7.83l-3.977-8.133
		c-2.865-5.858-7.841-10.251-14.01-12.368c-6.169-2.114-12.793-1.703-18.652,1.161l-13.439,6.572
		c-7.618-8.546-32.094-33.63-49.166-24.032c-18.318,10.299-2.775,45.174,1.366,53.674c-0.054,0.205-0.126,0.403-0.172,0.611
		c-1.072,4.831,0.092,9.807,3.195,13.652c4.668,5.786,10.31,10.438,16.769,13.825c8.66,4.543,19.107,6.937,31.034,7.172
		c4.197,3.546,19.014,14.934,36.209,14.934c1.76,0,3.547-0.119,5.348-0.379c10.837-1.563,21.1-9.018,28.158-20.454
		c5.942-9.629,8.228-20.28,6.13-28.172C375.708,197.153,375.213,185.523,371.42,174.605z M248.799,161.294
		c9.976-5.608,28.495,10.841,37.746,20.727l-15.164,7.416l-10.071-15.681c-1.194-1.859-3.668-2.397-5.527-1.204
		s-2.398,3.668-1.204,5.526l9.568,14.897l-9.374,4.584c-1.26,0.616-2.404,1.395-3.441,2.284
		C246.083,187.538,239.521,166.511,248.799,161.294z M255.494,217.235c-1.566-1.941-2.153-4.454-1.611-6.895
		c0.544-2.453,2.149-4.491,4.404-5.594l52.711-25.778c2.281-1.116,4.733-1.679,7.199-1.679c1.794,0,3.595,0.298,5.342,0.897
		c4.148,1.423,7.493,4.377,9.42,8.315l6.564,13.423c1.927,3.938,2.204,8.393,0.78,12.541c-1.423,4.147-4.376,7.493-8.316,9.419
		l-21.922,10.721v0.001c-2.925,1.43-6.057,2.302-9.174,2.583l14.77-11.878c1.721-1.385,1.995-3.902,0.61-5.624
		c-1.385-1.722-3.903-1.994-5.624-0.61l-21.861,17.58c-6.39-0.808-12.146-2.407-17.207-4.784l33.759-23.821
		c1.805-1.273,2.236-3.77,0.962-5.574c-1.273-1.805-3.77-2.235-5.574-0.963l-36.703,25.898
		C260.874,223.097,258.018,220.363,255.494,217.235z M359.978,233.155c-5.724,9.275-14.132,15.533-22.491,16.738
		c-11.159,1.605-22.048-3.691-28.912-8.123c1.705-0.529,3.383-1.183,5.005-1.977l21.922-10.721
		c5.859-2.866,10.251-7.842,12.369-14.011c1.743-5.08,1.767-10.467,0.123-15.482c6.04,0.972,14.558,3.652,16.999,10.975
		C366.896,216.266,364.927,225.136,359.978,233.155z M261.609,109.564c7.721,17.653,20.217,28.963,38.203,34.572
		c2.109,0.657,3.286,2.9,2.627,5.01c-0.534,1.712-2.113,2.81-3.817,2.81c-0.395,0-0.795-0.059-1.192-0.183
		c-20.048-6.253-34.566-19.376-43.151-39.004c-0.885-2.023,0.038-4.382,2.062-5.268
		C258.366,106.619,260.724,107.539,261.609,109.564z M227.843,94.188c-0.62,0.348-1.292,0.513-1.955,0.513
		c-1.399,0-2.757-0.735-3.491-2.043c-1.082-1.926-0.397-4.364,1.529-5.446c9.251-5.192,19.855-6.491,31.521-3.855
		c2.155,0.486,3.507,2.628,3.021,4.783s-2.63,3.509-4.783,3.02C243.873,88.941,235.42,89.934,227.843,94.188z"/></svg>