<svg xmlns="http://www.w3.org/2000/svg" viewBox="0 0 512 512"><g data-name="8. Spaghetti" width="40" height="40"><path fill="#df6117" d="M280,198.88V264H184V205.86A120,120,0,0,1,280,198.88Z"/><path fill="#e38343" d="M280,48V264H184V48a16,16,0,0,1,32,0,16,16,0,0,1,32,0,16,16,0,0,1,32,0Z"/><path d="M216,272H184a8,8,0,0,1-8-8V48a24,24,0,0,1,48,0V264A8,8,0,0,1,216,272Zm-24-16h16V48a8,8,0,0,0-16,0Z"/><path d="M248,272H216a8,8,0,0,1-8-8V48a24,24,0,0,1,48,0V264A8,8,0,0,1,248,272Zm-24-16h16V48a8,8,0,0,0-16,0Z"/><path d="M280,272H248a8,8,0,0,1-8-8V48a24,24,0,0,1,48,0V264A8,8,0,0,1,280,272Zm-24-16h16V48a8,8,0,0,0-16,0Z"/><path fill="#cd4f5f" d="M376,256a40,40,0,1,1-40-40A40,40,0,0,1,376,256Z"/><path fill="#b24654" d="M334.66,296a95.71,95.71,0,0,0-28.89-53.9,119.92,119.92,0,0,1,69.75,7.74A40,40,0,0,1,334.66,296Z"/><path d="M336,304a48,48,0,1,1,48-48A48.05,48.05,0,0,1,336,304Zm0-80a32,32,0,1,0,32,32A32,32,0,0,0,336,224Z"/><path fill="#b1da7a" d="M488,376v32H344V328.83c0-30.77,24.49-56.43,55.26-56.83A56,56,0,0,1,456,328a3.91,3.91,0,0,0,2.39,3.62A48,48,0,0,1,488,376Z"/><path fill="#96bf5b" d="M488,376v32H344V344H475.76A47.76,47.76,0,0,1,488,376Z"/><path d="M488,416H344a8,8,0,0,1-8-8V328.83c0-35.29,28.33-64.38,63.16-64.82A64,64,0,0,1,464,325.36,55.86,55.86,0,0,1,496,376v32A8,8,0,0,1,488,416ZM352,400H480V376a39.91,39.91,0,0,0-24.68-37A11.88,11.88,0,0,1,448,328a48,48,0,0,0-48-48c-26.5,0-48,22.11-48,48.83Z"/><circle cx="136" cy="264" r="40" fill="#cd4f5f"/><path d="M136,312a48,48,0,1,1,48-48A48.05,48.05,0,0,1,136,312Zm0-80a32,32,0,1,0,32,32A32,32,0,0,0,136,232Z"/><circle cx="112" cy="344" r="72" fill="#e38343"/><path d="M112,424a80,80,0,1,1,80-80A80.09,80.09,0,0,1,112,424Zm0-144a64,64,0,1,0,64,64A64.07,64.07,0,0,0,112,280Z"/><circle cx="240" cy="312" r="96" fill="#e38343"/><path fill="#df6117" d="M336,312c0,62.49-58.84,108.24-119.16,93.18-28.34-69.36,13.73-148.91,88.93-163.1A95.76,95.76,0,0,1,336,312Z"/><path fill="#df6117" d="M281.65,398.52A96,96,0,0,1,176.19,240.28C255.27,245.68,306.79,324.73,281.65,398.52Z"/><path d="M240,416A104,104,0,1,1,344,312,104.11,104.11,0,0,1,240,416Zm0-192a88,88,0,1,0,88,88A88.1,88.1,0,0,0,240,224Z"/><path d="M240,384a72,72,0,1,1,72-72A72.08,72.08,0,0,1,240,384Zm0-128a56,56,0,1,0,56,56A56.06,56.06,0,0,0,240,256Z"/><circle cx="328" cy="360" r="96" fill="#e38343"/><path fill="#df6117" d="M328,456c-59.84,0-104.59-54-94.66-112H422.66C432.6,402.05,387.75,456,328,456Z"/><path d="M328,464A104,104,0,1,1,432,360,104.11,104.11,0,0,1,328,464Zm0-192a88,88,0,1,0,88,88A88.1,88.1,0,0,0,328,272Z"/><path d="M328,432a72,72,0,1,1,72-72A72.08,72.08,0,0,1,328,432Zm0-128a56,56,0,1,0,56,56A56.06,56.06,0,0,0,328,304Z"/><path d="M328,400a40,40,0,1,1,40-40A40,40,0,0,1,328,400Zm0-64a24,24,0,1,0,24,24A24,24,0,0,0,328,336Z"/><circle cx="168" cy="360" r="96" fill="#e38343"/><path fill="#df6117" d="M168,456c-59.84,0-104.59-54-94.66-112H262.66C272.6,402.05,227.75,456,168,456Z"/><path d="M168,464A104,104,0,1,1,272,360,104.11,104.11,0,0,1,168,464Zm0-192a88,88,0,1,0,88,88A88.1,88.1,0,0,0,168,272Z"/><path d="M168,432a72,72,0,1,1,72-72A72.08,72.08,0,0,1,168,432Zm0-128a56,56,0,1,0,56,56A56.06,56.06,0,0,0,168,304Z"/><path d="M168,400a40,40,0,1,1,40-40A40,40,0,0,1,168,400Zm0-64a24,24,0,1,0,24,24A24,24,0,0,0,168,336Z"/><path fill="#dcdcdc" d="M504,368A112,112,0,0,1,392,480H120A112,112,0,0,1,8,368Z"/><path fill="#dcdcdc" d="M504,368A112,112,0,0,1,392,480H120A112,112,0,0,1,8,368Z"/><path fill="#bbb" d="M470.38,448A111.64,111.64,0,0,1,392,480H120a111.64,111.64,0,0,1-78.38-32Z"/><path d="M392,488H184a8,8,0,0,1,0-16H392a104.15,104.15,0,0,0,103.7-96H16.3A104.15,104.15,0,0,0,120,472h32a8,8,0,0,1,0,16H120A120.13,120.13,0,0,1,0,368a8,8,0,0,1,8-8H504a8,8,0,0,1,8,8A120.13,120.13,0,0,1,392,488Z"/><path fill="#dcdcdc" d="M280,56h22.11A28.94,28.94,0,0,1,328,72a28.94,28.94,0,0,0,25.89,16H504v48H353.89A28.94,28.94,0,0,0,328,152a28.94,28.94,0,0,1-25.89,16H280Z"/><path fill="#bbb" d="M328,128a28.94,28.94,0,0,1-25.89,16H280v24h22.11A28.94,28.94,0,0,0,328,152h0a28.94,28.94,0,0,1,25.89-16H504V112H353.89A28.94,28.94,0,0,0,328,128Z"/><path d="M302.11,176H280a8,8,0,0,1-8-8V56a8,8,0,0,1,8-8h22.11a36.76,36.76,0,0,1,33.05,20.42A20.92,20.92,0,0,0,353.89,80H416a8,8,0,0,1,0,16H353.89a37,37,0,0,1-33.05-20.42A20.81,20.81,0,0,0,302.11,64H288v96h14.11a20.92,20.92,0,0,0,18.73-11.58A36.76,36.76,0,0,1,353.89,128H504a8,8,0,0,1,0,16H353.89a20.81,20.81,0,0,0-18.73,11.58A37,37,0,0,1,302.11,176Z"/><path d="M504 96H448a8 8 0 010-16h56a8 8 0 010 16zM470.38 456H41.62a8 8 0 010-16H470.38a8 8 0 010 16zM80 160a8 8 0 01-6.65-12.44l6.08-9.11a7.78 7.78 0 00-3-11.29 23.8 23.8 0 01-9.15-34.48l6.07-9.12a8 8 0 1113.32 8.88l-6.08 9.11a7.78 7.78 0 003 11.29 23.8 23.8 0 019.15 34.48l-6.07 9.12A8 8 0 0180 160zM144 192a8 8 0 01-6.65-12.44l6.08-9.11a7.78 7.78 0 00-3-11.29 23.8 23.8 0 01-9.15-34.48l6.07-9.12a8 8 0 0113.32 8.88l-6.08 9.11a7.78 7.78 0 003 11.29 23.8 23.8 0 019.15 34.48l-6.07 9.12A8 8 0 01144 192zM40 232a8 8 0 01-6.65-12.44l6.08-9.11a7.78 7.78 0 00-3-11.29 23.8 23.8 0 01-9.15-34.48l6.07-9.12a8 8 0 0113.32 8.88l-6.08 9.11a7.78 7.78 0 003 11.29 23.8 23.8 0 019.15 34.48l-6.07 9.12A8 8 0 0140 232z"/></g></svg>