<svg xmlns="http://www.w3.org/2000/svg" data-name="Layer 1" viewBox="0 0 64 64" width="40" height="40"><path fill="#f4a351" d="M8 47s5-14 19-20h15a25.478 25.478 0 0 0-20 14 19.387 19.387 0 0 0-14 6Z"/><path fill="#f28939" d="M27 27C13 33 8 47 8 47V33a20.839 20.839 0 0 1 6.4-4.44 18.02 18.02 0 0 1 4.31-1.28A18.647 18.647 0 0 1 22 27Z"/><path fill="#c89d84" d="M15.32 22.41a9.093 9.093 0 0 0 3.39 4.87 18.02 18.02 0 0 0-4.31 1.28A20.839 20.839 0 0 0 8 33V21l4 4a17.17 17.17 0 0 1 3.32-2.59Z"/><path fill="#d74c4c" d="M8 9.55c6.38 1.23 9.92 4.2 11.29 5.64A19.585 19.585 0 0 0 8 21Z"/><path fill="#e47f7f" d="M31 15h-9a18.5 18.5 0 0 0-2.71.19C17.92 13.75 14.38 10.78 8 9.55V7a21.227 21.227 0 0 1 3.58-2.91C26.13 6.23 31 15 31 15Z"/><path fill="#d74c4c" d="M42 15H31S26.13 6.23 11.58 4.09A18.748 18.748 0 0 1 22 1a25.478 25.478 0 0 1 20 14zm14-8v14S51 7 37 1h5a18.852 18.852 0 0 1 7.6 1.56A20.839 20.839 0 0 1 56 7z"/><path fill="#e47f7f" d="M37 1c14 6 19 20 19 20a19.387 19.387 0 0 0-14-6A25.478 25.478 0 0 0 22 1Z"/><path fill="#ba3131" d="M15.32 22.41A17.17 17.17 0 0 0 12 25l-4-4a19.585 19.585 0 0 1 11.29-5.81A18.5 18.5 0 0 1 22 15h20a19.387 19.387 0 0 1 14 6l-4 4a17.027 17.027 0 0 0-12.07-5H24.07a17.021 17.021 0 0 0-6.53 1.3 17.682 17.682 0 0 0-2.22 1.11Z"/><path fill="#e6e6e6" d="M48.68 22.41a9.093 9.093 0 0 1-3.39 4.87A18.647 18.647 0 0 0 42 27H22a18.647 18.647 0 0 0-3.29.28 9.093 9.093 0 0 1-3.39-4.87 17.682 17.682 0 0 1 2.22-1.11 17.021 17.021 0 0 1 6.53-1.3h15.86a17.135 17.135 0 0 1 8.75 2.41Z"/><path fill="#c89d84" d="M56 21v12a21.227 21.227 0 0 0-3.58-2.91 18.6 18.6 0 0 0-7.13-2.81 9.093 9.093 0 0 0 3.39-4.87A17.17 17.17 0 0 1 52 25Z"/><path fill="#f28939" d="M45.29 27.28a18.6 18.6 0 0 1 7.13 2.81C37.87 32.23 33 41 33 41H22a25.478 25.478 0 0 1 20-14 18.647 18.647 0 0 1 3.29.28Z"/><path fill="#f4a351" d="M56 33v2.55c-6.38 1.23-9.92 4.2-11.29 5.64A18.5 18.5 0 0 0 42 41h-9s4.87-8.77 19.42-10.91A21.227 21.227 0 0 1 56 33Z"/><path fill="#f28939" d="M56 35.55V47a19.585 19.585 0 0 0-11.29-5.81c1.37-1.44 4.91-4.41 11.29-5.64Z"/><path fill="#ef6b07" d="M15.33 48.4A17.284 17.284 0 0 0 12 51l-4-4a19.387 19.387 0 0 1 14-6h20a18.5 18.5 0 0 1 2.71.19A19.585 19.585 0 0 1 56 47l-4 4a17.284 17.284 0 0 0-3.33-2.6 16.845 16.845 0 0 0-2.21-1.1 17.021 17.021 0 0 0-6.53-1.3H24.07a17.09 17.09 0 0 0-8.74 2.4Z"/><path fill="#e6e6e6" d="M46.46 47.3a16.845 16.845 0 0 1 2.21 1.1A8.993 8.993 0 0 1 40 55H24a8.993 8.993 0 0 1-8.67-6.6 17.09 17.09 0 0 1 8.74-2.4h15.86a17.021 17.021 0 0 1 6.53 1.3Z"/><path fill="#c89d84" d="M56 47v12H8V47l4 4a17.284 17.284 0 0 1 3.33-2.6A8.993 8.993 0 0 0 24 55h16a8.993 8.993 0 0 0 8.67-6.6A17.284 17.284 0 0 1 52 51Z"/><path fill="#b18264" d="M8 59h48v4H8z"/><path fill="#252525" d="M56 52a1 1 0 0 0-1 1v5h-9a1 1 0 0 0 0 2h9v2H9v-2h9a1 1 0 0 0 0-2H9v-5a1 1 0 0 0-2 0v10a1 1 0 0 0 1 1h48a1 1 0 0 0 1-1V53a1 1 0 0 0-1-1Z"/><path fill="#252525" d="M51.293 25.707a1 1 0 0 0 1.414 0l4-4A1 1 0 0 0 57 21V7a1 1 0 0 0-.293-.707A21.867 21.867 0 0 0 50 1.643 19.9 19.9 0 0 0 42 0H22a19.74 19.74 0 0 0-10.958 3.247l-.031.021c-.017.012-.033.021-.049.033a22.419 22.419 0 0 0-3.669 2.992A1 1 0 0 0 7 7v14a1 1 0 0 0 .293.707l4 4a1 1 0 0 0 1.414 0 16.2 16.2 0 0 1 2.117-1.747 10.156 10.156 0 0 0 1.792 2.766 19.023 19.023 0 0 0-2.616.917 21.867 21.867 0 0 0-6.708 4.65A1 1 0 0 0 7 33v14a1 1 0 0 0 .293.707l4 4a1 1 0 0 0 1.414 0 16.279 16.279 0 0 1 2.119-1.75A10.008 10.008 0 0 0 24 56h16a10.008 10.008 0 0 0 9.174-6.043 16.293 16.293 0 0 1 2.119 1.75 1 1 0 0 0 1.414 0l4-4A1 1 0 0 0 57 47V33a1 1 0 0 0-.293-.707 22.329 22.329 0 0 0-3.686-3l-.016-.011-.039-.027a19.9 19.9 0 0 0-5.579-2.53 10.109 10.109 0 0 0 1.788-2.761 16.084 16.084 0 0 1 2.118 1.743ZM42 26H22a19.785 19.785 0 0 0-2.978.232 8.078 8.078 0 0 1-2.463-3.359c.446-.234.9-.456 1.364-.649A15.974 15.974 0 0 1 24.07 21h15.86a16.13 16.13 0 0 1 7.512 1.871 8.078 8.078 0 0 1-2.464 3.361A19.879 19.879 0 0 0 42 26Zm7.2-22.523A19.723 19.723 0 0 1 55 7.419v9.127A39.541 39.541 0 0 0 44.459 4.2a1 1 0 0 0-1.209 1.6 37.732 37.732 0 0 1 9.919 11.6 19.972 19.972 0 0 0-10.516-3.37A26.043 26.043 0 0 0 29.562 2H42a17.9 17.9 0 0 1 7.2 1.477ZM11.806 5.145A34.007 34.007 0 0 1 19.615 7.3a1.085 1.085 0 0 0 1.308-.538.99.99 0 0 0-.538-1.308A34.732 34.732 0 0 0 14.5 3.62 17.79 17.79 0 0 1 21.938 2a24.932 24.932 0 0 1 18.411 12h-8.8a22.811 22.811 0 0 0-7.028-6.443 1 1 0 1 0-1.046 1.705A22.5 22.5 0 0 1 29.044 14H22a19.051 19.051 0 0 0-2.846.2A20.014 20.014 0 0 0 9 18.755V10.8a22.808 22.808 0 0 1 5.527 2.075 1.089 1.089 0 0 0 1.357-.4.989.989 0 0 0-.4-1.357A24.993 24.993 0 0 0 9 8.754V7.419a20.239 20.239 0 0 1 2.806-2.274Zm.214 18.46-2.581-2.58a18.3 18.3 0 0 1 10-4.845A17.228 17.228 0 0 1 22 16h20a18.128 18.128 0 0 1 12.556 5.03l-2.576 2.575A18.017 18.017 0 0 0 39.93 19H24.07a17.976 17.976 0 0 0-6.914 1.376 18.746 18.746 0 0 0-2.35 1.177 18.235 18.235 0 0 0-2.786 2.052Zm2.78 5.871a17.129 17.129 0 0 1 4.085-1.211A17.617 17.617 0 0 1 22 28h12.438a26.043 26.043 0 0 0-13.091 12.032A19.972 19.972 0 0 0 10.831 43.4a37.732 37.732 0 0 1 9.919-11.6 1 1 0 0 0-1.209-1.6A39.541 39.541 0 0 0 9 42.546v-9.127a19.728 19.728 0 0 1 5.8-3.943ZM40 54H24a7.986 7.986 0 0 1-7.439-5.136A16.082 16.082 0 0 1 24.07 47h15.86a15.982 15.982 0 0 1 6.152 1.226c.458.187.909.407 1.356.642A7.987 7.987 0 0 1 40 54Zm11.98-4.4a18.309 18.309 0 0 0-2.8-2.065A18.257 18.257 0 0 0 39.93 45H24.07a18.092 18.092 0 0 0-9.255 2.543 18.3 18.3 0 0 0-2.795 2.062L9.444 47.03A18.128 18.128 0 0 1 22 42h20a17.371 17.371 0 0 1 2.574.181 18.293 18.293 0 0 1 9.987 4.844ZM55 34.754a25 25 0 0 0-6.477 2.364 1.007 1.007 0 0 0-.4 1.356.952.952 0 0 0 1.356.4A22.8 22.8 0 0 1 55 36.8v7.951A20 20 0 0 0 44.857 40.2 19.17 19.17 0 0 0 42 40h-7.046a22.018 22.018 0 0 1 4.684-4.17 1 1 0 1 0-1.116-1.66A22.248 22.248 0 0 0 32.449 40h-8.8A24.858 24.858 0 0 1 42.06 28a17.583 17.583 0 0 1 3.065.264 17.249 17.249 0 0 1 4.337 1.357 34.2 34.2 0 0 0-6.88 2.277 1 1 0 0 0-.49 1.327 1.037 1.037 0 0 0 1.326.49 33.416 33.416 0 0 1 8.782-2.569 20.233 20.233 0 0 1 2.8 2.273Z"/><circle cx="37" cy="51" r="1" fill="#252525"/><circle cx="22" cy="59" r="1" fill="#252525"/><circle cx="42" cy="24" r="1" fill="#252525"/><circle cx="38" cy="24" r="1" fill="#252525"/><circle cx="41.5" cy="50.5" r="1.5" fill="#252525"/></svg>