<svg xmlns="http://www.w3.org/2000/svg" viewBox="0 0 512 512" width="40" height="40"><path fill="#ED5564" d="M240.664 226.673 218 185.346l-35.999-21.328V94.676l-63.998 2.672-2.664 70.67-30.194 20.656-26.476 45.983-8.664 266.681h197.33z"/><path fill="#656D78" d="M112.339 8.007h64.998v86.669h-64.998z"/><path fill="#FFCE54" d="M189.001 261.75s-35.249-16.25-38.249-17l-30.5 14.75s-23.499 21-23.749 21 0 155.995 0 155.995l103.497-2 1.75-148.496-12.749-24.249z"/><path fill="#F5F7FA" d="M421.495 221.501 341.497 229l-24.499 46.75-5.5 54.248h142.996V276z"/><path fill="#ED5564" d="m311.498 340.623 23 38.873 34.998 14 44.499-5.5 40.499-22.999 6-29.999z"/><path d="M191.806 158.221V.007H106.48v158.214C68.809 174.689 42.482 212.251 42.482 256v255.993h213.322V256c0-43.749-26.327-81.311-63.998-97.779zM170.479 21.35v63.998h-42.671V21.35h42.671zm63.998 469.3H63.81V256c0-33.937 20.101-64.639 51.209-78.232l12.789-5.578v-65.53h42.671v65.53l12.789 5.578c31.108 13.594 51.209 44.296 51.209 78.232v234.65z"/><path d="M149.143 234.657c-50.858 0-63.999 42.687-63.999 42.687v170.651h127.997V277.344s-13.14-42.687-63.998-42.687zm42.663 191.995H106.48V281.438c1.312-2.797 3.961-7.594 8.406-12.188 8.492-8.781 20.015-13.25 34.257-13.25s25.772 4.469 34.257 13.25c4.445 4.594 7.094 9.391 8.406 12.188v145.214zM431.65 213.345h-95.684c-40.594 53.312-37.828 127.997-37.828 127.997s3.656 58.123 74.998 63.576v85.732h-42.654c-5.891 0-10.672 4.781-10.672 10.688 0 5.874 4.781 10.655 10.672 10.655h106.652c5.891 0 10.672-4.781 10.672-10.655 0-5.906-4.781-10.688-10.672-10.688H394.48v-85.732c71.342-5.453 74.998-63.576 74.998-63.576s2.766-74.686-37.828-127.997zm-84.59 21.312h73.482c18.593 29.078 24.718 63.78 26.702 85.341H320.373c1.984-21.561 8.094-56.264 26.687-85.341zm36.749 149.339c-25.719-.062-44.233-7.359-55.045-21.687-6.422-8.499-8.5-17.437-9.125-20.968h128.355c-.547 3.156-2.422 11.438-8.203 19.671-10.64 15.172-29.482 22.922-55.982 22.984z"/></svg>