<svg xmlns="http://www.w3.org/2000/svg" viewBox="0 0 48 48"><g data-name="1. Earth"><circle cx="24" cy="24" r="23" fill="#9fdbf3"/><path fill="#b2e5fb" d="M47,24a22.91,22.91,0,0,1-8.81,18.09A22.88,22.88,0,0,1,27,45C5.28,45-4.37,17.34,12.81,3.91A23,23,0,0,1,47,24Z"/><path fill="#82bcf4" d="M25,7c-2,3-5,0-7,1s.45,3.23,1,6c1,5-4,3-6,4-2.53,1.26-.47,5.74-3,7-1.45.73-3.95.92-6-2.08C3.73,14.21,8.66,6.2,13.4,3.59A22.85,22.85,0,0,1,24,1S26.75,4.37,25,7Z"/><path fill="#9dcc6b" d="M25,7c-2,3-5,0-7,1s.45,3.23,1,6c1,5-4,3-6,4-2.53,1.26-.47,5.74-3,7-2,1-6,1-8-7C1.28,15.89,8.29,1,24,1,24,1,26.75,4.37,25,7Z"/><path fill="#b5e08c" d="M25.54,5.56c-2,2-4.68-.49-6.54.44-.84.42-.9,1.06-.63,1.87A1.26,1.26,0,0,0,18,8c-2.25,1.13,1.13,3.77,1.13,7.17-1.38.77-3.86.2-5.13.83-2.39,1.2-.68,5.28-2.64,6.77a4.06,4.06,0,0,1-3.94.32c-4-1.81-2-9-.45-12.41a23.14,23.14,0,0,1,5.84-6.77A22.81,22.81,0,0,1,24,1S25.87,3.29,25.54,5.56Z"/><path fill="#9dcc6b" d="M22.41,37.5a3.37,3.37,0,0,0-2.58,3.17,1,1,0,0,1-1.83.38,8.33,8.33,0,0,1-1-2c-1-3-4.11-3.21-5-5-1-2,0-6,4-5,0,0,3,1,4,3s4.07,0,5,2C26,36.17,24.37,37.08,22.41,37.5Z"/><path fill="#b5e08c" d="M25.26,35.54c-.38,2.07-3.19,1.39-4.58,3A9.11,9.11,0,0,1,20,37c-1-3-4.11-3.21-5-5a4.14,4.14,0,0,1-.09-3.16A7,7,0,0,1,20,32c1,2,4.07,0,5,2A2.47,2.47,0,0,1,25.26,35.54Z"/><path fill="#9dcc6b" d="M41,23.74c-.84,2.51,1.55,8.23-2,11.09-.1,0-2.66,2-3.84.56-.74-.87-1-2.48-.13-4.65s1-5-2-6-6,1-7-4c-.62-3.1,2.42-4.42,4-6,3-3,0-4,1-7,.6-1.81,3-2.89,4.85-3.45C41.37,8,45,12.52,46.45,19,44.39,19.67,41.78,21.39,41,23.74Z"/><path fill="#b5e08c" d="M41,23.74c-.84,2.51,1.55,8.23-2,11.09-.92,0-2.29-1.8-1-5.09.83-2.08,1-5-2-6s-6,1-7-4c-.62-3.1,2.42-4.42,4-6,3-3,0-4,1-7a4.45,4.45,0,0,1,2.12-2.28A23,23,0,0,1,46.45,19C44.39,19.67,41.78,21.39,41,23.74Z"/><path d="M36.34,3.42C19-6.34,0,6.33,0,24A24,24,0,0,0,24,48C48.15,48,57.23,16,36.34,3.42Zm8.93,15a9.19,9.19,0,0,0-5.22,5c-.81,2.44.9,7.1-.88,9.77a4.12,4.12,0,0,1-2.75,1.67c-1.36.07-1-2.41-.49-3.75,1.26-3.16.59-6.25-2.61-7.32-3.38-1.12-5.5.94-6.34-3.25-.48-2.41,2.09-3.45,3.73-5.09,3.4-3.4.43-5,1.24-7.4.33-1,1.7-2,3.76-2.66A22.06,22.06,0,0,1,45.27,18.39ZM23.49,2c.56.84,1.7,2.9.68,4.44-1.53,2.28-4.14-.58-6.62.66-2.16,1.08-1.15,3.19-.48,4.58,3.34,7-1.68,4-4.52,5.41-3.09,1.55-1.23,6.13-3,7C6.17,25.8,3.93,21.61,3,17.68,2.5,16.36,8.71,2.35,23.49,2ZM24,46A22,22,0,0,1,2.14,21.54c2.14,4.85,5.63,5.69,8.31,4.36,1.77-.89,1.92-2.79,2.05-4.32.22-2.79.55-2.86,2.91-2.94,3.36-.11,5.31-1.14,4.57-4.83-.49-2.47-2.29-4.53-1.53-4.92,1.37-.68,5,2.23,7.38-1.34a5.41,5.41,0,0,0,0-5.47,22,22,0,0,1,7.64,2.06c-3.35,1.6-4.23,3.8-3.33,6.84.53,1.8,0,2.42-2,4.06C26.55,16.27,24.42,18,25,20.94c.86,4.28,3.33,4.37,5.32,4.44,8.6.3.67,6.71,4,10.66,1.56,1.83,5.09.32,6.46-1.75,2.23-3.33.51-8.41,1.12-10.23A7,7,0,0,1,45.7,20.4,22,22,0,0,1,24,46Z"/><path d="M20.89,31.55c-1.17-2.34-4.44-3.45-4.57-3.5-4.11-1.31-6.92,3-5.21,6.4a5.72,5.72,0,0,0,2.33,2.14c3.29,2,2,2.42,3.73,5a2,2,0,0,0,2.18.84c2.31-.57.74-3.42,3.27-4,3.55-.77,4.26-2.79,3.29-4.9C24.7,31,21.46,32.68,20.89,31.55Zm-2.06,8.94c-1.42-2.1-.49-3.22-4.33-5.6a4.24,4.24,0,0,1-1.61-1.34c-.75-1.51-.05-4.29,2.83-3.59,4.79,1.65,2.21,4,6.8,4,1.11,0,1.41.08,1.57.43C25.49,37.46,19.48,34.92,18.83,40.49Z"/></g></svg>